GeoramaExtended-BoldItalic.ufo
<glyph name="exclam" format="2">
  <advance width="309.41999999999996"/>
  <unicode hex="0021"/>
  <outline>
    <contour>
      <point x="77.36000000000001" y="260.5" type="line"/>
      <point x="225.27999999999997" y="260.5" type="line"/>
      <point x="314.77" y="740.0" type="line"/>
      <point x="143.05" y="740.0" type="line"/>
    </contour>
    <contour>
      <point x="25.22" y="55.78" type="curve" smooth="yes"/>
      <point x="24.92" y="13.549999999999999"/>
      <point x="49.29999999999998" y="-7.0"/>
      <point x="109.93" y="-7.0" type="curve" smooth="yes"/>
      <point x="182.48999999999995" y="-7.0"/>
      <point x="221.76" y="30.89"/>
      <point x="222.66" y="101.98" type="curve" smooth="yes"/>
      <point x="222.96" y="144.29999999999998"/>
      <point x="198.39999999999998" y="164.76"/>
      <point x="138.35000000000002" y="164.76" type="curve" smooth="yes"/>
      <point x="63.93999999999999" y="164.76"/>
      <point x="26.120000000000005" y="124.83999999999999"/>
    </contour>
  </outline>
</glyph>
<glyph name="numbersign" format="2">
  <advance width="842.3399999999999"/>
  <unicode hex="0023"/>
  <outline>
    <contour>
      <point x="152.52" y="430.12" type="line"/>
      <point x="238.57999999999998" y="430.12" type="line"/>
      <point x="182.28" y="268.59" type="line"/>
      <point x="99.49" y="268.59" type="line"/>
      <point x="80.23000000000002" y="150.63" type="line"/>
      <point x="145.21999999999997" y="150.63" type="line"/>
      <point x="95.28000000000002" y="0.0" type="line"/>
      <point x="262.78999999999996" y="0.0" type="line"/>
      <point x="312.43" y="150.63" type="line"/>
      <point x="421.21999999999997" y="150.63" type="line"/>
      <point x="371.58" y="0.0" type="line"/>
      <point x="538.7900000000001" y="0.0" type="line"/>
      <point x="588.43" y="150.63" type="line"/>
      <point x="694.88" y="150.63" type="line"/>
      <point x="713.56" y="268.59" type="line"/>
      <point x="626.68" y="268.59" type="line"/>
      <point x="681.79" y="430.12" type="line"/>
      <point x="766.59" y="430.12" type="line"/>
      <point x="786.1800000000001" y="547.52" type="line"/>
      <point x="719.06" y="547.52" type="line"/>
      <point x="770.0299999999999" y="700.0" type="line"/>
      <point x="602.61" y="700.0" type="line"/>
      <point x="551.6400000000001" y="547.52" type="line"/>
      <point x="442.85" y="547.52" type="line"/>
      <point x="493.82" y="700.0" type="line"/>
      <point x="326.61" y="700.0" type="line"/>
      <point x="275.64" y="547.52" type="line"/>
      <point x="171.62" y="547.52" type="line"/>
    </contour>
    <contour>
      <point x="405.78999999999996" y="430.12" type="line"/>
      <point x="514.5799999999999" y="430.12" type="line"/>
      <point x="458.49" y="268.59" type="line"/>
      <point x="349.69999999999993" y="268.59" type="line"/>
    </contour>
  </outline>
</glyph>
<glyph name="dollar" format="2">
  <advance width="842.3399999999999"/>
  <unicode hex="0024"/>
  <outline>
    <contour>
      <point x="773.92" y="669.82" type="line"/>
      <point x="726.85" y="683.8400000000001"/>
      <point x="657.7199999999999" y="703.26"/>
      <point x="565.9999999999999" y="708.27" type="curve"/>
      <point x="581.6999999999999" y="804.58" type="line"/>
      <point x="454.8999999999999" y="804.58" type="line"/>
      <point x="438.69" y="704.8700000000001" type="line"/>
      <point x="281.19000000000005" y="692.69"/>
      <point x="134.68" y="630.4399999999999"/>
      <point x="134.68" y="472.74000000000007" type="curve" smooth="yes"/>
      <point x="134.68" y="239.52"/>
      <point x="558.8" y="297.78"/>
      <point x="558.8" y="199.57" type="curve" smooth="yes"/>
      <point x="558.8" y="142.85999999999999"/>
      <point x="481.54" y="124.32999999999998"/>
      <point x="401.78999999999996" y="124.32999999999998" type="curve" smooth="yes"/>
      <point x="293.90999999999997" y="124.32999999999998"/>
      <point x="173.91" y="150.96999999999997"/>
      <point x="98.16" y="179.70000000000002" type="curve"/>
      <point x="45.53999999999999" y="43.449999999999996" type="line"/>
      <point x="113.50999999999999" y="20.14"/>
      <point x="215.01999999999998" y="-4.330000000000001"/>
      <point x="321.89000000000004" y="-8.25" type="curve"/>
      <point x="306.89000000000004" y="-105.0" type="line"/>
      <point x="433.2" y="-105.0" type="line"/>
      <point x="448.2" y="-5.08" type="line"/>
      <point x="598.8" y="12.630000000000003"/>
      <point x="750.3199999999999" y="66.21999999999998"/>
      <point x="750.3199999999999" y="227.71999999999997" type="curve" smooth="yes"/>
      <point x="750.3199999999999" y="457.36999999999995"/>
      <point x="325.61999999999995" y="395.69"/>
      <point x="325.61999999999995" y="497.41999999999996" type="curve" smooth="yes"/>
      <point x="325.61999999999995" y="553.8800000000001"/>
      <point x="402.84000000000003" y="571.8100000000001"/>
      <point x="473.84999999999985" y="571.8100000000001" type="curve" smooth="yes"/>
      <point x="566.6999999999999" y="571.8100000000001"/>
      <point x="651.2700000000001" y="559.62"/>
      <point x="723.34" y="533.58" type="curve"/>
    </contour>
  </outline>
</glyph>
<glyph name="ampersand" format="2">
  <advance width="896.5999999999998"/>
  <unicode hex="0026"/>
  <outline>
    <contour>
      <point x="367.53" y="-10.0" type="curve" smooth="yes"/>
      <point x="593.8599999999999" y="-10.0"/>
      <point x="744.9699999999999" y="103.39999999999998"/>
      <point x="786.2500000000001" y="305.96999999999997" type="curve"/>
      <point x="650.65" y="304.71999999999997" type="line"/>
      <point x="639.6299999999999" y="184.28"/>
      <point x="519.51" y="115.58999999999999"/>
      <point x="388.5" y="115.58999999999999" type="curve" smooth="yes"/>
      <point x="274.35" y="115.58999999999999"/>
      <point x="211.47999999999996" y="154.82"/>
      <point x="211.47999999999996" y="212.88000000000002" type="curve" smooth="yes"/>
      <point x="211.47999999999996" y="289.43000000000006"/>
      <point x="285.89000000000004" y="326.64000000000004"/>
      <point x="375.68" y="326.64000000000004" type="curve" smooth="yes"/>
      <point x="427.82" y="326.64000000000004" type="line"/>
      <point x="449.86" y="416.66999999999996" type="line"/>
      <point x="430.59" y="419.19" type="line" smooth="yes"/>
      <point x="354.54999999999995" y="427.72999999999996"/>
      <point x="310.76" y="454.53"/>
      <point x="310.76" y="504.84000000000003" type="curve" smooth="yes"/>
      <point x="310.76" y="550.65"/>
      <point x="354.43" y="589.5200000000001"/>
      <point x="425.5" y="589.5200000000001" type="curve" smooth="yes"/>
      <point x="473.13" y="589.5200000000001"/>
      <point x="519.41" y="573.07"/>
      <point x="560.6999999999999" y="542.5699999999999" type="curve"/>
      <point x="652.23" y="635.01" type="line"/>
      <point x="586.2199999999999" y="684.53"/>
      <point x="503.74999999999994" y="710.0"/>
      <point x="406.1" y="710.0" type="curve" smooth="yes"/>
      <point x="236.19" y="710.0"/>
      <point x="131.04" y="629.41"/>
      <point x="131.04" y="531.54" type="curve" smooth="yes"/>
      <point x="131.04" y="468.10999999999996"/>
      <point x="178.03" y="414.46000000000004"/>
      <point x="251.57" y="394.08" type="curve"/>
      <point x="118.36999999999998" y="380.40000000000003"/>
      <point x="27.980000000000004" y="315.23"/>
      <point x="27.980000000000004" y="197.53" type="curve" smooth="yes"/>
      <point x="27.980000000000004" y="71.44"/>
      <point x="140.41" y="-10.0"/>
    </contour>
    <contour>
      <point x="542.68" y="224.42" type="line"/>
      <point x="550.1299999999999" y="263.61"/>
      <point x="576.25" y="279.24"/>
      <point x="608.9499999999999" y="279.24" type="curve" smooth="yes"/>
      <point x="672.0899999999999" y="279.24"/>
      <point x="729.88" y="264.02000000000004"/>
      <point x="784.17" y="264.02000000000004" type="curve" smooth="yes"/>
      <point x="866.1299999999999" y="264.02000000000004"/>
      <point x="921.1199999999999" y="335.69"/>
      <point x="917.1" y="432.05999999999995" type="curve"/>
      <point x="813.9499999999999" y="432.87" type="line"/>
      <point x="812.6199999999999" y="383.91999999999996"/>
      <point x="785.22" y="367.19"/>
      <point x="735.3199999999999" y="367.19" type="curve" smooth="yes"/>
      <point x="684.3000000000001" y="367.19"/>
      <point x="647.0199999999999" y="385.49"/>
      <point x="594.1399999999999" y="385.49" type="curve" smooth="yes"/>
      <point x="509.36" y="385.49"/>
      <point x="456.06999999999994" y="330.39"/>
      <point x="448.26" y="250.82999999999998" type="curve"/>
    </contour>
  </outline>
</glyph>
<glyph name="quotesingle" format="2">
  <advance width="229.36999999999998"/>
  <unicode hex="0027"/>
  <outline>
    <contour>
      <point x="69.08000000000001" y="427.0" type="line"/>
      <point x="206.26000000000002" y="427.0" type="line"/>
      <point x="257.46" y="700.0" type="line"/>
      <point x="105.91" y="700.0" type="line"/>
    </contour>
  </outline>
</glyph>
<glyph name="parenleft" format="2">
  <advance width="406.37"/>
  <unicode hex="0028"/>
  <outline>
    <contour>
      <point x="65.42000000000002" y="112.3" type="curve" smooth="yes"/>
      <point x="65.42000000000002" y="-58.74"/>
      <point x="131.07" y="-196.49"/>
      <point x="296.76" y="-220.0" type="curve"/>
      <point x="316.96999999999997" y="-103.2" type="line"/>
      <point x="239.33999999999997" y="-77.21000000000002"/>
      <point x="204.86999999999998" y="-4.6700000000000035"/>
      <point x="204.86999999999998" y="104.98000000000002" type="curve" smooth="yes"/>
      <point x="204.86999999999998" y="291.60999999999996"/>
      <point x="278.45" y="598.49"/>
      <point x="431.66" y="628.92" type="curve"/>
      <point x="449.65" y="749.9100000000001" type="line"/>
      <point x="179.26" y="732.26"/>
      <point x="65.42000000000002" y="380.11"/>
    </contour>
  </outline>
</glyph>
<glyph name="parenright" format="2">
  <advance width="406.37"/>
  <unicode hex="0029"/>
  <outline>
    <contour>
      <point x="337.55" y="417.28" type="curve" smooth="yes"/>
      <point x="337.55" y="592.03"/>
      <point x="271.57" y="726.49"/>
      <point x="105.67" y="750.0" type="curve"/>
      <point x="85.64" y="630.06" type="line"/>
      <point x="165.55" y="603.11"/>
      <point x="198.09999999999997" y="529.73"/>
      <point x="198.09999999999997" y="423.32" type="curve" smooth="yes"/>
      <point x="198.09999999999997" y="240.85999999999999"/>
      <point x="125.89999999999999" y="-67.08000000000001"/>
      <point x="-29.200000000000006" y="-98.67999999999999" type="curve"/>
      <point x="-47.1" y="-220.0" type="line"/>
      <point x="215.34" y="-199.36"/>
      <point x="337.55" y="144.26"/>
    </contour>
  </outline>
</glyph>
<glyph name="asterisk" format="2">
  <advance width="419.74"/>
  <unicode hex="002A"/>
  <outline>
    <contour>
      <point x="138.35999999999999" y="329.1" type="line"/>
      <point x="233.98" y="432.44" type="line"/>
      <point x="295.58" y="329.19000000000005" type="line"/>
      <point x="363.43" y="373.77" type="line"/>
      <point x="318.67999999999995" y="491.51000000000005" type="line"/>
      <point x="438.57000000000005" y="544.36" type="line"/>
      <point x="427.91999999999996" y="618.0400000000001" type="line"/>
      <point x="306.55" y="588.44" type="line"/>
      <point x="319.0" y="723.0100000000001" type="line"/>
      <point x="243.43" y="723.0100000000001" type="line"/>
      <point x="212.64000000000001" y="588.53" type="line"/>
      <point x="100.54" y="618.13" type="line"/>
      <point x="66.78" y="544.5400000000001" type="line"/>
      <point x="168.61" y="491.69000000000005" type="line"/>
      <point x="86.08999999999999" y="374.19" type="line"/>
    </contour>
  </outline>
</glyph>
<glyph name="plus" format="2">
  <advance width="582.9699999999999"/>
  <unicode hex="002B"/>
  <outline>
    <contour>
      <point x="188.57" y="98.46" type="line"/>
      <point x="337.49" y="98.46" type="line"/>
      <point x="359.91999999999996" y="242.45999999999998" type="line"/>
      <point x="522.0799999999999" y="242.45999999999998" type="line"/>
      <point x="544.89" y="382.0" type="line"/>
      <point x="382.73" y="382.0" type="line"/>
      <point x="405.86" y="525.6" type="line"/>
      <point x="257.92" y="525.6" type="line"/>
      <point x="233.80999999999997" y="382.0" type="line"/>
      <point x="73.03" y="382.0" type="line"/>
      <point x="50.22" y="242.45999999999998" type="line"/>
      <point x="211.97999999999996" y="242.45999999999998" type="line"/>
    </contour>
  </outline>
</glyph>
<glyph name="comma" format="2">
  <advance width="274.94"/>
  <unicode hex="002C"/>
  <outline>
    <contour>
      <point x="30.409999999999997" y="86.64" type="line"/>
      <point x="30.64" y="64.25"/>
      <point x="28.26" y="42.12"/>
      <point x="25.67" y="24.139999999999993" type="curve" smooth="yes"/>
      <point x="16.92" y="-42.07"/>
      <point x="-16.59" y="-119.59"/>
      <point x="-70.36" y="-171.69" type="curve"/>
      <point x="58.69999999999998" y="-195.44000000000003" type="line"/>
      <point x="137.0" y="-130.17"/>
      <point x="193.34999999999997" y="-38.19000000000001"/>
      <point x="193.34999999999997" y="54.43999999999999" type="curve" smooth="yes"/>
      <point x="193.34999999999997" y="66.91"/>
      <point x="192.01999999999998" y="78.87"/>
      <point x="189.32" y="89.85999999999999" type="curve"/>
    </contour>
  </outline>
</glyph>
<glyph name="hyphen" format="2">
  <advance width="399.36000000000007"/>
  <unicode hex="002D"/>
  <outline>
    <contour>
      <point x="42.85" y="230.32" type="line"/>
      <point x="341.39" y="230.32" type="line"/>
      <point x="365.13" y="374.47999999999996" type="line"/>
      <point x="66.59" y="374.47999999999996" type="line"/>
    </contour>
  </outline>
</glyph>
<glyph name="period" format="2">
  <advance width="281.31"/>
  <unicode hex="002E"/>
  <outline>
    <contour>
      <point x="10.560000000000002" y="56.41" type="curve" smooth="yes"/>
      <point x="10.260000000000002" y="13.969999999999999"/>
      <point x="34.43" y="-6.369999999999999"/>
      <point x="95.27" y="-6.369999999999999" type="curve" smooth="yes"/>
      <point x="167.83" y="-6.369999999999999"/>
      <point x="206.89000000000001" y="31.520000000000003"/>
      <point x="207.79" y="103.03" type="curve" smooth="yes"/>
      <point x="208.09" y="145.14"/>
      <point x="183.74" y="165.39"/>
      <point x="123.69" y="165.39" type="curve" smooth="yes"/>
      <point x="49.07" y="165.39"/>
      <point x="11.460000000000004" y="125.46999999999998"/>
    </contour>
  </outline>
</glyph>
<glyph name="slash" format="2">
  <advance width="482.95"/>
  <unicode hex="002F"/>
  <outline>
    <contour>
      <point x="-71.11000000000001" y="-210.0" type="line"/>
      <point x="70.44" y="-210.0" type="line"/>
      <point x="551.06" y="740.0" type="line"/>
      <point x="408.59999999999997" y="740.0" type="line"/>
    </contour>
  </outline>
</glyph>
<glyph name="zero" format="2">
  <advance width="842.6999999999999"/>
  <unicode hex="0030"/>
  <outline>
    <contour>
      <point x="408.3" y="-10.6" type="curve" smooth="yes"/>
      <point x="649.0" y="-10.6"/>
      <point x="804.4" y="158.39999999999998"/>
      <point x="804.4" y="409.5" type="curve" smooth="yes"/>
      <point x="804.4" y="607.0"/>
      <point x="682.4" y="710.3"/>
      <point x="457.69999999999993" y="710.3" type="curve" smooth="yes"/>
      <point x="213.79999999999998" y="710.3"/>
      <point x="61.6" y="541.3"/>
      <point x="61.6" y="291.8" type="curve" smooth="yes"/>
      <point x="61.6" y="94.80000000000001"/>
      <point x="184.2" y="-10.6"/>
    </contour>
    <contour>
      <point x="412.19999999999993" y="122.6" type="curve" smooth="yes"/>
      <point x="311.8" y="122.6"/>
      <point x="251.7" y="176.4"/>
      <point x="251.7" y="286.4" type="curve" smooth="yes"/>
      <point x="251.69999999999996" y="428.50000000000006"/>
      <point x="317.20000000000005" y="578.0"/>
      <point x="454.09999999999997" y="578.0" type="curve" smooth="yes"/>
      <point x="554.3" y="578.0"/>
      <point x="614.3" y="524.9"/>
      <point x="614.2999999999998" y="415.1" type="curve" smooth="yes"/>
      <point x="614.3000000000001" y="273.7"/>
      <point x="548.4000000000001" y="122.6"/>
    </contour>
  </outline>
</glyph>
<glyph name="one" format="2">
  <advance width="842.3399999999999"/>
  <unicode hex="0031"/>
  <outline>
    <contour>
      <point x="106.37999999999998" y="0.0" type="line"/>
      <point x="711.81" y="0.0" type="line"/>
      <point x="734.34" y="137.39" type="line"/>
      <point x="535.8699999999999" y="137.39" type="line"/>
      <point x="627.14" y="702.1" type="line"/>
      <point x="536.97" y="702.1" type="line"/>
      <point x="166.54000000000002" y="558.5799999999999" type="line"/>
      <point x="187.88" y="415.22" type="line"/>
      <point x="410.54999999999995" y="505.61000000000007" type="line"/>
      <point x="352.78999999999996" y="137.39" type="line"/>
      <point x="128.7" y="137.39" type="line"/>
    </contour>
  </outline>
</glyph>
<glyph name="two" format="2">
  <advance width="842.6999999999999"/>
  <unicode hex="0032"/>
  <outline>
    <contour>
      <point x="72.39999999999999" y="105.5" type="curve"/>
      <point x="57.70000000000001" y="0.0" type="line"/>
      <point x="714.6" y="0.0" type="line"/>
      <point x="737.6" y="135.8" type="line"/>
      <point x="379.6" y="135.8" type="line"/>
      <point x="590.5000000000001" y="264.59999999999997"/>
      <point x="713.1" y="368.4"/>
      <point x="713.1" y="518.5" type="curve" smooth="yes"/>
      <point x="713.1" y="639.1"/>
      <point x="605.4999999999999" y="710.0"/>
      <point x="452.59999999999997" y="710.0" type="curve" smooth="yes"/>
      <point x="347.7999999999999" y="710.0"/>
      <point x="227.49999999999994" y="679.3"/>
      <point x="146.40000000000003" y="635.0" type="curve"/>
      <point x="175.70000000000002" y="495.99999999999994" type="line"/>
      <point x="250.29999999999998" y="528.5"/>
      <point x="324.1" y="552.7999999999998"/>
      <point x="400.99999999999994" y="552.7999999999998" type="curve" smooth="yes"/>
      <point x="478.69999999999993" y="552.7999999999998"/>
      <point x="517.8" y="519.3000000000001"/>
      <point x="517.8" y="469.5999999999999" type="curve" smooth="yes"/>
      <point x="517.8" y="351.70000000000005"/>
      <point x="326.30000000000007" y="227.99999999999994"/>
    </contour>
  </outline>
</glyph>
<glyph name="three" format="2">
  <advance width="842.6999999999998"/>
  <unicode hex="0033"/>
  <outline>
    <contour>
      <point x="28.899999999999995" y="50.20000000000001" type="line"/>
      <point x="117.2" y="8.2"/>
      <point x="224.39999999999998" y="-9.8"/>
      <point x="346.59999999999997" y="-9.8" type="curve" smooth="yes"/>
      <point x="524.4999999999999" y="-9.8"/>
      <point x="740.6" y="47.300000000000004"/>
      <point x="740.6" y="231.2" type="curve" smooth="yes"/>
      <point x="740.6" y="309.49999999999994"/>
      <point x="695.9" y="354.0"/>
      <point x="615.1999999999998" y="373.5" type="curve"/>
      <point x="698.4" y="397.59999999999997"/>
      <point x="762.8000000000001" y="458.09999999999997"/>
      <point x="762.8000000000001" y="550.1999999999999" type="curve" smooth="yes"/>
      <point x="762.8000000000001" y="650.0"/>
      <point x="666.1999999999999" y="710.0"/>
      <point x="458.0" y="710.0" type="curve" smooth="yes"/>
      <point x="341.0999999999999" y="710.0"/>
      <point x="219.10000000000002" y="691.8000000000001"/>
      <point x="148.6" y="661.1" type="curve"/>
      <point x="165.6" y="532.6" type="line"/>
      <point x="239.89999999999995" y="555.6999999999999"/>
      <point x="329.29999999999995" y="569.4"/>
      <point x="406.7" y="569.4" type="curve" smooth="yes"/>
      <point x="512.5" y="569.4"/>
      <point x="576.6999999999998" y="546.2"/>
      <point x="576.6999999999998" y="499.0" type="curve" smooth="yes"/>
      <point x="576.6999999999998" y="447.6"/>
      <point x="527.3999999999999" y="417.79999999999995"/>
      <point x="412.9" y="417.79999999999995" type="curve" smooth="yes"/>
      <point x="252.10000000000002" y="417.79999999999995" type="line"/>
      <point x="231.49999999999997" y="294.59999999999997" type="line"/>
      <point x="414.0999999999999" y="294.59999999999997" type="line" smooth="yes"/>
      <point x="518.0" y="294.59999999999997"/>
      <point x="557.5999999999999" y="269.6000000000001"/>
      <point x="557.5999999999999" y="223.89999999999998" type="curve" smooth="yes"/>
      <point x="557.5999999999999" y="160.59999999999997"/>
      <point x="490.09999999999997" y="129.6"/>
      <point x="358.9" y="129.6" type="curve" smooth="yes"/>
      <point x="253.2" y="129.6"/>
      <point x="153.6" y="147.20000000000002"/>
      <point x="86.5" y="176.1" type="curve"/>
    </contour>
  </outline>
</glyph>
<glyph name="four" format="2">
  <advance width="842.6999999999998"/>
  <unicode hex="0034"/>
  <outline>
    <contour>
      <point x="24.599999999999998" y="120.5" type="line"/>
      <point x="450.2" y="120.5" type="line"/>
      <point x="430.9999999999999" y="-1.5000000000000007" type="line"/>
      <point x="616.8" y="-1.5000000000000007" type="line"/>
      <point x="635.9999999999999" y="120.5" type="line"/>
      <point x="762.5999999999999" y="120.5" type="line"/>
      <point x="782.4" y="245.29999999999998" type="line"/>
      <point x="656.3" y="245.29999999999998" type="line"/>
      <point x="730.0999999999998" y="698.8000000000001" type="line"/>
      <point x="601.2" y="701.2" type="line"/>
      <point x="40.19999999999999" y="225.50000000000003" type="line"/>
    </contour>
    <contour>
      <point x="228.6" y="245.29999999999998" type="line"/>
      <point x="512.1000000000001" y="486.0999999999999" type="line"/>
      <point x="472.30000000000007" y="245.29999999999998" type="line"/>
    </contour>
  </outline>
</glyph>
<glyph name="five" format="2">
  <advance width="842.6999999999999"/>
  <unicode hex="0035"/>
  <outline>
    <contour>
      <point x="44.599999999999994" y="48.5" type="line"/>
      <point x="128.7" y="7.2"/>
      <point x="227.49999999999997" y="-10.0"/>
      <point x="350.40000000000003" y="-10.0" type="curve" smooth="yes"/>
      <point x="634.4999999999999" y="-10.0"/>
      <point x="745.9" y="103.39999999999999"/>
      <point x="745.9" y="257.90000000000003" type="curve" smooth="yes"/>
      <point x="745.9" y="375.5"/>
      <point x="672.5000000000001" y="428.80000000000007"/>
      <point x="497.0" y="429.20000000000005" type="curve" smooth="yes"/>
      <point x="311.0" y="429.4" type="line"/>
      <point x="344.7999999999999" y="557.0" type="line"/>
      <point x="746.8999999999999" y="557.0" type="line"/>
      <point x="770.6999999999999" y="700.0" type="line"/>
      <point x="247.1" y="700.0" type="line"/>
      <point x="132.29999999999998" y="313.1000000000001" type="line"/>
      <point x="139.79999999999995" y="304.0" type="line"/>
      <point x="422.2" y="304.0" type="line" smooth="yes"/>
      <point x="533.9999999999999" y="304.0"/>
      <point x="566.1999999999999" y="281.8"/>
      <point x="566.1999999999999" y="234.8" type="curve" smooth="yes"/>
      <point x="566.1999999999999" y="175.99999999999997"/>
      <point x="503.1" y="129.0"/>
      <point x="360.7" y="129.0" type="curve" smooth="yes"/>
      <point x="254.3" y="129.0"/>
      <point x="159.4" y="151.30000000000004"/>
      <point x="98.4" y="177.50000000000003" type="curve"/>
    </contour>
  </outline>
</glyph>
<glyph name="six" format="2">
  <advance width="842.6999999999999"/>
  <unicode hex="0036"/>
  <note>
14
</note>
  <outline>
    <contour>
      <point x="404.5999999999999" y="-10.0" type="curve" smooth="yes"/>
      <point x="603.9999999999999" y="-10.0"/>
      <point x="777.9000000000001" y="57.899999999999984"/>
      <point x="777.9000000000001" y="251.79999999999998" type="curve" smooth="yes"/>
      <point x="777.9000000000001" y="373.99999999999994"/>
      <point x="683.8999999999999" y="447.50000000000006"/>
      <point x="509.50000000000006" y="447.50000000000006" type="curve" smooth="yes"/>
      <point x="415.40000000000003" y="447.50000000000006"/>
      <point x="311.99999999999994" y="427.8"/>
      <point x="237.5" y="381.0" type="curve"/>
      <point x="229.40000000000003" y="267.5" type="line"/>
      <point x="282.99999999999994" y="300.9"/>
      <point x="366.49999999999994" y="322.5"/>
      <point x="443.5999999999999" y="322.5" type="curve" smooth="yes"/>
      <point x="558.2" y="322.5"/>
      <point x="598.4999999999999" y="291.70000000000005"/>
      <point x="598.4999999999999" y="236.09999999999997" type="curve" smooth="yes"/>
      <point x="598.4999999999999" y="166.99999999999997"/>
      <point x="536.4999999999999" y="125.3"/>
      <point x="427.8999999999999" y="125.3" type="curve" smooth="yes"/>
      <point x="308.99999999999994" y="125.3"/>
      <point x="241.79999999999998" y="169.99999999999997"/>
      <point x="241.79999999999998" y="274.7" type="curve" smooth="yes"/>
      <point x="241.79999999999998" y="374.00000000000006"/>
      <point x="277.4" y="455.90000000000003"/>
      <point x="344.1" y="507.4" type="curve" smooth="yes"/>
      <point x="396.59999999999997" y="547.6"/>
      <point x="468.69999999999993" y="570.4000000000001"/>
      <point x="554.5000000000001" y="570.4000000000001" type="curve" smooth="yes"/>
      <point x="632.8" y="570.4000000000001"/>
      <point x="695.6999999999999" y="559.8"/>
      <point x="761.7" y="540.0" type="curve"/>
      <point x="813.1999999999999" y="669.5" type="line"/>
      <point x="754.9" y="691.6000000000001"/>
      <point x="659.9000000000001" y="710.0"/>
      <point x="550.1999999999999" y="710.0" type="curve" smooth="yes"/>
      <point x="260.5" y="710.0"/>
      <point x="67.10000000000001" y="541.6999999999999"/>
      <point x="67.10000000000001" y="269.50000000000006" type="curve" smooth="yes"/>
      <point x="67.10000000000001" y="77.4"/>
      <point x="192.89999999999998" y="-10.0"/>
    </contour>
  </outline>
</glyph>
<glyph name="seven" format="2">
  <advance width="842.3399999999999"/>
  <unicode hex="0037"/>
  <note>
9
</note>
  <outline>
    <contour>
      <point x="190.57000000000002" y="0.0" type="curve"/>
      <point x="380.92999999999995" y="0.0" type="line"/>
      <point x="404.38999999999993" y="119.97"/>
      <point x="463.17999999999995" y="210.75"/>
      <point x="602.99" y="372.39" type="curve" smooth="yes"/>
      <point x="785.61" y="582.55" type="line"/>
      <point x="804.64" y="700.0" type="line"/>
      <point x="155.31" y="700.0" type="line"/>
      <point x="132.29" y="554.35" type="line"/>
      <point x="566.93" y="554.35" type="line"/>
      <point x="404.19999999999993" y="375.67" type="line" smooth="yes"/>
      <point x="273.11999999999995" y="231.53"/>
      <point x="212.85000000000002" y="135.45000000000002"/>
    </contour>
  </outline>
</glyph>
<glyph name="eight" format="2">
  <advance width="855.0999999999999"/>
  <unicode hex="0038"/>
  <outline>
    <contour>
      <point x="399.70000000000005" y="-10.0" type="curve" smooth="yes"/>
      <point x="613.4999999999999" y="-10.0"/>
      <point x="787.2" y="37.70000000000002"/>
      <point x="787.2" y="219.10000000000002" type="curve" smooth="yes"/>
      <point x="787.2" y="467.5"/>
      <point x="294.3" y="374.0"/>
      <point x="294.3" y="512.4" type="curve" smooth="yes"/>
      <point x="294.3" y="561.0999999999999"/>
      <point x="356.9" y="584.0"/>
      <point x="468.99999999999994" y="584.0" type="curve" smooth="yes"/>
      <point x="581.5999999999999" y="584.0"/>
      <point x="632.7000000000002" y="554.6"/>
      <point x="632.7000000000002" y="506.90000000000003" type="curve" smooth="yes"/>
      <point x="632.7000000000002" y="454.4"/>
      <point x="594.0999999999999" y="428.5"/>
      <point x="525.9" y="400.3" type="curve"/>
      <point x="638.9999999999999" y="356.2" type="line"/>
      <point x="722.1999999999999" y="390.59999999999997"/>
      <point x="789.6999999999998" y="444.3"/>
      <point x="789.6999999999998" y="536.2999999999998" type="curve" smooth="yes"/>
      <point x="789.6999999999998" y="637.6"/>
      <point x="697.4000000000001" y="710.0"/>
      <point x="478.7999999999999" y="710.0" type="curve" smooth="yes"/>
      <point x="283.1" y="710.0"/>
      <point x="130.79999999999998" y="653.1999999999999"/>
      <point x="130.79999999999998" y="496.3" type="curve" smooth="yes"/>
      <point x="130.79999999999998" y="236.20000000000002"/>
      <point x="606.9000000000001" y="345.3"/>
      <point x="606.9000000000001" y="196.8" type="curve" smooth="yes"/>
      <point x="606.9000000000001" y="125.89999999999999"/>
      <point x="524.0" y="108.20000000000002"/>
      <point x="412.0999999999999" y="108.20000000000002" type="curve" smooth="yes"/>
      <point x="275.79999999999995" y="108.20000000000002"/>
      <point x="216.49999999999997" y="145.1"/>
      <point x="216.49999999999997" y="202.0" type="curve" smooth="yes"/>
      <point x="216.49999999999997" y="263.40000000000003"/>
      <point x="267.5" y="296.1"/>
      <point x="347.1000000000001" y="314.6" type="curve"/>
      <point x="232.89999999999998" y="371.8" type="line"/>
      <point x="124.30000000000001" y="352.4"/>
      <point x="43.3" y="280.1"/>
      <point x="43.3" y="185.4" type="curve" smooth="yes"/>
      <point x="43.3" y="67.0"/>
      <point x="149.70000000000002" y="-10.0"/>
    </contour>
  </outline>
</glyph>
<glyph name="nine" format="2">
  <advance width="842.6999999999999"/>
  <unicode hex="0039"/>
  <outline>
    <contour>
      <point x="462.5999999999999" y="710.0" type="curve" smooth="yes"/>
      <point x="228.69999999999996" y="710.0"/>
      <point x="91.30000000000001" y="620.7"/>
      <point x="91.30000000000001" y="449.1" type="curve" smooth="yes"/>
      <point x="91.30000000000001" y="323.3"/>
      <point x="187.3" y="252.5"/>
      <point x="361.69999999999993" y="252.5" type="curve" smooth="yes"/>
      <point x="455.8" y="252.5"/>
      <point x="557.2000000000002" y="272.20000000000005"/>
      <point x="631.7" y="319.0" type="curve"/>
      <point x="639.7999999999998" y="432.5" type="line"/>
      <point x="586.2" y="399.09999999999997"/>
      <point x="502.7" y="377.49999999999994"/>
      <point x="425.59999999999997" y="377.49999999999994" type="curve" smooth="yes"/>
      <point x="311.0" y="377.49999999999994"/>
      <point x="270.69999999999993" y="408.29999999999995"/>
      <point x="270.69999999999993" y="463.90000000000003" type="curve" smooth="yes"/>
      <point x="270.69999999999993" y="533.0"/>
      <point x="332.7" y="574.7"/>
      <point x="441.3" y="574.7" type="curve" smooth="yes"/>
      <point x="560.1999999999999" y="574.7"/>
      <point x="627.3999999999999" y="530.0"/>
      <point x="627.3999999999999" y="425.29999999999995" type="curve" smooth="yes"/>
      <point x="627.3999999999999" y="325.99999999999994"/>
      <point x="593.4999999999999" y="242.8"/>
      <point x="526.8000000000001" y="191.3" type="curve" smooth="yes"/>
      <point x="474.4999999999999" y="150.89999999999998"/>
      <point x="403.99999999999994" y="128.29999999999998"/>
      <point x="316.2" y="128.29999999999998" type="curve" smooth="yes"/>
      <point x="237.9" y="128.29999999999998"/>
      <point x="173.49999999999997" y="140.2"/>
      <point x="107.49999999999997" y="160.0" type="curve"/>
      <point x="56.0" y="30.500000000000004" type="line"/>
      <point x="114.29999999999998" y="8.4"/>
      <point x="209.29999999999998" y="-10.0"/>
      <point x="319.0" y="-10.0" type="curve" smooth="yes"/>
      <point x="608.6999999999998" y="-10.0"/>
      <point x="802.1" y="158.29999999999998"/>
      <point x="802.1" y="428.5000000000001" type="curve" smooth="yes"/>
      <point x="802.1" y="614.6"/>
      <point x="682.5999999999999" y="710.0"/>
    </contour>
  </outline>
</glyph>
<glyph name="less" format="2">
  <advance width="582.2199999999999"/>
  <unicode hex="003C"/>
  <outline>
    <contour>
      <point x="495.51" y="55.47" type="line"/>
      <point x="517.6899999999999" y="196.05" type="line"/>
      <point x="205.75" y="308.04" type="line"/>
      <point x="554.46" y="419.84" type="line"/>
      <point x="576.64" y="561.5799999999999" type="line"/>
      <point x="67.96" y="384.83" type="line"/>
      <point x="44.57" y="237.49" type="line"/>
    </contour>
  </outline>
</glyph>
<glyph name="equal" format="2">
  <advance width="574.73"/>
  <unicode hex="003D"/>
  <outline>
    <contour>
      <point x="516.85" y="262.66" type="line"/>
      <point x="54.64999999999999" y="262.66" type="line"/>
      <point x="32.26" y="123.03000000000002" type="line"/>
      <point x="494.46000000000004" y="123.03000000000002" type="line"/>
    </contour>
    <contour>
      <point x="553.05" y="494.65000000000003" type="line"/>
      <point x="90.57" y="494.65000000000003" type="line"/>
      <point x="68.46000000000001" y="355.02" type="line"/>
      <point x="530.66" y="355.02" type="line"/>
    </contour>
  </outline>
</glyph>
<glyph name="greater" format="2">
  <advance width="582.2199999999999"/>
  <unicode hex="003E"/>
  <outline>
    <contour>
      <point x="525.3" y="237.22" type="line"/>
      <point x="547.71" y="377.21" type="line"/>
      <point x="97.87" y="556.5" type="line"/>
      <point x="74.71000000000001" y="420.04999999999995" type="line"/>
      <point x="387.43999999999994" y="308.13" type="line"/>
      <point x="39.00999999999999" y="196.35" type="line"/>
      <point x="16.25" y="55.29000000000001" type="line"/>
    </contour>
  </outline>
</glyph>
<glyph name="question" format="2">
  <advance width="569.4499999999999"/>
  <unicode hex="003F"/>
  <outline>
    <contour>
      <point x="183.95" y="260.17" type="line"/>
      <point x="331.78" y="260.17" type="line"/>
      <point x="342.59000000000003" y="317.64" type="line"/>
      <point x="486.42" y="365.68000000000006"/>
      <point x="591.9699999999999" y="431.03"/>
      <point x="591.9699999999999" y="572.2199999999999" type="curve" smooth="yes"/>
      <point x="591.9699999999999" y="696.2500000000001"/>
      <point x="481.74" y="750.0"/>
      <point x="355.55" y="750.0" type="curve" smooth="yes"/>
      <point x="263.01" y="750.0"/>
      <point x="151.09999999999997" y="723.3299999999999"/>
      <point x="74.75999999999999" y="677.0500000000001" type="curve"/>
      <point x="98.60000000000001" y="544.0200000000001" type="line"/>
      <point x="170.01" y="579.38"/>
      <point x="238.66000000000003" y="599.77"/>
      <point x="308.72999999999996" y="599.77" type="curve" smooth="yes"/>
      <point x="363.69000000000005" y="599.77"/>
      <point x="406.35" y="587.74"/>
      <point x="406.35" y="536.54" type="curve" smooth="yes"/>
      <point x="406.35" y="479.75999999999993"/>
      <point x="369.61" y="443.52"/>
      <point x="202.73999999999998" y="403.17" type="curve"/>
    </contour>
    <contour>
      <point x="132.08999999999997" y="55.029999999999994" type="curve" smooth="yes"/>
      <point x="132.3" y="13.040000000000001"/>
      <point x="156.17" y="-7.0"/>
      <point x="216.38" y="-7.0" type="curve" smooth="yes"/>
      <point x="288.82" y="-7.0"/>
      <point x="330.03999999999996" y="30.050000000000004"/>
      <point x="329.41" y="101.89" type="curve" smooth="yes"/>
      <point x="329.19999999999993" y="144.29999999999998"/>
      <point x="305.06" y="164.45999999999998"/>
      <point x="245.73" y="164.45999999999998" type="curve" smooth="yes"/>
      <point x="171.10999999999999" y="164.45999999999998"/>
      <point x="131.45999999999998" y="125.13999999999999"/>
    </contour>
  </outline>
</glyph>
<glyph name="at" format="2">
  <advance width="960.0999999999999"/>
  <unicode hex="0040"/>
  <outline>
    <contour>
      <point x="405.49999999999994" y="-121.5" type="curve" smooth="yes"/>
      <point x="478.7" y="-121.5"/>
      <point x="559.1" y="-105.8"/>
      <point x="630.7" y="-77.1" type="curve"/>
      <point x="618.5999999999999" y="-8.800000000000004" type="line"/>
      <point x="546.6999999999999" y="-33.2"/>
      <point x="473.7" y="-45.20000000000002"/>
      <point x="411.70000000000005" y="-45.20000000000002" type="curve" smooth="yes"/>
      <point x="234.60000000000002" y="-45.20000000000002"/>
      <point x="121.39999999999999" y="47.49999999999999"/>
      <point x="121.39999999999999" y="221.3" type="curve" smooth="yes"/>
      <point x="121.39999999999999" y="442.09999999999997"/>
      <point x="293.20000000000005" y="643.8"/>
      <point x="544.4999999999999" y="643.8" type="curve" smooth="yes"/>
      <point x="743.4" y="643.8"/>
      <point x="850.0999999999999" y="549.0999999999999"/>
      <point x="850.0999999999999" y="376.59999999999997" type="curve" smooth="yes"/>
      <point x="850.0999999999999" y="266.9"/>
      <point x="807.5" y="149.3"/>
      <point x="728.8000000000001" y="149.3" type="curve" smooth="yes"/>
      <point x="682.9000000000001" y="149.3"/>
      <point x="673.6" y="186.8"/>
      <point x="687.3000000000001" y="246.79999999999995" type="curve" smooth="yes"/>
      <point x="745.9000000000001" y="500.6" type="line"/>
      <point x="683.8999999999999" y="524.9"/>
      <point x="606.9" y="540.4999999999999"/>
      <point x="544.0999999999999" y="540.4999999999999" type="curve" smooth="yes"/>
      <point x="348.7" y="540.4999999999999"/>
      <point x="226.1" y="377.70000000000005"/>
      <point x="226.1" y="219.5" type="curve" smooth="yes"/>
      <point x="226.1" y="115.89999999999998"/>
      <point x="282.0" y="63.20000000000001"/>
      <point x="377.3999999999999" y="63.20000000000001" type="curve" smooth="yes"/>
      <point x="453.29999999999995" y="63.20000000000001"/>
      <point x="524.0999999999999" y="105.69999999999999"/>
      <point x="567.0000000000001" y="160.10000000000002" type="curve"/>
      <point x="578.3" y="86.9"/>
      <point x="629.5999999999998" y="56.399999999999984"/>
      <point x="699.5" y="56.399999999999984" type="curve" smooth="yes"/>
      <point x="851.4" y="56.399999999999984"/>
      <point x="933.1999999999999" y="212.50000000000006"/>
      <point x="933.1999999999999" y="384.0" type="curve" smooth="yes"/>
      <point x="933.1999999999999" y="593.3"/>
      <point x="786.8" y="719.2"/>
      <point x="561.3000000000001" y="719.2" type="curve" smooth="yes"/>
      <point x="245.49999999999997" y="719.2"/>
      <point x="36.900000000000006" y="490.09999999999997"/>
      <point x="36.900000000000006" y="210.70000000000005" type="curve" smooth="yes"/>
      <point x="36.900000000000006" y="4.9999999999999964"/>
      <point x="177.79999999999998" y="-121.5"/>
    </contour>
    <contour>
      <point x="445.4" y="180.8" type="curve" smooth="yes"/>
      <point x="396.70000000000005" y="180.8"/>
      <point x="371.79999999999995" y="206.10000000000002"/>
      <point x="371.79999999999995" y="251.60000000000005" type="curve" smooth="yes"/>
      <point x="371.79999999999995" y="330.3"/>
      <point x="439.59999999999997" y="435.29999999999995"/>
      <point x="522.5" y="435.29999999999995" type="curve" smooth="yes"/>
      <point x="553.6999999999999" y="435.29999999999995"/>
      <point x="573.4000000000001" y="431.70000000000005"/>
      <point x="599.2" y="422.29999999999995" type="curve"/>
      <point x="558.1999999999998" y="249.50000000000003" type="line" smooth="yes"/>
      <point x="538.0" y="210.60000000000002"/>
      <point x="490.29999999999995" y="180.8"/>
    </contour>
  </outline>
</glyph>
<glyph name="A" format="2">
  <advance width="809.0699999999999"/>
  <unicode hex="0041"/>
  <anchor x="361.012" y="0.0" name="bottom"/>
  <anchor x="758.79" y="0.0" name="ogonek"/>
  <anchor x="473.22999999999996" y="700.0" name="top"/>
  <outline>
    <contour>
      <point x="-37.720000000000006" y="0.0" type="line"/>
      <point x="169.22" y="0.0" type="line"/>
      <point x="240.10000000000002" y="135.87" type="line"/>
      <point x="524.24" y="135.87" type="line"/>
      <point x="553.6" y="0.0" type="line"/>
      <point x="758.79" y="0.0" type="line"/>
      <point x="577.2099999999999" y="707.9" type="line"/>
      <point x="366.9" y="707.9" type="line"/>
    </contour>
    <contour>
      <point x="304.88" y="268.42" type="line"/>
      <point x="450.49" y="558.0699999999999" type="line"/>
      <point x="504.2800000000001" y="268.42" type="line"/>
    </contour>
  </outline>
</glyph>
<glyph name="B" format="2">
  <advance width="808.4499999999999"/>
  <unicode hex="0042"/>
  <outline>
    <contour>
      <point x="29.989999999999995" y="4.009999999999999" type="line"/>
      <point x="184.78" y="-5.71"/>
      <point x="262.11" y="-10.0"/>
      <point x="378.63999999999993" y="-10.0" type="curve" smooth="yes"/>
      <point x="565.81" y="-10.0"/>
      <point x="776.0300000000001" y="33.150000000000006"/>
      <point x="776.0300000000001" y="237.82000000000002" type="curve" smooth="yes"/>
      <point x="776.0300000000001" y="313.41999999999996"/>
      <point x="726.42" y="368.55"/>
      <point x="644.6999999999999" y="382.87999999999994" type="curve"/>
      <point x="718.57" y="413.46"/>
      <point x="784.4800000000001" y="467.34999999999997"/>
      <point x="784.4800000000001" y="564.4200000000001" type="curve" smooth="yes"/>
      <point x="784.4800000000001" y="662.3100000000001"/>
      <point x="698.34" y="710.0"/>
      <point x="477.24999999999994" y="710.0" type="curve" smooth="yes"/>
      <point x="401.15" y="710.0"/>
      <point x="299.53" y="706.39"/>
      <point x="141.71" y="695.8100000000001" type="curve"/>
    </contour>
    <contour>
      <point x="283.05999999999995" y="413.84000000000003" type="line"/>
      <point x="306.40999999999997" y="564.7299999999999" type="line"/>
      <point x="365.95" y="568.36"/>
      <point x="395.92999999999995" y="571.25"/>
      <point x="449.39" y="571.25" type="curve" smooth="yes"/>
      <point x="557.13" y="571.25"/>
      <point x="594.5400000000001" y="554.4999999999999"/>
      <point x="594.5400000000001" y="507.13999999999993" type="curve" smooth="yes"/>
      <point x="594.5400000000001" y="441.48999999999995"/>
      <point x="526.88" y="413.84000000000003"/>
      <point x="482.34999999999997" y="413.84000000000003" type="curve" smooth="yes"/>
    </contour>
    <contour>
      <point x="262.41999999999996" y="293.05999999999995" type="line"/>
      <point x="461.69" y="293.05999999999995" type="line" smooth="yes"/>
      <point x="535.1399999999999" y="293.05999999999995"/>
      <point x="581.4000000000001" y="276.65"/>
      <point x="581.4000000000001" y="229.36" type="curve" smooth="yes"/>
      <point x="581.4000000000001" y="146.07"/>
      <point x="502.8400000000001" y="125.05999999999999"/>
      <point x="380.13" y="125.05999999999999" type="curve" smooth="yes"/>
      <point x="336.05" y="125.05999999999999"/>
      <point x="286.6" y="127.80999999999999"/>
      <point x="236.71999999999997" y="130.85999999999999" type="curve"/>
    </contour>
  </outline>
</glyph>
<glyph name="C" format="2">
  <advance width="788.3000000000001"/>
  <unicode hex="0043"/>
  <anchor x="417.29999999999995" y="0.0" name="bottom"/>
  <anchor x="515.9999999999999" y="700.0" name="top"/>
  <outline>
    <contour>
      <point x="454.3999999999999" y="-10.0" type="curve" smooth="yes"/>
      <point x="548.0999999999999" y="-10.0"/>
      <point x="630.9" y="0.899999999999999"/>
      <point x="720.0" y="23.1" type="curve"/>
      <point x="705.9" y="162.9" type="line"/>
      <point x="633.8" y="148.1"/>
      <point x="564.4000000000001" y="135.79999999999995"/>
      <point x="483.2999999999999" y="135.79999999999995" type="curve" smooth="yes"/>
      <point x="329.0" y="135.79999999999995"/>
      <point x="243.59999999999994" y="177.7"/>
      <point x="243.59999999999994" y="296.20000000000005" type="curve" smooth="yes"/>
      <point x="243.59999999999994" y="459.2"/>
      <point x="339.9" y="564.2"/>
      <point x="508.99999999999994" y="564.2" type="curve" smooth="yes"/>
      <point x="592.3000000000001" y="564.2"/>
      <point x="681.0" y="547.7000000000002"/>
      <point x="748.8000000000001" y="528.8" type="curve"/>
      <point x="791.1999999999999" y="665.4" type="line"/>
      <point x="693.5" y="699.3"/>
      <point x="597.0999999999999" y="710.0"/>
      <point x="495.7" y="710.0" type="curve" smooth="yes"/>
      <point x="217.4" y="710.0"/>
      <point x="49.70000000000002" y="545.7"/>
      <point x="49.70000000000002" y="275.9" type="curve" smooth="yes"/>
      <point x="49.70000000000002" y="77.1"/>
      <point x="187.70000000000005" y="-10.0"/>
    </contour>
  </outline>
</glyph>
<glyph name="D" format="2">
  <advance width="869.4999999999999"/>
  <unicode hex="0044"/>
  <anchor x="378.20000000000005" y="0.0" name="bottom"/>
  <anchor x="440.6758" y="350.0" name="center"/>
  <anchor x="448.2" y="700.0" name="top"/>
  <outline>
    <contour>
      <point x="367.8" y="-10.0" type="curve" smooth="yes"/>
      <point x="664.6" y="-10.0"/>
      <point x="840.8" y="133.4"/>
      <point x="840.8" y="403.6" type="curve" smooth="yes"/>
      <point x="840.8" y="615.6"/>
      <point x="698.4" y="710.0"/>
      <point x="438.09999999999997" y="710.0" type="curve" smooth="yes"/>
      <point x="347.5" y="710.0"/>
      <point x="253.4" y="707.0000000000001"/>
      <point x="141.7" y="700.1000000000001" type="curve"/>
      <point x="28.800000000000008" y="0.5999999999999989" type="line"/>
      <point x="133.49999999999997" y="-6.4"/>
      <point x="224.1" y="-10.0"/>
    </contour>
    <contour>
      <point x="384.49999999999994" y="122.49999999999999" type="curve" smooth="yes"/>
      <point x="321.59999999999997" y="122.49999999999999"/>
      <point x="288.49999999999994" y="124.69999999999999"/>
      <point x="236.09999999999997" y="127.39999999999998" type="curve"/>
      <point x="307.3" y="571.4" type="line"/>
      <point x="339.3999999999999" y="573.9999999999999"/>
      <point x="387.5" y="575.9000000000001"/>
      <point x="444.4" y="575.9000000000001" type="curve" smooth="yes"/>
      <point x="562.5" y="575.9000000000001"/>
      <point x="649.8000000000001" y="522.5000000000001"/>
      <point x="649.8000000000001" y="396.29999999999995" type="curve" smooth="yes"/>
      <point x="649.8000000000001" y="218.3"/>
      <point x="546.3000000000001" y="122.49999999999999"/>
    </contour>
  </outline>
</glyph>
<glyph name="E" format="2">
  <advance width="754.76"/>
  <unicode hex="0045"/>
  <anchor x="352.36" y="0.0" name="bottom"/>
  <anchor x="674.9799999999999" y="0.0" name="ogonek"/>
  <anchor x="451.1599999999999" y="700.0" name="top"/>
  <anchor x="93.1252" y="700.0" name="topleft"/>
  <outline>
    <contour>
      <point x="28.72" y="0.0" type="line"/>
      <point x="674.9799999999999" y="0.0" type="line"/>
      <point x="698.9" y="144.76" type="line"/>
      <point x="235.29999999999998" y="144.76" type="line"/>
      <point x="257.68" y="288.66" type="line"/>
      <point x="672.4999999999999" y="288.66" type="line"/>
      <point x="695.3" y="424.02" type="line"/>
      <point x="279.76" y="424.02" type="line"/>
      <point x="300.94000000000005" y="554.64" type="line"/>
      <point x="742.42" y="554.64" type="line"/>
      <point x="766.58" y="700.0" type="line"/>
      <point x="141.32" y="700.0" type="line"/>
    </contour>
  </outline>
</glyph>
<glyph name="F" format="2">
  <advance width="717.7700000000001"/>
  <unicode hex="0046"/>
  <outline>
    <contour>
      <point x="28.749999999999996" y="0.0" type="line"/>
      <point x="215.17" y="0.0" type="line"/>
      <point x="251.77999999999997" y="225.26000000000005" type="line"/>
      <point x="630.1199999999999" y="225.26000000000005" type="line"/>
      <point x="653.63" y="372.5" type="line"/>
      <point x="275.5" y="372.5" type="line"/>
      <point x="303.21999999999997" y="549.9600000000002" type="line"/>
      <point x="736.75" y="549.9600000000002" type="line"/>
      <point x="761.87" y="700.0" type="line"/>
      <point x="141.62" y="700.0" type="line"/>
    </contour>
  </outline>
</glyph>
<glyph name="G" format="2">
  <advance width="820.8"/>
  <unicode hex="0047"/>
  <anchor x="410.54999999999995" y="0.0" name="bottom"/>
  <anchor x="518.71" y="700.0" name="top"/>
  <outline>
    <contour>
      <point x="416.26" y="-10.0" type="curve" smooth="yes"/>
      <point x="558.12" y="-10.0"/>
      <point x="661.24" y="15.609999999999998"/>
      <point x="731.0600000000001" y="45.37" type="curve"/>
      <point x="787.7199999999999" y="392.27" type="line"/>
      <point x="459.89" y="392.27" type="line"/>
      <point x="439.66999999999996" y="266.8" type="line"/>
      <point x="603.39" y="266.8" type="line"/>
      <point x="584.0699999999999" y="145.7" type="line"/>
      <point x="553.2" y="133.06"/>
      <point x="506.16999999999996" y="123.72999999999999"/>
      <point x="447.25999999999993" y="123.72999999999999" type="curve" smooth="yes"/>
      <point x="316.2" y="123.72999999999999"/>
      <point x="236.67999999999998" y="172.12999999999997"/>
      <point x="236.67999999999998" y="286.14" type="curve" smooth="yes"/>
      <point x="236.67999999999998" y="455.28999999999996"/>
      <point x="340.96999999999997" y="566.05"/>
      <point x="521.62" y="566.05" type="curve" smooth="yes"/>
      <point x="609.65" y="566.05"/>
      <point x="677.5899999999999" y="554.1600000000001"/>
      <point x="750.79" y="536.4" type="curve"/>
      <point x="805.81" y="672.84" type="line"/>
      <point x="714.41" y="699.4"/>
      <point x="622.01" y="710.0"/>
      <point x="514.33" y="710.0" type="curve" smooth="yes"/>
      <point x="208.39" y="710.0"/>
      <point x="48.07" y="529.88"/>
      <point x="48.07" y="271.35" type="curve" smooth="yes"/>
      <point x="48.07" y="86.10000000000001"/>
      <point x="188.62" y="-10.0"/>
    </contour>
  </outline>
</glyph>
<glyph name="H" format="2">
  <advance width="873.4799999999999"/>
  <unicode hex="0048"/>
  <anchor x="393.29404" y="0.0" name="bottom"/>
  <anchor x="448.77988999999997" y="350.0" name="center"/>
  <anchor x="504.17483" y="700.0" name="top"/>
  <anchor x="87.10483" y="700.0" name="topleft"/>
  <outline>
    <contour>
      <point x="28.539999999999996" y="0.0" type="line"/>
      <point x="215.34999999999997" y="0.0" type="line"/>
      <point x="253.79" y="243.67999999999998" type="line"/>
      <point x="612.18" y="243.67999999999998" type="line"/>
      <point x="572.97" y="0.0" type="line"/>
      <point x="755.0699999999999" y="0.0" type="line"/>
      <point x="868.03" y="700.0" type="line"/>
      <point x="686.21" y="700.0" type="line"/>
      <point x="636.4599999999999" y="395.12" type="line"/>
      <point x="277.98" y="395.12" type="line"/>
      <point x="328.21999999999997" y="700.0" type="line"/>
      <point x="141.41" y="700.0" type="line"/>
    </contour>
  </outline>
</glyph>
<glyph name="I" format="2">
  <advance width="333.6699999999999"/>
  <unicode hex="0049"/>
  <anchor x="123.12647999999999" y="0.0" name="bottom"/>
  <anchor x="215.89587999999998" y="2.1000000000000005" name="ogonek"/>
  <anchor x="234.07146" y="700.0" name="top"/>
  <anchor x="93.18573" y="700.0" name="topleft"/>
  <outline>
    <contour>
      <point x="28.539999999999996" y="0.0" type="line"/>
      <point x="215.26" y="0.0" type="line"/>
      <point x="328.21999999999997" y="700.0" type="line"/>
      <point x="141.41" y="700.0" type="line"/>
    </contour>
  </outline>
</glyph>
<glyph name="J" format="2">
  <advance width="654.62"/>
  <unicode hex="004A"/>
  <anchor x="276.90324" y="0.0" name="bottom"/>
  <anchor x="398.08" y="700.0" name="top"/>
  <outline>
    <contour>
      <point x="-21.57" y="32.0" type="line"/>
      <point x="64.39999999999999" y="5.999999999999998"/>
      <point x="157.17" y="-10.0"/>
      <point x="258.10999999999996" y="-10.0" type="curve" smooth="yes"/>
      <point x="452.63" y="-10.0"/>
      <point x="555.03" y="74.78"/>
      <point x="585.8199999999999" y="258.36" type="curve" smooth="yes"/>
      <point x="657.98" y="700.0" type="line"/>
      <point x="141.48" y="700.0" type="line"/>
      <point x="116.43" y="548.63" type="line"/>
      <point x="446.21" y="548.63" type="line"/>
      <point x="405.03" y="289.59" type="line" smooth="yes"/>
      <point x="387.93999999999994" y="180.99"/>
      <point x="329.95" y="142.42"/>
      <point x="237.64" y="142.42" type="curve" smooth="yes"/>
      <point x="170.64999999999998" y="142.42"/>
      <point x="105.88" y="157.88"/>
      <point x="27.809999999999995" y="178.21" type="curve"/>
    </contour>
  </outline>
</glyph>
<glyph name="K" format="2">
  <advance width="811.18"/>
  <unicode hex="004B"/>
  <anchor x="379.2999999999999" y="0.0" name="bottom"/>
  <anchor x="474.97999999999996" y="700.0" name="top"/>
  <outline>
    <contour>
      <point x="28.360000000000003" y="0.0" type="line"/>
      <point x="215.46" y="0.0" type="line"/>
      <point x="327.91999999999996" y="700.0" type="line"/>
      <point x="142.60000000000002" y="700.0" type="line"/>
    </contour>
    <contour>
      <point x="702.3799999999999" y="-9.8" type="curve" smooth="yes"/>
      <point x="713.16" y="-9.8"/>
      <point x="741.0799999999999" y="-7.139999999999999"/>
      <point x="749.56" y="-4.359999999999999" type="curve"/>
      <point x="771.8" y="159.31999999999996" type="line"/>
      <point x="763.96" y="159.34"/>
      <point x="756.94" y="158.96"/>
      <point x="750.0000000000001" y="158.96" type="curve" smooth="yes"/>
      <point x="701.64" y="158.96"/>
      <point x="659.3599999999999" y="175.77999999999997"/>
      <point x="590.3000000000001" y="226.48" type="curve" smooth="yes"/>
      <point x="259.56" y="469.21999999999997" type="line"/>
      <point x="233.16" y="291.52" type="line"/>
      <point x="499.64000000000004" y="72.94" type="line" smooth="yes"/>
      <point x="573.22" y="16.280000000000005"/>
      <point x="639.8399999999999" y="-9.8"/>
    </contour>
    <contour>
      <point x="426.1399999999999" y="296.48" type="line"/>
      <point x="577.1600000000001" y="361.94"/>
      <point x="743.7199999999999" y="482.31999999999994"/>
      <point x="834.4200000000001" y="618.92" type="curve"/>
      <point x="709.4799999999999" y="712.5200000000001" type="line"/>
      <point x="593.3600000000001" y="565.64"/>
      <point x="439.17999999999995" y="450.61999999999995"/>
      <point x="313.68" y="386.68" type="curve"/>
    </contour>
  </outline>
</glyph>
<glyph name="L" format="2">
  <advance width="697.1599999999999"/>
  <unicode hex="004C"/>
  <anchor x="331.75999999999993" y="0.0" name="bottom"/>
  <anchor x="359.53989" y="350.0" name="center"/>
  <anchor x="234.62" y="700.0" name="top"/>
  <anchor x="491.19000000000005" y="700.0" name="topright"/>
  <outline>
    <contour>
      <point x="28.450000000000003" y="0.0" type="line"/>
      <point x="629.3100000000001" y="0.0" type="line"/>
      <point x="655.06" y="149.13" type="line"/>
      <point x="239.94" y="149.13" type="line"/>
      <point x="328.13" y="700.0" type="line"/>
      <point x="141.41" y="700.0" type="line"/>
    </contour>
  </outline>
</glyph>
<glyph name="M" format="2">
  <advance width="968.04"/>
  <unicode hex="004D"/>
  <outline>
    <contour>
      <point x="28.24" y="0.0" type="line"/>
      <point x="202.80999999999997" y="0.0" type="line"/>
      <point x="273.79999999999995" y="460.06" type="line"/>
      <point x="422.41" y="157.66000000000003" type="line"/>
      <point x="504.3999999999999" y="157.66000000000003" type="line"/>
      <point x="753.3299999999999" y="465.23" type="line"/>
      <point x="677.3299999999999" y="0.0" type="line"/>
      <point x="849.6299999999999" y="0.0" type="line"/>
      <point x="962.5899999999999" y="700.0" type="line"/>
      <point x="768.12" y="700.0" type="line"/>
      <point x="490.4" y="347.73" type="line"/>
      <point x="323.31" y="700.0" type="line"/>
      <point x="141.41" y="700.0" type="line"/>
    </contour>
  </outline>
</glyph>
<glyph name="N" format="2">
  <advance width="840.55"/>
  <unicode hex="004E"/>
  <anchor x="376.6554" y="0.0" name="bottom"/>
  <anchor x="488.50955" y="700.0" name="top"/>
  <outline>
    <contour>
      <point x="28.6" y="0.0" type="line"/>
      <point x="196.65" y="0.0" type="line"/>
      <point x="267.1" y="437.20000000000005" type="line"/>
      <point x="555.65" y="-2.1000000000000005" type="line"/>
      <point x="721.3500000000001" y="-2.1000000000000005" type="line"/>
      <point x="835.1" y="700.0" type="line"/>
      <point x="666.85" y="700.0" type="line"/>
      <point x="593.6" y="247.75000000000003" type="line"/>
      <point x="308.35" y="702.1" type="line"/>
      <point x="142.35000000000002" y="702.1" type="line"/>
    </contour>
  </outline>
</glyph>
<glyph name="O" format="2">
  <advance width="883.8999999999997"/>
  <unicode hex="004F"/>
  <note>
8
</note>
  <anchor x="398.49999999999994" y="0.0" name="bottom"/>
  <anchor x="454.29999999999995" y="350.0" name="center"/>
  <anchor x="504.09999999999997" y="1.1102230246251565e-16" name="ogonek"/>
  <anchor x="501.2" y="700.0" name="top"/>
  <anchor x="87.60000000000001" y="700.0" name="topleft"/>
  <anchor x="729.6" y="683.8" name="topright"/>
  <outline>
    <contour>
      <point x="424.4" y="-8.299999999999999" type="curve" smooth="yes"/>
      <point x="700.6999999999999" y="-8.299999999999999"/>
      <point x="853.1999999999999" y="150.5"/>
      <point x="855.4" y="402.9000000000001" type="curve" smooth="yes"/>
      <point x="856.9999999999999" y="601.6"/>
      <point x="734.5999999999999" y="708.6"/>
      <point x="483.0" y="708.6" type="curve" smooth="yes"/>
      <point x="206.7" y="708.6"/>
      <point x="54.199999999999996" y="549.8"/>
      <point x="52.0" y="297.4" type="curve" smooth="yes"/>
      <point x="50.4" y="98.7"/>
      <point x="172.79999999999998" y="-8.299999999999999"/>
    </contour>
    <contour>
      <point x="435.69999999999993" y="129.10000000000002" type="curve" smooth="yes"/>
      <point x="305.1" y="129.10000000000002"/>
      <point x="241.60000000000002" y="179.99999999999997"/>
      <point x="241.60000000000002" y="299.90000000000003" type="curve" smooth="yes"/>
      <point x="241.60000000000002" y="449.8"/>
      <point x="321.49999999999994" y="571.2"/>
      <point x="472.0" y="571.2" type="curve" smooth="yes"/>
      <point x="602.3000000000001" y="571.2"/>
      <point x="665.8" y="520.1"/>
      <point x="665.8" y="400.2" type="curve" smooth="yes"/>
      <point x="665.8" y="250.29999999999998"/>
      <point x="585.9000000000001" y="129.10000000000002"/>
    </contour>
  </outline>
</glyph>
<glyph name="P" format="2">
  <advance width="832.9999999999999"/>
  <unicode hex="0050"/>
  <outline>
    <contour>
      <point x="28.600000000000005" y="0.0" type="line"/>
      <point x="214.54999999999998" y="0.0" type="line"/>
      <point x="246.74999999999997" y="193.85" type="line"/>
      <point x="326.8" y="190.15000000000003"/>
      <point x="359.74999999999994" y="189.35000000000002"/>
      <point x="412.40000000000003" y="189.35000000000002" type="curve" smooth="yes"/>
      <point x="716.9999999999999" y="189.35000000000002"/>
      <point x="835.1" y="280.3"/>
      <point x="835.55" y="488.75" type="curve" smooth="yes"/>
      <point x="835.7" y="649.0500000000001"/>
      <point x="730.8999999999999" y="710.0"/>
      <point x="466.54999999999995" y="710.0" type="curve" smooth="yes"/>
      <point x="415.79999999999995" y="710.0"/>
      <point x="318.19999999999993" y="707.3"/>
      <point x="142.05" y="700.6500000000001" type="curve"/>
    </contour>
    <contour>
      <point x="306.79999999999995" y="566.45" type="line"/>
      <point x="393.95" y="570.1999999999999"/>
      <point x="419.05" y="571.3"/>
      <point x="471.5999999999999" y="571.3" type="curve" smooth="yes"/>
      <point x="600.6" y="571.3"/>
      <point x="643.6499999999999" y="542.2"/>
      <point x="643.6499999999999" y="470.6" type="curve" smooth="yes"/>
      <point x="643.6499999999999" y="380.95"/>
      <point x="590.9000000000001" y="329.8"/>
      <point x="404.84999999999997" y="329.8" type="curve" smooth="yes"/>
      <point x="363.15" y="329.8"/>
      <point x="333.34999999999997" y="331.25"/>
      <point x="269.7" y="334.09999999999997" type="curve"/>
    </contour>
  </outline>
</glyph>
<glyph name="Q" format="2">
  <advance width="883.2299999999999"/>
  <unicode hex="0051"/>
  <note>
14
</note>
  <outline>
    <contour>
      <point x="630.78" y="-200.08999999999997" type="curve" smooth="yes"/>
      <point x="671.01" y="-200.08999999999997"/>
      <point x="709.5" y="-192.79"/>
      <point x="749.16" y="-178.6" type="curve"/>
      <point x="751.32" y="-40.99000000000001" type="line"/>
      <point x="731.1999999999999" y="-50.31"/>
      <point x="709.55" y="-54.41"/>
      <point x="684.9300000000001" y="-54.41" type="curve" smooth="yes"/>
      <point x="631.17" y="-54.41"/>
      <point x="579.7599999999999" y="-24.53000000000001"/>
      <point x="560.3199999999999" y="27.439999999999998" type="curve"/>
      <point x="392.37999999999994" y="6.89" type="line"/>
      <point x="426.38" y="-138.01999999999998"/>
      <point x="519.1299999999999" y="-200.08999999999997"/>
    </contour>
    <component base="O"/>
  </outline>
</glyph>
<glyph name="R" format="2">
  <advance width="859.7999999999998"/>
  <unicode hex="0052"/>
  <anchor x="409.69999999999993" y="0.0" name="bottom"/>
  <anchor x="459.99999999999994" y="700.0" name="top"/>
  <outline>
    <contour>
      <point x="28.6" y="0.0" type="line"/>
      <point x="215.7" y="0.0" type="line"/>
      <point x="253.5" y="233.30000000000004" type="line"/>
      <point x="325.7999999999999" y="231.90000000000003"/>
      <point x="394.4" y="231.39999999999998"/>
      <point x="472.7" y="230.7" type="curve"/>
      <point x="527.0" y="253.8" type="line"/>
      <point x="711.3000000000001" y="254.4"/>
      <point x="827.0999999999998" y="348.6"/>
      <point x="827.0999999999998" y="506.0" type="curve" smooth="yes"/>
      <point x="827.0999999999998" y="637.7"/>
      <point x="733.5999999999999" y="710.0"/>
      <point x="471.79999999999995" y="710.0" type="curve" smooth="yes"/>
      <point x="402.09999999999997" y="710.0"/>
      <point x="295.6" y="707.0999999999999"/>
      <point x="141.70000000000002" y="700.4" type="curve"/>
    </contour>
    <contour>
      <point x="752.2" y="-10.0" type="curve" smooth="yes"/>
      <point x="761.6" y="-10.0"/>
      <point x="787.6999999999999" y="-8.299999999999999"/>
      <point x="795.8999999999999" y="-5.9" type="curve"/>
      <point x="817.9" y="151.5" type="line"/>
      <point x="812.1999999999998" y="150.49999999999997"/>
      <point x="801.8" y="150.49999999999997"/>
      <point x="795.8" y="150.49999999999997" type="curve" smooth="yes"/>
      <point x="734.9000000000001" y="150.49999999999997"/>
      <point x="645.2999999999998" y="206.9"/>
      <point x="573.1000000000001" y="295.2" type="curve"/>
      <point x="378.1" y="252.60000000000002" type="line"/>
      <point x="512.5999999999999" y="88.29999999999998"/>
      <point x="622.3" y="-10.0"/>
    </contour>
    <contour>
      <point x="454.7999999999999" y="358.09999999999997" type="curve" smooth="yes"/>
      <point x="380.50000000000006" y="358.09999999999997"/>
      <point x="326.7999999999999" y="359.8"/>
      <point x="274.29999999999995" y="363.6" type="curve"/>
      <point x="307.1" y="572.9" type="line"/>
      <point x="383.9" y="576.4999999999999"/>
      <point x="401.79999999999995" y="577.3"/>
      <point x="464.9" y="577.3" type="curve" smooth="yes"/>
      <point x="595.3999999999997" y="577.3"/>
      <point x="631.1" y="546.2000000000002"/>
      <point x="631.1" y="486.0" type="curve" smooth="yes"/>
      <point x="631.1" y="398.5"/>
      <point x="564.9" y="358.09999999999997"/>
    </contour>
  </outline>
</glyph>
<glyph name="S" format="2">
  <advance width="766.8999999999999"/>
  <unicode hex="0053"/>
  <anchor x="365.0" y="0.0" name="bottom"/>
  <anchor x="451.90000000000003" y="700.0" name="top"/>
  <outline>
    <contour>
      <point x="752.0" y="667.7" type="line"/>
      <point x="657.4" y="695.6999999999999"/>
      <point x="568.3000000000001" y="710.0"/>
      <point x="467.20000000000005" y="710.0" type="curve" smooth="yes"/>
      <point x="195.7" y="710.0"/>
      <point x="72.89999999999999" y="625.5"/>
      <point x="72.89999999999999" y="481.0" type="curve" smooth="yes"/>
      <point x="72.89999999999999" y="228.9"/>
      <point x="527.1" y="310.5"/>
      <point x="527.1" y="197.29999999999998" type="curve" smooth="yes"/>
      <point x="527.1" y="155.09999999999997"/>
      <point x="480.09999999999997" y="125.5"/>
      <point x="374.1000000000001" y="125.5" type="curve" smooth="yes"/>
      <point x="257.3" y="125.5"/>
      <point x="141.19999999999996" y="147.5"/>
      <point x="36.1" y="182.4" type="curve"/>
      <point x="-17.0" y="46.599999999999994" type="line"/>
      <point x="84.29999999999998" y="12.599999999999998"/>
      <point x="208.2" y="-10.0"/>
      <point x="341.20000000000005" y="-10.0" type="curve" smooth="yes"/>
      <point x="618.0" y="-10.0"/>
      <point x="730.6" y="79.0"/>
      <point x="730.6" y="223.1" type="curve" smooth="yes"/>
      <point x="730.9" y="463.2"/>
      <point x="275.3" y="392.5"/>
      <point x="275.3" y="500.49999999999994" type="curve" smooth="yes"/>
      <point x="275.3" y="547.5"/>
      <point x="325.3" y="572.5000000000001"/>
      <point x="433.99999999999994" y="572.5000000000001" type="curve" smooth="yes"/>
      <point x="534.8000000000001" y="572.5000000000001"/>
      <point x="623.7999999999997" y="559.7000000000002"/>
      <point x="702.2" y="533.5" type="curve"/>
    </contour>
  </outline>
</glyph>
<glyph name="T" format="2">
  <advance width="750.08"/>
  <unicode hex="0054"/>
  <anchor x="331.13324" y="0.0" name="bottom"/>
  <anchor x="386.98918" y="350.0" name="center"/>
  <anchor x="442.17145999999997" y="700.0" name="top"/>
  <outline>
    <contour>
      <point x="776.4599999999999" y="559.48" type="line"/>
      <point x="801.72" y="700.0" type="line"/>
      <point x="85.99999999999999" y="700.0" type="line"/>
      <point x="60.25000000000001" y="559.48" type="line"/>
      <point x="325.65" y="559.48" type="line"/>
      <point x="237.24999999999997" y="0.0" type="line"/>
      <point x="423.96999999999997" y="0.0" type="line"/>
      <point x="511.88" y="559.48" type="line"/>
    </contour>
  </outline>
</glyph>
<glyph name="U" format="2">
  <advance width="854.8599999999999"/>
  <unicode hex="0055"/>
  <anchor x="384.09079999999994" y="0.0" name="bottom"/>
  <anchor x="485.58" y="0.0" name="ogonek"/>
  <anchor x="493.97909999999996" y="700.0" name="top"/>
  <anchor x="850.9399999999999" y="700.0" name="topright"/>
  <outline>
    <contour>
      <point x="379.89" y="-10.0" type="curve" smooth="yes"/>
      <point x="626.17" y="-10.0"/>
      <point x="757.1899999999999" y="75.89999999999999"/>
      <point x="786.84" y="257.37999999999994" type="curve" smooth="yes"/>
      <point x="858.22" y="700.0" type="line"/>
      <point x="674.8399999999999" y="700.0" type="line"/>
      <point x="604.65" y="265.08" type="line" smooth="yes"/>
      <point x="591.09" y="178.0"/>
      <point x="523.93" y="134.16"/>
      <point x="405.25999999999993" y="134.16" type="curve" smooth="yes"/>
      <point x="289.03" y="134.16"/>
      <point x="230.89999999999998" y="179.89999999999998"/>
      <point x="244.76999999999998" y="263.91" type="curve" smooth="yes"/>
      <point x="315.82" y="700.0" type="line"/>
      <point x="132.53" y="700.0" type="line"/>
      <point x="61.17999999999999" y="257.22999999999996" type="line" smooth="yes"/>
      <point x="57.150000000000006" y="229.43"/>
      <point x="56.03" y="214.48"/>
      <point x="56.03" y="199.48" type="curve" smooth="yes"/>
      <point x="56.03" y="59.41999999999999"/>
      <point x="163.76999999999998" y="-10.0"/>
    </contour>
  </outline>
</glyph>
<glyph name="V" format="2">
  <advance width="760.31"/>
  <unicode hex="0056"/>
  <outline>
    <contour>
      <point x="431.30999999999995" y="0.0" type="line"/>
      <point x="727.8" y="438.41"/>
      <point x="795.2" y="565.4999999999999"/>
      <point x="813.05" y="675.95" type="curve" smooth="yes"/>
      <point x="814.1" y="684.46"/>
      <point x="814.4999999999999" y="692.21"/>
      <point x="814.6600000000001" y="700.0" type="curve"/>
      <point x="610.86" y="700.0" type="line"/>
      <point x="611.4" y="694.4"/>
      <point x="612.4599999999999" y="688.61"/>
      <point x="612.4599999999999" y="679.25" type="curve" smooth="yes"/>
      <point x="612.4599999999999" y="567.0500000000001"/>
      <point x="521.2299999999999" y="416.98"/>
      <point x="362.3699999999999" y="160.89999999999998" type="curve"/>
      <point x="267.09999999999997" y="702.46" type="line"/>
      <point x="66.75" y="700.4499999999999" type="line"/>
      <point x="232.16000000000003" y="0.0" type="line"/>
    </contour>
  </outline>
</glyph>
<glyph name="W" format="2">
  <advance width="1053.8999999999999"/>
  <unicode hex="0057"/>
  <anchor x="475.29999999999995" y="0.0" name="bottom"/>
  <anchor x="594.4999999999999" y="700.0" name="top"/>
  <outline>
    <contour>
      <point x="813.6999999999999" y="0.0" type="line"/>
      <point x="1026.8" y="395.7"/>
      <point x="1099.8999999999999" y="590.0000000000001"/>
      <point x="1102.1" y="682.7" type="curve" smooth="yes"/>
      <point x="1102.1" y="688.6"/>
      <point x="1101.6000000000001" y="696.2"/>
      <point x="1101.2" y="700.0" type="curve"/>
      <point x="930.5000000000002" y="700.0" type="line"/>
      <point x="930.6000000000001" y="693.6"/>
      <point x="930.3999999999999" y="687.3"/>
      <point x="929.8999999999996" y="679.3" type="curve" smooth="yes"/>
      <point x="920.9" y="555.4"/>
      <point x="874.2999999999997" y="443.09999999999997"/>
      <point x="729.8" y="156.2" type="curve"/>
      <point x="688.6999999999999" y="656.8000000000001" type="line"/>
      <point x="491.1" y="656.8000000000001" type="line"/>
      <point x="432.9" y="492.7"/>
      <point x="364.9" y="318.79999999999995"/>
      <point x="289.99999999999994" y="158.09999999999997" type="curve"/>
      <point x="249.8" y="700.0" type="line"/>
      <point x="68.99999999999999" y="700.0" type="line"/>
      <point x="152.7" y="0.0" type="line"/>
      <point x="343.29999999999995" y="0.0" type="line"/>
      <point x="422.29999999999995" y="154.00000000000003"/>
      <point x="498.99999999999994" y="307.09999999999997"/>
      <point x="560.3999999999999" y="447.7000000000001" type="curve"/>
      <point x="610.3000000000001" y="0.0" type="line"/>
    </contour>
  </outline>
</glyph>
<glyph name="X" format="2">
  <advance width="771.3000000000001"/>
  <unicode hex="0058"/>
  <outline>
    <contour>
      <point x="519.6" y="-2.3" type="line"/>
      <point x="726.0999999999999" y="1.6" type="line"/>
      <point x="516.4" y="351.40000000000003" type="line"/>
      <point x="670.8999999999999" y="505.4"/>
      <point x="773.3" y="593.3999999999999"/>
      <point x="804.8999999999999" y="700.6999999999999" type="curve"/>
      <point x="601.8" y="703.1" type="line"/>
      <point x="583.1999999999999" y="613.5"/>
      <point x="517.1999999999999" y="537.9"/>
      <point x="418.1" y="448.29999999999995" type="curve"/>
      <point x="290.4" y="702.6" type="line"/>
      <point x="87.99999999999999" y="698.7" type="line"/>
      <point x="276.9" y="369.70000000000005" type="line"/>
      <point x="127.90000000000002" y="237.0"/>
      <point x="7.999999999999996" y="113.20000000000003"/>
      <point x="-10.899999999999999" y="0.0" type="curve"/>
      <point x="191.4" y="0.0" type="line"/>
      <point x="206.2" y="95.60000000000002"/>
      <point x="275.49999999999994" y="174.29999999999998"/>
      <point x="376.8" y="270.79999999999995" type="curve"/>
    </contour>
  </outline>
</glyph>
<glyph name="Y" format="2">
  <advance width="736.1199999999999"/>
  <unicode hex="0059"/>
  <anchor x="321.52" y="0.0" name="bottom"/>
  <anchor x="439.98999999999995" y="700.0" name="top"/>
  <anchor x="80.99" y="700.0" name="topleft"/>
  <outline>
    <contour>
      <point x="239.77999999999997" y="0.0" type="line"/>
      <point x="423.69999999999993" y="0.0" type="line"/>
      <point x="464.97" y="245.77" type="line"/>
      <point x="688.3499999999999" y="474.41999999999996"/>
      <point x="753.2099999999999" y="563.41"/>
      <point x="788.3100000000001" y="667.33" type="curve" smooth="yes"/>
      <point x="791.8500000000001" y="677.82"/>
      <point x="795.81" y="689.3"/>
      <point x="799.2599999999999" y="700.79" type="curve"/>
      <point x="595.6199999999999" y="702.75" type="line"/>
      <point x="593.07" y="691.24"/>
      <point x="590.23" y="681.02"/>
      <point x="587.38" y="670.29" type="curve" smooth="yes"/>
      <point x="558.42" y="570.98"/>
      <point x="519.0900000000001" y="507.79999999999995"/>
      <point x="390.96" y="370.97999999999996" type="curve"/>
      <point x="269.11" y="702.26" type="line"/>
      <point x="63.2" y="699.47" type="line"/>
      <point x="279.77" y="245.77" type="line"/>
    </contour>
  </outline>
</glyph>
<glyph name="Z" format="2">
  <advance width="753.1"/>
  <unicode hex="005A"/>
  <anchor x="334.69999999999993" y="0.0" name="bottom"/>
  <anchor x="387.40000000000003" y="350.0" name="center"/>
  <anchor x="437.80000000000007" y="700.0" name="top"/>
  <outline>
    <contour>
      <point x="-14.8" y="0.0" type="line"/>
      <point x="681.9999999999999" y="0.0" type="line"/>
      <point x="704.6" y="137.9" type="line"/>
      <point x="259.29999999999995" y="137.9" type="line"/>
      <point x="748.5999999999999" y="570.8000000000001" type="line"/>
      <point x="769.4999999999999" y="700.0" type="line"/>
      <point x="125.69999999999999" y="700.0" type="line"/>
      <point x="103.1" y="562.1000000000001" type="line"/>
      <point x="503.6" y="562.1000000000001" type="line"/>
      <point x="5.899999999999996" y="127.59999999999997" type="line"/>
    </contour>
  </outline>
</glyph>
<glyph name="bracketleft" format="2">
  <advance width="406.37"/>
  <unicode hex="005B"/>
  <outline>
    <contour>
      <point x="159.38" y="-96.1" type="line"/>
      <point x="274.84" y="626.3100000000001" type="line"/>
      <point x="436.49" y="626.3100000000001" type="line"/>
      <point x="454.89" y="740.0" type="line"/>
      <point x="158.09" y="740.0" type="line"/>
      <point x="6.410000000000007" y="-210.0" type="line"/>
      <point x="302.42" y="-210.0" type="line"/>
      <point x="321.03" y="-96.1" type="line"/>
    </contour>
  </outline>
</glyph>
<glyph name="backslash" format="2">
  <advance width="443.74"/>
  <unicode hex="005C"/>
  <outline>
    <contour>
      <point x="207.64000000000001" y="740.0" type="line"/>
      <point x="77.71000000000001" y="740.0" type="line"/>
      <point x="264.07000000000005" y="-210.0" type="line"/>
      <point x="393.78999999999996" y="-210.0" type="line"/>
    </contour>
  </outline>
</glyph>
<glyph name="bracketright" format="2">
  <advance width="406.37"/>
  <unicode hex="005D"/>
  <outline>
    <contour>
      <point x="-32.82000000000001" y="-96.1" type="line"/>
      <point x="-50.730000000000004" y="-210.0" type="line"/>
      <point x="244.98" y="-210.0" type="line"/>
      <point x="397.45000000000005" y="740.0" type="line"/>
      <point x="100.74000000000001" y="740.0" type="line"/>
      <point x="82.13" y="626.1" type="line"/>
      <point x="243.78" y="626.1" type="line"/>
      <point x="128.10999999999999" y="-96.1" type="line"/>
    </contour>
  </outline>
</glyph>
<glyph name="asciicircum" format="2">
  <advance width="580.92"/>
  <unicode hex="005E"/>
  <outline>
    <contour>
      <point x="39.81" y="232.87" type="line"/>
      <point x="176.76" y="232.87" type="line"/>
      <point x="329.76" y="539.04" type="line"/>
      <point x="391.11" y="232.87" type="line"/>
      <point x="527.43" y="232.87" type="line"/>
      <point x="431.38" y="703.0" type="line"/>
      <point x="284.33" y="703.0" type="line"/>
    </contour>
  </outline>
</glyph>
<glyph name="underscore" format="2">
  <advance width="850.1199999999999"/>
  <unicode hex="005F"/>
  <outline>
    <contour>
      <point x="-58.77000000000001" y="-187.59" type="line"/>
      <point x="761.67" y="-187.59" type="line"/>
      <point x="781.8900000000001" y="-64.41000000000001" type="line"/>
      <point x="-38.55000000000001" y="-64.41000000000001" type="line"/>
    </contour>
  </outline>
</glyph>
<glyph name="a" format="2">
  <advance width="712.4499999999998"/>
  <unicode hex="0061"/>
  <note>
15
</note>
  <anchor x="311.7054" y="0.0" name="bottom"/>
  <anchor x="669.0999999999999" y="4.8999999999999995" name="ogonek"/>
  <anchor x="396.84999999999997" y="544.0" name="top"/>
  <outline>
    <contour>
      <point x="576.3" y="-10.0" type="curve" smooth="yes"/>
      <point x="608.95" y="-10.0"/>
      <point x="647.1" y="-3.6500000000000004"/>
      <point x="669.05" y="4.449999999999999" type="curve"/>
      <point x="672.8499999999999" y="131.35" type="line"/>
      <point x="666.0500000000001" y="129.29999999999998"/>
      <point x="657.1499999999999" y="128.35"/>
      <point x="650.1" y="128.35" type="curve" smooth="yes"/>
      <point x="631.0999999999998" y="128.35"/>
      <point x="623.9999999999999" y="138.89999999999998"/>
      <point x="623.9999999999999" y="158.75" type="curve" smooth="yes"/>
      <point x="623.9999999999999" y="167.99999999999997"/>
      <point x="637.4999999999999" y="249.79999999999998"/>
      <point x="680.05" y="514.6499999999999" type="curve"/>
      <point x="618.9" y="536.25"/>
      <point x="498.54999999999995" y="554.0"/>
      <point x="395.3999999999999" y="554.0" type="curve" smooth="yes"/>
      <point x="168.35" y="554.0"/>
      <point x="27.75" y="436.90000000000003"/>
      <point x="27.75" y="202.45" type="curve" smooth="yes"/>
      <point x="27.75" y="57.95"/>
      <point x="115.85" y="-10.0"/>
      <point x="240.84999999999997" y="-10.0" type="curve" smooth="yes"/>
      <point x="317.6" y="-10.0"/>
      <point x="390.8499999999999" y="15.7"/>
      <point x="447.8499999999999" y="55.35" type="curve"/>
      <point x="470.85" y="15.099999999999996"/>
      <point x="523.6" y="-10.0"/>
    </contour>
    <contour>
      <point x="443.9" y="162.54999999999998" type="line"/>
      <point x="406.69999999999993" y="142.45"/>
      <point x="356.09999999999997" y="126.74999999999999"/>
      <point x="312.7" y="126.74999999999999" type="curve" smooth="yes"/>
      <point x="250.89999999999998" y="126.74999999999999"/>
      <point x="208.34999999999997" y="162.29999999999998"/>
      <point x="208.34999999999997" y="230.10000000000002" type="curve" smooth="yes"/>
      <point x="208.34999999999997" y="345.09999999999997"/>
      <point x="282.49999999999994" y="426.45"/>
      <point x="387.59999999999997" y="426.45" type="curve" smooth="yes"/>
      <point x="423.1" y="426.45"/>
      <point x="456.59999999999997" y="422.05"/>
      <point x="483.34999999999997" y="411.15" type="curve"/>
    </contour>
  </outline>
</glyph>
<glyph name="b" format="2">
  <advance width="702.29"/>
  <unicode hex="0062"/>
  <note>
12
</note>
  <outline>
    <contour>
      <point x="316.11999999999995" y="740.0" type="line"/>
      <point x="136.82" y="740.0" type="line"/>
      <point x="22.639999999999997" y="20.17" type="line"/>
      <point x="91.95999999999998" y="6.109999999999998"/>
      <point x="189.81" y="-10.0"/>
      <point x="298.35999999999996" y="-10.0" type="curve" smooth="yes"/>
      <point x="523.68" y="-10.0"/>
      <point x="676.3100000000001" y="114.54000000000003"/>
      <point x="675.9599999999999" y="350.05999999999995" type="curve" smooth="yes"/>
      <point x="675.96" y="475.37"/>
      <point x="613.9499999999999" y="554.0"/>
      <point x="486.90999999999997" y="554.0" type="curve" smooth="yes"/>
      <point x="412.43" y="554.0"/>
      <point x="347.03999999999996" y="529.5699999999999"/>
      <point x="274.75" y="485.68999999999994" type="curve"/>
    </contour>
    <contour>
      <point x="398.18" y="412.94" type="curve" smooth="yes"/>
      <point x="461.61" y="412.94"/>
      <point x="495.26000000000005" y="378.24"/>
      <point x="495.26000000000005" y="311.01" type="curve" smooth="yes"/>
      <point x="495.26000000000005" y="201.54000000000002"/>
      <point x="418.15" y="112.85999999999999"/>
      <point x="317.84999999999997" y="112.85999999999999" type="curve" smooth="yes"/>
      <point x="280.14" y="112.85999999999999"/>
      <point x="245.29999999999998" y="119.28999999999998"/>
      <point x="218.85" y="126.68999999999998" type="curve"/>
      <point x="257.05" y="369.21000000000004" type="line"/>
      <point x="304.74" y="396.38"/>
      <point x="352.2699999999999" y="412.94"/>
    </contour>
  </outline>
</glyph>
<glyph name="c" format="2">
  <advance width="625.7000000000002"/>
  <unicode hex="0063"/>
  <note>
10
</note>
  <anchor x="329.59999999999997" y="0.0" name="bottom"/>
  <anchor x="401.9" y="544.0" name="top"/>
  <outline>
    <contour>
      <point x="313.2" y="-10.0" type="curve" smooth="yes"/>
      <point x="396.7999999999999" y="-10.0"/>
      <point x="488.1" y="-1.2999999999999994"/>
      <point x="562.3000000000001" y="22.099999999999998" type="curve"/>
      <point x="555.1" y="145.7" type="line"/>
      <point x="482.5999999999999" y="131.3"/>
      <point x="429.5" y="123.8"/>
      <point x="363.2" y="123.8" type="curve" smooth="yes"/>
      <point x="267.79999999999995" y="123.8"/>
      <point x="212.20000000000002" y="165.29999999999998"/>
      <point x="212.20000000000002" y="239.9" type="curve" smooth="yes"/>
      <point x="212.20000000000002" y="343.99999999999994"/>
      <point x="279.5" y="421.30000000000007"/>
      <point x="398.8" y="421.30000000000007" type="curve" smooth="yes"/>
      <point x="453.3999999999999" y="421.30000000000007"/>
      <point x="514.7" y="415.7"/>
      <point x="586.4999999999999" y="399.0000000000001" type="curve"/>
      <point x="630.1" y="527.6999999999999" type="line"/>
      <point x="566.5" y="544.8"/>
      <point x="481.59999999999997" y="554.0"/>
      <point x="404.6" y="554.0" type="curve" smooth="yes"/>
      <point x="157.3" y="554.0"/>
      <point x="29.599999999999994" y="425.9"/>
      <point x="29.599999999999994" y="217.1" type="curve" smooth="yes"/>
      <point x="29.599999999999994" y="72.2"/>
      <point x="119.99999999999999" y="-10.0"/>
    </contour>
  </outline>
</glyph>
<glyph name="d" format="2">
  <advance width="715.0"/>
  <unicode hex="0064"/>
  <note>
17
</note>
  <anchor x="324.2" y="0.0" name="bottom"/>
  <anchor x="357.2" y="283.40000000000003" name="center"/>
  <anchor x="418.70000000000005" y="740.0" name="top"/>
  <anchor x="763.1" y="740.0" name="topright"/>
  <outline>
    <contour>
      <point x="576.9" y="-10.0" type="curve" smooth="yes"/>
      <point x="607.5000000000001" y="-10.0"/>
      <point x="645.5000000000001" y="-4.000000000000001"/>
      <point x="668.4" y="4.6" type="curve"/>
      <point x="671.6" y="131.5" type="line"/>
      <point x="665.0999999999999" y="129.3"/>
      <point x="656.4" y="128.49999999999997"/>
      <point x="649.2" y="128.49999999999997" type="curve" smooth="yes"/>
      <point x="631.5" y="128.49999999999997"/>
      <point x="623.1" y="137.89999999999998"/>
      <point x="623.1" y="155.4" type="curve" smooth="yes"/>
      <point x="623.1" y="169.89999999999998"/>
      <point x="704.5" y="682.1"/>
      <point x="713.5" y="740.0" type="curve"/>
      <point x="535.3000000000002" y="740.0" type="line"/>
      <point x="503.1000000000001" y="538.1999999999999" type="line"/>
      <point x="468.79999999999995" y="546.9999999999999"/>
      <point x="423.29999999999995" y="554.0"/>
      <point x="369.8999999999999" y="554.0" type="curve" smooth="yes"/>
      <point x="180.20000000000002" y="554.0"/>
      <point x="27.599999999999998" y="438.5999999999999"/>
      <point x="27.599999999999998" y="201.49999999999994" type="curve" smooth="yes"/>
      <point x="27.599999999999998" y="56.70000000000001"/>
      <point x="119.19999999999997" y="-10.0"/>
      <point x="240.19999999999996" y="-10.0" type="curve" smooth="yes"/>
      <point x="316.5" y="-10.0"/>
      <point x="393.09999999999985" y="17.400000000000002"/>
      <point x="446.6" y="53.4" type="curve"/>
      <point x="469.9" y="14.700000000000003"/>
      <point x="522.4999999999999" y="-10.0"/>
    </contour>
    <contour>
      <point x="310.4" y="127.19999999999999" type="curve" smooth="yes"/>
      <point x="251.99999999999997" y="127.19999999999999"/>
      <point x="207.99999999999997" y="160.6"/>
      <point x="207.99999999999997" y="224.49999999999997" type="curve" smooth="yes"/>
      <point x="207.99999999999997" y="338.0"/>
      <point x="282.5" y="426.59999999999997"/>
      <point x="385.79999999999995" y="426.59999999999997" type="curve" smooth="yes"/>
      <point x="424.2999999999999" y="426.59999999999997"/>
      <point x="456.6" y="421.3"/>
      <point x="483.3" y="413.70000000000005" type="curve"/>
      <point x="443.09999999999997" y="160.6" type="line"/>
      <point x="405.59999999999997" y="142.0"/>
      <point x="354.49999999999994" y="127.19999999999999"/>
    </contour>
  </outline>
</glyph>
<glyph name="e" format="2">
  <advance width="659.6000000000001"/>
  <unicode hex="0065"/>
  <note>
14 points
</note>
  <anchor x="305.2" y="0.0" name="bottom"/>
  <anchor x="522.7" y="9.6" name="ogonek"/>
  <anchor x="389.1" y="544.0999999999999" name="top"/>
  <outline>
    <contour>
      <point x="179.79999999999998" y="309.8999999999999" type="curve"/>
      <point x="180.99999999999997" y="215.79999999999998" type="line"/>
      <point x="227.9" y="210.5"/>
      <point x="284.30000000000007" y="208.89999999999998"/>
      <point x="351.79999999999995" y="213.2" type="curve" smooth="yes"/>
      <point x="539.9" y="226.20000000000002"/>
      <point x="644.6" y="293.50000000000006"/>
      <point x="644.6" y="400.2" type="curve" smooth="yes"/>
      <point x="644.6" y="495.9"/>
      <point x="549.7" y="553.8"/>
      <point x="400.79999999999995" y="553.8" type="curve" smooth="yes"/>
      <point x="156.3" y="553.8"/>
      <point x="29.800000000000004" y="417.1"/>
      <point x="29.800000000000004" y="224.6" type="curve" smooth="yes"/>
      <point x="29.800000000000004" y="75.5"/>
      <point x="139.99999999999997" y="-10.0"/>
      <point x="326.5" y="-10.0" type="curve" smooth="yes"/>
      <point x="416.4" y="-10.0"/>
      <point x="505.8" y="2.900000000000001"/>
      <point x="586.9" y="27.7" type="curve"/>
      <point x="569.6" y="154.49999999999997" type="line"/>
      <point x="487.8" y="129.89999999999995"/>
      <point x="410.4" y="119.39999999999999"/>
      <point x="363.1" y="119.39999999999999" type="curve" smooth="yes"/>
      <point x="247.99999999999997" y="119.39999999999999"/>
      <point x="207.99999999999997" y="153.60000000000002"/>
      <point x="208.39999999999998" y="237.5" type="curve" smooth="yes"/>
      <point x="208.79999999999998" y="356.29999999999995"/>
      <point x="280.8" y="433.1"/>
      <point x="380.9" y="433.09999999999997" type="curve" smooth="yes"/>
      <point x="434.9" y="433.09999999999997"/>
      <point x="462.0" y="415.79999999999995"/>
      <point x="462.0" y="382.1" type="curve" smooth="yes"/>
      <point x="461.8" y="339.90000000000003"/>
      <point x="401.0" y="316.6"/>
      <point x="295.1" y="309.19999999999993" type="curve" smooth="yes"/>
      <point x="253.0" y="306.1"/>
      <point x="212.50000000000003" y="305.3"/>
    </contour>
  </outline>
</glyph>
<glyph name="f" format="2">
  <advance width="472.96999999999997"/>
  <unicode hex="0066"/>
  <outline>
    <contour>
      <point x="36.98999999999999" y="-220.0" type="curve" smooth="yes"/>
      <point x="147.29" y="-220.0"/>
      <point x="215.17999999999998" y="-145.86"/>
      <point x="238.43999999999997" y="-0.720000000000006" type="curve" smooth="yes"/>
      <point x="296.48999999999995" y="368.54" type="line"/>
      <point x="468.86" y="368.54" type="line"/>
      <point x="489.01" y="493.45" type="line"/>
      <point x="316.15" y="493.45" type="line"/>
      <point x="328.81999999999994" y="573.5199999999999"/>
      <point x="367.51" y="607.8"/>
      <point x="435.46" y="607.8" type="curve" smooth="yes"/>
      <point x="476.95000000000005" y="607.8"/>
      <point x="521.0" y="599.55"/>
      <point x="553.8599999999999" y="589.2" type="curve"/>
      <point x="596.2099999999999" y="718.85" type="line"/>
      <point x="543.6" y="738.41"/>
      <point x="481.58" y="750.0"/>
      <point x="418.75999999999993" y="750.0" type="curve" smooth="yes"/>
      <point x="260.84" y="750.0"/>
      <point x="161.67000000000002" y="663.2799999999999"/>
      <point x="137.55" y="493.45" type="curve"/>
      <point x="49.449999999999996" y="480.59000000000003" type="line"/>
      <point x="31.07" y="368.54" type="line"/>
      <point x="117.39999999999999" y="368.54" type="line"/>
      <point x="62.169999999999995" y="17.229999999999993" type="line" smooth="yes"/>
      <point x="51.61999999999999" y="-49.860000000000014"/>
      <point x="31.649999999999995" y="-79.17000000000002"/>
      <point x="-6.260000000000003" y="-79.17000000000002" type="curve" smooth="yes"/>
      <point x="-18.020000000000007" y="-79.17000000000002"/>
      <point x="-31.120000000000008" y="-77.38"/>
      <point x="-44.390000000000015" y="-72.94000000000001" type="curve"/>
      <point x="-77.44000000000001" y="-200.26000000000002" type="line"/>
      <point x="-42.230000000000004" y="-214.01"/>
      <point x="-7.490000000000013" y="-220.0"/>
    </contour>
  </outline>
</glyph>
<glyph name="g" format="2">
  <advance width="703.6999999999999"/>
  <unicode hex="0067"/>
  <note>
16
</note>
  <anchor x="263.8" y="-214.20000000000002" name="bottom"/>
  <anchor x="400.40000000000003" y="544.0" name="top"/>
  <outline>
    <contour>
      <point x="-5.500000000000002" y="-172.0" type="line"/>
      <point x="68.2" y="-199.69999999999996"/>
      <point x="163.6" y="-220.0"/>
      <point x="275.4" y="-220.0" type="curve" smooth="yes"/>
      <point x="471.8999999999999" y="-220.0"/>
      <point x="577.1999999999999" y="-123.80000000000001"/>
      <point x="605.8999999999999" y="59.39999999999999" type="curve" smooth="yes"/>
      <point x="678.9" y="518.6" type="line"/>
      <point x="627.4" y="535.9000000000002"/>
      <point x="495.8999999999999" y="554.0"/>
      <point x="413.29999999999995" y="554.0" type="curve" smooth="yes"/>
      <point x="133.40000000000003" y="554.0"/>
      <point x="27.700000000000003" y="403.9"/>
      <point x="27.700000000000003" y="203.79999999999998" type="curve" smooth="yes"/>
      <point x="27.700000000000003" y="80.40000000000002"/>
      <point x="105.69999999999997" y="13.499999999999995"/>
      <point x="235.10000000000002" y="13.499999999999995" type="curve" smooth="yes"/>
      <point x="284.2" y="13.499999999999995"/>
      <point x="370.99999999999994" y="33.3"/>
      <point x="428.19999999999993" y="66.8" type="curve"/>
      <point x="424.69999999999993" y="44.00000000000001" type="line" smooth="yes"/>
      <point x="409.9" y="-54.999999999999986"/>
      <point x="354.90000000000003" y="-87.19999999999999"/>
      <point x="256.0" y="-87.19999999999999" type="curve" smooth="yes"/>
      <point x="182.7" y="-87.19999999999999"/>
      <point x="103.99999999999997" y="-69.89999999999999"/>
      <point x="36.8" y="-47.49999999999999" type="curve"/>
    </contour>
    <contour>
      <point x="483.3" y="416.7000000000001" type="curve"/>
      <point x="444.79999999999995" y="173.79999999999998" type="line"/>
      <point x="404.8" y="154.29999999999998"/>
      <point x="354.3" y="139.39999999999998"/>
      <point x="317.8999999999999" y="139.39999999999998" type="curve" smooth="yes"/>
      <point x="248.9" y="139.39999999999998"/>
      <point x="209.39999999999998" y="173.1"/>
      <point x="209.39999999999998" y="240.10000000000005" type="curve" smooth="yes"/>
      <point x="209.39999999999998" y="340.0"/>
      <point x="275.3" y="431.40000000000003"/>
      <point x="388.3" y="431.40000000000003" type="curve" smooth="yes"/>
      <point x="433.2" y="431.40000000000003"/>
      <point x="461.9" y="423.1"/>
    </contour>
  </outline>
</glyph>
<glyph name="h" format="2">
  <advance width="698.6"/>
  <unicode hex="0068"/>
  <note>
16
</note>
  <anchor x="317.46" y="0.0" name="bottom"/>
  <anchor x="369.40168" y="382.4" name="center"/>
  <anchor x="416.61999999999995" y="740.0" name="top"/>
  <outline>
    <contour>
      <point x="615.08" y="155.18" type="curve" smooth="yes"/>
      <point x="615.08" y="188.4"/>
      <point x="651.8199999999999" y="370.14"/>
      <point x="651.8199999999999" y="415.26" type="curve" smooth="yes"/>
      <point x="651.8199999999999" y="494.42"/>
      <point x="602.4399999999999" y="554.0"/>
      <point x="487.34000000000003" y="554.0" type="curve" smooth="yes"/>
      <point x="412.48" y="554.0"/>
      <point x="356.23999999999995" y="532.7199999999999"/>
      <point x="276.40000000000003" y="491.9" type="curve"/>
      <point x="315.9599999999999" y="740.0" type="line"/>
      <point x="136.9" y="740.0" type="line"/>
      <point x="18.620000000000005" y="0.0" type="line"/>
      <point x="198.25999999999996" y="0.0" type="line"/>
      <point x="257.86000000000007" y="375.29999999999995" type="line"/>
      <point x="306.44" y="398.3999999999999"/>
      <point x="351.21999999999997" y="415.2200000000001"/>
      <point x="395.65999999999997" y="415.2200000000001" type="curve" smooth="yes"/>
      <point x="444.94000000000005" y="415.2200000000001"/>
      <point x="464.76" y="391.70000000000005"/>
      <point x="464.76" y="355.58" type="curve" smooth="yes"/>
      <point x="464.76" y="316.82"/>
      <point x="428.72" y="132.66000000000003"/>
      <point x="428.72" y="97.11999999999999" type="curve" smooth="yes"/>
      <point x="428.72" y="27.56"/>
      <point x="485.40000000000003" y="-10.0"/>
      <point x="562.4399999999999" y="-10.0" type="curve" smooth="yes"/>
      <point x="595.44" y="-10.0"/>
      <point x="635.44" y="-5.279999999999999"/>
      <point x="661.26" y="2.699999999999999" type="curve"/>
      <point x="664.8" y="132.25999999999996" type="line"/>
      <point x="657.3599999999999" y="130.05999999999997"/>
      <point x="647.4799999999999" y="128.58"/>
      <point x="640.16" y="128.58" type="curve" smooth="yes"/>
      <point x="623.68" y="128.58"/>
      <point x="615.08" y="138.54"/>
    </contour>
  </outline>
</glyph>
<glyph name="i" format="2">
  <advance width="305.60999999999996"/>
  <unicode hex="0069"/>
  <note>
Ajuster pts sur points
8
</note>
  <anchor x="108.97756" y="0.0" name="bottom"/>
  <anchor x="198.83999999999997" y="0.0" name="ogonek"/>
  <anchor x="195.34244" y="544.0" name="top"/>
  <outline>
    <contour>
      <point x="19.560000000000006" y="0.0" type="line"/>
      <point x="198.83999999999997" y="0.0" type="line"/>
      <point x="284.45" y="544.0" type="line"/>
      <point x="106.05999999999999" y="544.0" type="line"/>
    </contour>
    <contour>
      <point x="229.69" y="766.0" type="curve" smooth="yes"/>
      <point x="146.67000000000002" y="766.0"/>
      <point x="108.72999999999999" y="730.4"/>
      <point x="108.25" y="666.15" type="curve" smooth="yes"/>
      <point x="108.16" y="624.41"/>
      <point x="137.38" y="601.59"/>
      <point x="201.68999999999997" y="601.59" type="curve" smooth="yes"/>
      <point x="272.25" y="601.59"/>
      <point x="322.37" y="630.7500000000001"/>
      <point x="323.06" y="702.35" type="curve" smooth="yes"/>
      <point x="323.15" y="743.39"/>
      <point x="294.35" y="766.0"/>
    </contour>
  </outline>
</glyph>
<glyph name="j" format="2">
  <advance width="322.17"/>
  <unicode hex="006A"/>
  <note>
idem /i
12
</note>
  <outline>
    <contour>
      <point x="246.74" y="766.0" type="curve" smooth="yes"/>
      <point x="163.23" y="766.0"/>
      <point x="126.2" y="730.4"/>
      <point x="125.72" y="666.15" type="curve" smooth="yes"/>
      <point x="125.63000000000001" y="624.41"/>
      <point x="155.13" y="601.59"/>
      <point x="219.44" y="601.59" type="curve" smooth="yes"/>
      <point x="289.16" y="601.59"/>
      <point x="338.99999999999994" y="630.7500000000001"/>
      <point x="339.69" y="702.35" type="curve" smooth="yes"/>
      <point x="339.78000000000003" y="743.39"/>
      <point x="311.4" y="766.0"/>
    </contour>
    <contour>
      <point x="302.2" y="544.0" type="line"/>
      <point x="123.11" y="544.0" type="line"/>
      <point x="37.93" y="4.419999999999995" type="line" smooth="yes"/>
      <point x="29.41" y="-50.35000000000001"/>
      <point x="13.009999999999994" y="-79.17000000000002"/>
      <point x="-26.649999999999995" y="-79.17000000000002" type="curve" smooth="yes"/>
      <point x="-36.75" y="-79.17000000000002"/>
      <point x="-51.32000000000001" y="-78.08000000000001"/>
      <point x="-64.87" y="-73.29" type="curve"/>
      <point x="-100.09" y="-207.89" type="line"/>
      <point x="-64.81" y="-216.39000000000001"/>
      <point x="-22.720000000000006" y="-220.0"/>
      <point x="-0.15000000000000568" y="-220.0" type="curve" smooth="yes"/>
      <point x="136.49" y="-220.0"/>
      <point x="194.01999999999998" y="-137.27"/>
      <point x="218.46999999999997" y="17.96999999999999" type="curve" smooth="yes"/>
    </contour>
  </outline>
</glyph>
<glyph name="k" format="2">
  <advance width="659.5999999999999"/>
  <unicode hex="006B"/>
  <anchor x="298.79999999999995" y="0.0" name="bottom"/>
  <anchor x="226.79999999999998" y="740.0" name="top"/>
  <outline>
    <contour>
      <point x="19.500000000000004" y="0.0" type="line"/>
      <point x="198.19999999999996" y="0.0" type="line"/>
      <point x="316.4" y="740.0" type="line"/>
      <point x="136.7" y="740.0" type="line"/>
    </contour>
    <contour>
      <point x="563.8" y="-10.0" type="curve" smooth="yes"/>
      <point x="577.0" y="-10.0"/>
      <point x="590.5" y="-8.2"/>
      <point x="603.3000000000001" y="-4.7" type="curve"/>
      <point x="627.1999999999999" y="155.60000000000002" type="line"/>
      <point x="619.0999999999999" y="154.50000000000003"/>
      <point x="611.0999999999999" y="154.5"/>
      <point x="602.8" y="154.7" type="curve" smooth="yes"/>
      <point x="556.4999999999999" y="155.7"/>
      <point x="504.90000000000003" y="177.89999999999998"/>
      <point x="406.19999999999993" y="261.6" type="curve" smooth="yes"/>
      <point x="242.4" y="401.1" type="line"/>
      <point x="213.29999999999998" y="234.0" type="line"/>
      <point x="351.79999999999995" y="104.10000000000001" type="line" smooth="yes"/>
      <point x="434.0" y="27.1"/>
      <point x="498.29999999999984" y="-10.0"/>
    </contour>
    <contour>
      <point x="387.5999999999999" y="261.0" type="line"/>
      <point x="516.4" y="337.8"/>
      <point x="626.5999999999999" y="447.70000000000005"/>
      <point x="673.6" y="542.8000000000001" type="curve"/>
      <point x="478.3" y="554.0" type="line"/>
      <point x="427.8" y="459.8999999999999"/>
      <point x="363.6" y="396.7"/>
      <point x="254.19999999999996" y="325.69999999999993" type="curve"/>
    </contour>
  </outline>
</glyph>
<glyph name="l" format="2">
  <advance width="371.67"/>
  <unicode hex="006C"/>
  <anchor x="176.76000000000002" y="0.0" name="bottom"/>
  <anchor x="197.44293999999996" y="382.25" name="center"/>
  <anchor x="226.18" y="740.0" name="top"/>
  <anchor x="365.3" y="740.0" name="topright"/>
  <outline>
    <contour>
      <point x="136.68" y="740.0" type="line"/>
      <point x="48.260000000000005" y="183.24999999999997" type="line" smooth="yes"/>
      <point x="44.879999999999995" y="160.62"/>
      <point x="41.779999999999994" y="136.59"/>
      <point x="41.779999999999994" y="115.58999999999999" type="curve" smooth="yes"/>
      <point x="41.779999999999994" y="31.09"/>
      <point x="84.77" y="-10.0"/>
      <point x="177.42000000000002" y="-10.0" type="curve" smooth="yes"/>
      <point x="233.31" y="-10.0"/>
      <point x="288.29999999999995" y="0.48999999999999905"/>
      <point x="335.66999999999996" y="15.849999999999998" type="curve"/>
      <point x="338.87999999999994" y="150.40999999999997" type="line"/>
      <point x="310.16" y="143.87"/>
      <point x="290.9" y="139.98"/>
      <point x="270.58" y="139.98" type="curve" smooth="yes"/>
      <point x="239.79999999999998" y="139.98"/>
      <point x="228.2" y="155.38"/>
      <point x="228.2" y="177.67000000000002" type="curve" smooth="yes"/>
      <point x="228.2" y="188.04"/>
      <point x="229.51999999999998" y="198.74999999999997"/>
      <point x="231.48999999999998" y="209.55999999999997" type="curve" smooth="yes"/>
      <point x="315.77000000000004" y="740.0" type="line"/>
    </contour>
  </outline>
</glyph>
<glyph name="m" format="2">
  <advance width="1027.84"/>
  <unicode hex="006D"/>
  <note>
24&gt;23 points
un point de trop dans la jointure avec 2e jambage
</note>
  <outline>
    <contour>
      <point x="891.11" y="-10.0" type="curve" smooth="yes"/>
      <point x="924.14" y="-10.0"/>
      <point x="965.01" y="-5.43"/>
      <point x="990.5599999999998" y="2.759999999999999" type="curve"/>
      <point x="993.9799999999999" y="131.71999999999997" type="line"/>
      <point x="986.6" y="129.51999999999998"/>
      <point x="976.45" y="128.31"/>
      <point x="969.1899999999998" y="128.31" type="curve" smooth="yes"/>
      <point x="952.9200000000001" y="128.31"/>
      <point x="944.1699999999998" y="138.57"/>
      <point x="944.1699999999998" y="156.02" type="curve" smooth="yes"/>
      <point x="944.1699999999998" y="193.11"/>
      <point x="981.3299999999999" y="371.43"/>
      <point x="981.3299999999999" y="416.19" type="curve" smooth="yes"/>
      <point x="981.3299999999999" y="493.76000000000005"/>
      <point x="929.2299999999999" y="554.0"/>
      <point x="814.25" y="554.0" type="curve" smooth="yes"/>
      <point x="733.61" y="554.0"/>
      <point x="679.0500000000001" y="526.26"/>
      <point x="602.41" y="476.80000000000007" type="curve"/>
      <point x="585.34" y="522.1899999999999"/>
      <point x="546.09" y="554.0"/>
      <point x="466.37" y="554.0" type="curve" smooth="yes"/>
      <point x="401.25" y="554.0"/>
      <point x="336.89" y="529.6999999999999"/>
      <point x="257.84" y="484.08000000000004" type="curve"/>
      <point x="267.0" y="544.0" type="line"/>
      <point x="105.47999999999999" y="544.0" type="line"/>
      <point x="19.59" y="0.0" type="line"/>
      <point x="198.46999999999997" y="0.0" type="line"/>
      <point x="258.34" y="380.31" type="line"/>
      <point x="298.57" y="401.96"/>
      <point x="332.36" y="415.25000000000006"/>
      <point x="365.37" y="415.25000000000006" type="curve" smooth="yes"/>
      <point x="414.36" y="415.25000000000006"/>
      <point x="433.75" y="388.3"/>
      <point x="433.75" y="349.01000000000005" type="curve" smooth="yes"/>
      <point x="433.75" y="331.53"/>
      <point x="406.46000000000004" y="162.60999999999999"/>
      <point x="381.19" y="0.0" type="curve"/>
      <point x="557.99" y="0.0" type="line"/>
      <point x="580.3199999999999" y="144.06000000000003"/>
      <point x="599.14" y="263.83"/>
      <point x="611.18" y="343.99" type="curve" smooth="yes"/>
      <point x="611.88" y="351.09"/>
      <point x="613.96" y="370.3"/>
      <point x="614.15" y="376.12" type="curve"/>
      <point x="653.75" y="399.87"/>
      <point x="687.35" y="413.78000000000003"/>
      <point x="724.64" y="413.78000000000003" type="curve" smooth="yes"/>
      <point x="774.51" y="413.78000000000003"/>
      <point x="793.54" y="389.71"/>
      <point x="793.54" y="351.87" type="curve" smooth="yes"/>
      <point x="793.54" y="314.44"/>
      <point x="758.1700000000001" y="135.35"/>
      <point x="758.1700000000001" y="97.71999999999998" type="curve" smooth="yes"/>
      <point x="758.1700000000001" y="26.239999999999995"/>
      <point x="814.3399999999999" y="-10.0"/>
    </contour>
  </outline>
</glyph>
<glyph name="n" format="2">
  <advance width="698.7199999999999"/>
  <unicode hex="006E"/>
  <note>
16
</note>
  <anchor x="319.62" y="0.0" name="bottom"/>
  <anchor x="385.07000000000005" y="544.0" name="top"/>
  <outline>
    <contour>
      <point x="105.47999999999999" y="544.0" type="line"/>
      <point x="19.59" y="0.0" type="line"/>
      <point x="197.97999999999996" y="0.0" type="line"/>
      <point x="258.34" y="375.59999999999997" type="line"/>
      <point x="303.19" y="397.53"/>
      <point x="350.33000000000004" y="415.34000000000003"/>
      <point x="395.86" y="415.34000000000003" type="curve" smooth="yes"/>
      <point x="444.17" y="415.34000000000003"/>
      <point x="465.29999999999995" y="393.14"/>
      <point x="465.29999999999995" y="354.32" type="curve" smooth="yes"/>
      <point x="465.29999999999995" y="312.4"/>
      <point x="429.44" y="140.25"/>
      <point x="429.44" y="96.03999999999999" type="curve" smooth="yes"/>
      <point x="429.44" y="27.709999999999994"/>
      <point x="485.64000000000004" y="-10.0"/>
      <point x="562.4100000000001" y="-10.0" type="curve" smooth="yes"/>
      <point x="595.4399999999999" y="-10.0"/>
      <point x="635.89" y="-5.43"/>
      <point x="661.4399999999999" y="2.759999999999999" type="curve"/>
      <point x="664.86" y="131.71999999999997" type="line"/>
      <point x="657.48" y="129.51999999999998"/>
      <point x="647.3299999999999" y="128.31"/>
      <point x="640.0699999999999" y="128.31" type="curve" smooth="yes"/>
      <point x="623.8" y="128.31"/>
      <point x="615.02" y="138.14999999999998"/>
      <point x="615.02" y="154.97" type="curve" smooth="yes"/>
      <point x="615.02" y="188.28"/>
      <point x="652.3900000000001" y="369.96"/>
      <point x="652.3900000000001" y="414.93" type="curve" smooth="yes"/>
      <point x="652.3900000000001" y="501.04"/>
      <point x="591.29" y="554.0"/>
      <point x="485.3399999999999" y="554.0" type="curve" smooth="yes"/>
      <point x="405.94999999999993" y="554.0"/>
      <point x="331.2" y="528.35"/>
      <point x="260.15" y="483.35999999999996" type="curve"/>
      <point x="269.52" y="544.0" type="line"/>
    </contour>
  </outline>
</glyph>
<glyph name="o" format="2">
  <advance width="688.3000000000001"/>
  <unicode hex="006F"/>
  <note>
8
</note>
  <anchor x="307.20000000000005" y="0.0" name="bottom"/>
  <anchor x="345.20000000000005" y="274.09999999999997" name="center"/>
  <anchor x="415.5" y="0.0" name="ogonek"/>
  <anchor x="375.70000000000005" y="544.0" name="top"/>
  <anchor x="551.3000000000001" y="536.1" name="topright"/>
  <outline>
    <contour>
      <point x="332.4" y="-9.799999999999999" type="curve" smooth="yes"/>
      <point x="542.5999999999999" y="-9.799999999999999"/>
      <point x="653.9000000000001" y="118.40000000000002"/>
      <point x="654.7" y="317.0" type="curve" smooth="yes"/>
      <point x="655.1000000000001" y="476.8"/>
      <point x="545.0999999999999" y="555.3"/>
      <point x="357.20000000000005" y="555.3" type="curve" smooth="yes"/>
      <point x="143.6" y="555.3"/>
      <point x="32.9" y="423.0999999999999"/>
      <point x="32.1" y="227.89999999999998" type="curve" smooth="yes"/>
      <point x="31.700000000000003" y="68.70000000000002"/>
      <point x="140.5" y="-9.799999999999999"/>
    </contour>
    <contour>
      <point x="332.09999999999997" y="112.19999999999999" type="curve" smooth="yes"/>
      <point x="254.6" y="112.0"/>
      <point x="211.39999999999998" y="146.7"/>
      <point x="211.0" y="225.29999999999998" type="curve" smooth="yes"/>
      <point x="210.2" y="327.00000000000006"/>
      <point x="254.9" y="432.90000000000003"/>
      <point x="354.69999999999993" y="433.3" type="curve" smooth="yes"/>
      <point x="430.2999999999999" y="433.5"/>
      <point x="474.79999999999995" y="398.9"/>
      <point x="475.19999999999993" y="322.4" type="curve" smooth="yes"/>
      <point x="475.9999999999999" y="215.60000000000002"/>
      <point x="431.3" y="112.6"/>
    </contour>
  </outline>
</glyph>
<glyph name="p" format="2">
  <advance width="702.8499999999999"/>
  <unicode hex="0070"/>
  <note>
14 point
</note>
  <outline>
    <contour>
      <point x="-13.179999999999993" y="-210.0" type="line"/>
      <point x="164.62999999999997" y="-210.0" type="line"/>
      <point x="198.95999999999998" y="3.09" type="line"/>
      <point x="229.05999999999995" y="-3.380000000000001"/>
      <point x="271.67" y="-9.65"/>
      <point x="318.94" y="-9.65" type="curve" smooth="yes"/>
      <point x="554.9" y="-9.65"/>
      <point x="675.9599999999999" y="133.54999999999998"/>
      <point x="675.9599999999999" y="349.43000000000006" type="curve" smooth="yes"/>
      <point x="675.9599999999999" y="476.26"/>
      <point x="613.2700000000001" y="554.0"/>
      <point x="486.28" y="554.0" type="curve" smooth="yes"/>
      <point x="399.47999999999996" y="554.0"/>
      <point x="334.36999999999995" y="525.93"/>
      <point x="260.04999999999995" y="480.99999999999994" type="curve"/>
      <point x="268.54999999999995" y="544.9" type="line"/>
      <point x="105.8" y="544.9" type="line"/>
    </contour>
    <contour>
      <point x="316.16999999999996" y="112.85999999999999" type="curve" smooth="yes"/>
      <point x="278.46" y="112.85999999999999"/>
      <point x="245.29999999999998" y="119.40999999999998"/>
      <point x="218.75999999999996" y="126.80999999999999" type="curve"/>
      <point x="256.84" y="369.0" type="line"/>
      <point x="302.84999999999997" y="395.24"/>
      <point x="352.3399999999999" y="412.94"/>
      <point x="398.88" y="412.94" type="curve" smooth="yes"/>
      <point x="460.30000000000007" y="412.94"/>
      <point x="495.26000000000005" y="381.3"/>
      <point x="495.26000000000005" y="310.16999999999996" type="curve" smooth="yes"/>
      <point x="495.26000000000005" y="203.39999999999998"/>
      <point x="422.2" y="112.85999999999999"/>
    </contour>
  </outline>
</glyph>
<glyph name="q" format="2">
  <advance width="703.18"/>
  <unicode hex="0071"/>
  <note>
12
</note>
  <outline>
    <contour>
      <point x="678.7700000000001" y="520.6800000000001" type="line"/>
      <point x="607.88" y="538.06"/>
      <point x="500.09999999999997" y="554.0"/>
      <point x="397.15" y="554.0" type="curve" smooth="yes"/>
      <point x="150.28" y="554.0"/>
      <point x="26.689999999999998" y="410.19"/>
      <point x="26.689999999999998" y="197.13" type="curve" smooth="yes"/>
      <point x="26.689999999999998" y="70.63999999999999"/>
      <point x="99.21999999999998" y="-10.0"/>
      <point x="236.73000000000002" y="-10.0" type="curve" smooth="yes"/>
      <point x="302.96000000000004" y="-10.0"/>
      <point x="358.95" y="12.04"/>
      <point x="426.01" y="56.26999999999999" type="curve"/>
      <point x="383.61999999999995" y="-210.0" type="line"/>
      <point x="561.7" y="-210.0" type="line"/>
    </contour>
    <contour>
      <point x="482.7699999999999" y="413.78000000000003" type="curve"/>
      <point x="443.71000000000004" y="168.39" type="line"/>
      <point x="397.98" y="141.09"/>
      <point x="352.37" y="126.85999999999999"/>
      <point x="308.12" y="126.85999999999999" type="curve" smooth="yes"/>
      <point x="249.78" y="126.85999999999999"/>
      <point x="206.37" y="160.17999999999998"/>
      <point x="206.37" y="230.54" type="curve" smooth="yes"/>
      <point x="206.37" y="335.03999999999996"/>
      <point x="273.4" y="427.03"/>
      <point x="385.75999999999993" y="427.03" type="curve" smooth="yes"/>
      <point x="423.55" y="427.03"/>
      <point x="457.15000000000003" y="421.09"/>
    </contour>
  </outline>
</glyph>
<glyph name="r" format="2">
  <advance width="498.15000000000003"/>
  <unicode hex="0072"/>
  <anchor x="105.24" y="0.0" name="bottom"/>
  <anchor x="318.0" y="544.0" name="top"/>
  <outline>
    <contour>
      <point x="265.39" y="544.0" type="line"/>
      <point x="106.46" y="544.0" type="line"/>
      <point x="19.099999999999998" y="0.0" type="line"/>
      <point x="197.63" y="0.0" type="line"/>
      <point x="253.56999999999996" y="347.08" type="line"/>
      <point x="312.03" y="384.71000000000004"/>
      <point x="358.0" y="397.61"/>
      <point x="400.18999999999994" y="397.61" type="curve" smooth="yes"/>
      <point x="427.87" y="397.61"/>
      <point x="456.78999999999996" y="392.81"/>
      <point x="486.71" y="385.1" type="curve"/>
      <point x="536.1999999999999" y="541.3299999999999" type="line"/>
      <point x="510.83" y="549.2700000000001"/>
      <point x="481.09999999999997" y="554.0"/>
      <point x="451.28" y="554.0" type="curve" smooth="yes"/>
      <point x="387.61" y="554.0"/>
      <point x="336.35999999999996" y="529.7199999999999"/>
      <point x="253.01999999999998" y="464.31" type="curve"/>
    </contour>
  </outline>
</glyph>
<glyph name="s" format="2">
  <advance width="577.6999999999998"/>
  <unicode hex="0073"/>
  <anchor x="267.59999999999997" y="0.0" name="bottom"/>
  <anchor x="335.80000000000007" y="544.0" name="top"/>
  <outline>
    <contour>
      <point x="-12.199999999999998" y="31.299999999999997" type="line"/>
      <point x="60.69999999999998" y="7.7"/>
      <point x="143.5" y="-10.0"/>
      <point x="247.10000000000002" y="-10.0" type="curve" smooth="yes"/>
      <point x="402.99999999999994" y="-10.0"/>
      <point x="537.0" y="27.600000000000005"/>
      <point x="537.0" y="179.10000000000002" type="curve" smooth="yes"/>
      <point x="537.0" y="374.4"/>
      <point x="212.2" y="302.8999999999999"/>
      <point x="212.2" y="387.50000000000006" type="curve" smooth="yes"/>
      <point x="212.2" y="416.9"/>
      <point x="246.59999999999997" y="433.5"/>
      <point x="324.49999999999994" y="433.5" type="curve" smooth="yes"/>
      <point x="384.79999999999995" y="433.5"/>
      <point x="462.4" y="421.90000000000003"/>
      <point x="516.9" y="403.59999999999997" type="curve"/>
      <point x="553.5" y="521.6" type="line"/>
      <point x="495.90000000000003" y="540.6999999999999"/>
      <point x="424.2" y="554.0"/>
      <point x="341.7" y="554.0" type="curve" smooth="yes"/>
      <point x="161.79999999999998" y="554.0"/>
      <point x="51.00000000000001" y="495.8"/>
      <point x="51.00000000000001" y="368.19999999999993" type="curve" smooth="yes"/>
      <point x="51.00000000000001" y="169.79999999999995"/>
      <point x="374.6" y="244.50000000000003"/>
      <point x="374.6" y="151.9" type="curve" smooth="yes"/>
      <point x="374.6" y="121.39999999999999"/>
      <point x="334.29999999999995" y="108.6"/>
      <point x="258.2" y="108.6" type="curve" smooth="yes"/>
      <point x="181.29999999999995" y="108.6"/>
      <point x="83.99999999999999" y="127.49999999999999"/>
      <point x="25.7" y="148.9" type="curve"/>
    </contour>
  </outline>
</glyph>
<glyph name="t" format="2">
  <advance width="479.11999999999995"/>
  <unicode hex="0074"/>
  <anchor x="231.15" y="0.0" name="bottom"/>
  <anchor x="236.48" y="280.21999999999997" name="center"/>
  <anchor x="257.29999999999995" y="662.6899999999999" name="top"/>
  <anchor x="441.27" y="781.3" name="topright"/>
  <outline>
    <contour>
      <point x="427.71999999999997" y="153.29999999999998" type="line"/>
      <point x="384.01000000000005" y="142.88"/>
      <point x="352.2" y="135.49"/>
      <point x="322.66999999999996" y="135.49" type="curve" smooth="yes"/>
      <point x="277.91999999999996" y="135.49"/>
      <point x="260.65999999999997" y="155.02999999999997"/>
      <point x="260.65999999999997" y="188.93999999999997" type="curve" smooth="yes"/>
      <point x="260.65999999999997" y="197.09"/>
      <point x="261.26" y="205.75"/>
      <point x="262.77" y="215.38000000000002" type="curve" smooth="yes"/>
      <point x="296.18" y="419.51" type="line"/>
      <point x="468.39000000000004" y="419.51" type="line"/>
      <point x="489.94" y="544.0" type="line"/>
      <point x="316.26" y="544.0" type="line"/>
      <point x="335.43999999999994" y="662.6899999999999" type="line"/>
      <point x="179.48" y="662.6899999999999" type="line"/>
      <point x="140.04" y="544.0" type="line"/>
      <point x="41.58" y="531.14" type="line"/>
      <point x="21.8" y="419.71999999999997" type="line"/>
      <point x="117.02" y="419.71999999999997" type="line"/>
      <point x="83.47" y="206.56" type="line" smooth="yes"/>
      <point x="79.07" y="180.04"/>
      <point x="76.53" y="152.0"/>
      <point x="76.53" y="131.84" type="curve" smooth="yes"/>
      <point x="76.53" y="24.529999999999998"/>
      <point x="141.3" y="-10.0"/>
      <point x="235.52999999999997" y="-10.0" type="curve" smooth="yes"/>
      <point x="298.28" y="-10.0"/>
      <point x="355.67999999999995" y="0.5399999999999994"/>
      <point x="421.8" y="20.17" type="curve"/>
    </contour>
  </outline>
</glyph>
<glyph name="u" format="2">
  <advance width="694.8"/>
  <unicode hex="0075"/>
  <note>
15
</note>
  <anchor x="302.62" y="0.0" name="bottom"/>
  <anchor x="651.1500000000001" y="15.89" name="ogonek"/>
  <anchor x="381.17676" y="544.0" name="top"/>
  <anchor x="658.01" y="544.0" name="topright"/>
  <outline>
    <contour>
      <point x="208.57" y="-10.0" type="curve" smooth="yes"/>
      <point x="282.12" y="-10.0"/>
      <point x="356.21" y="15.75"/>
      <point x="429.94" y="63.47" type="curve"/>
      <point x="444.77" y="19.369999999999997"/>
      <point x="486.35" y="-10.0"/>
      <point x="543.64" y="-10.0" type="curve" smooth="yes"/>
      <point x="579.36" y="-10.0"/>
      <point x="621.3" y="0.9299999999999988"/>
      <point x="651.1500000000001" y="21.28" type="curve"/>
      <point x="653.71" y="131.6" type="line"/>
      <point x="642.6899999999999" y="127.92999999999999"/>
      <point x="634.26" y="127.02999999999999"/>
      <point x="630.27" y="127.02999999999999" type="curve" smooth="yes"/>
      <point x="614.39" y="127.02999999999999"/>
      <point x="604.0899999999999" y="135.91"/>
      <point x="604.0899999999999" y="159.72" type="curve" smooth="yes"/>
      <point x="604.0899999999999" y="166.66"/>
      <point x="605.27" y="180.44999999999996"/>
      <point x="664.31" y="544.0" type="curve"/>
      <point x="485.35999999999996" y="544.0" type="line"/>
      <point x="426.28" y="164.55999999999997" type="line"/>
      <point x="383.6" y="142.51"/>
      <point x="338.61" y="127.25999999999999"/>
      <point x="293.62999999999994" y="127.25999999999999" type="curve" smooth="yes"/>
      <point x="249.01999999999998" y="127.25999999999999"/>
      <point x="225.53" y="147.29999999999998"/>
      <point x="225.95" y="187.25000000000003" type="curve" smooth="yes"/>
      <point x="229.73000000000002" y="229.53"/>
      <point x="237.79999999999998" y="276.47999999999996"/>
      <point x="282.27" y="544.0" type="curve"/>
      <point x="103.32" y="544.0" type="line"/>
      <point x="48.599999999999994" y="203.22000000000003"/>
      <point x="40.28" y="156.82"/>
      <point x="40.28" y="126.3" type="curve" smooth="yes"/>
      <point x="40.28" y="42.68"/>
      <point x="98.22999999999999" y="-10.0"/>
    </contour>
  </outline>
</glyph>
<glyph name="v" format="2">
  <advance width="619.2299999999999"/>
  <unicode hex="0076"/>
  <outline>
    <contour>
      <point x="344.61" y="-0.16000000000000014" type="line"/>
      <point x="529.1299999999999" y="243.21"/>
      <point x="625.0699999999999" y="380.55"/>
      <point x="644.79" y="544.0" type="curve"/>
      <point x="456.54999999999995" y="544.0" type="line"/>
      <point x="448.72999999999996" y="436.66999999999996"/>
      <point x="396.80999999999995" y="332.73"/>
      <point x="275.09" y="140.54999999999998" type="curve"/>
      <point x="221.06999999999996" y="546.1" type="line"/>
      <point x="32.279999999999994" y="544.53" type="line"/>
      <point x="141.14999999999998" y="-0.16000000000000014" type="line"/>
    </contour>
  </outline>
</glyph>
<glyph name="w" format="2">
  <advance width="873.51"/>
  <unicode hex="0077"/>
  <note>
15
</note>
  <anchor x="393.03" y="0.0" name="bottom"/>
  <anchor x="462.75" y="544.0" name="top"/>
  <outline>
    <contour>
      <point x="665.89" y="0.0" type="line"/>
      <point x="806.91" y="244.77000000000004"/>
      <point x="888.2499999999999" y="408.73"/>
      <point x="889.07" y="544.0" type="curve"/>
      <point x="727.6400000000001" y="544.0" type="line"/>
      <point x="723.4399999999998" y="440.01"/>
      <point x="689.53" y="336.25000000000006"/>
      <point x="585.6099999999998" y="130.17999999999998" type="curve"/>
      <point x="569.87" y="538.89" type="line"/>
      <point x="373.19000000000005" y="538.89" type="line"/>
      <point x="324.64" y="383.39000000000004"/>
      <point x="274.47999999999996" y="265.96"/>
      <point x="220.32999999999998" y="131.32" type="curve"/>
      <point x="205.82" y="546.1" type="line"/>
      <point x="39.91" y="544.74" type="line"/>
      <point x="86.17" y="0.0" type="line"/>
      <point x="297.76000000000005" y="0.0" type="line"/>
      <point x="347.56999999999994" y="107.05"/>
      <point x="405.21999999999997" y="244.41"/>
      <point x="442.71000000000004" y="341.94" type="curve"/>
      <point x="470.39999999999986" y="0.0" type="line"/>
    </contour>
  </outline>
</glyph>
<glyph name="x" format="2">
  <advance width="638.2199999999999"/>
  <unicode hex="0078"/>
  <outline>
    <contour>
      <point x="477.52000000000004" y="544.0" type="line"/>
      <point x="454.3999999999999" y="466.29999999999995"/>
      <point x="429.66" y="424.04"/>
      <point x="348.81999999999994" y="351.34000000000003" type="curve"/>
      <point x="262.68" y="549.4400000000002" type="line"/>
      <point x="69.58" y="543.5600000000001" type="line"/>
      <point x="201.06000000000003" y="287.41999999999996" type="line"/>
      <point x="80.64" y="186.51999999999998"/>
      <point x="19.6" y="102.42000000000002"/>
      <point x="-13.800000000000002" y="0.0" type="curve"/>
      <point x="177.7" y="0.0" type="line"/>
      <point x="202.13999999999996" y="80.49999999999999"/>
      <point x="236.92" y="138.64"/>
      <point x="306.6" y="202.3" type="curve"/>
      <point x="396.52" y="-1.9600000000000002" type="line"/>
      <point x="590.9999999999999" y="1.6400000000000001" type="line"/>
      <point x="452.3399999999999" y="268.09999999999997" type="line"/>
      <point x="568.62" y="364.32"/>
      <point x="628.52" y="450.65999999999997"/>
      <point x="664.8399999999999" y="544.0" type="curve"/>
    </contour>
  </outline>
</glyph>
<glyph name="y" format="2">
  <advance width="625.0999999999999"/>
  <unicode hex="0079"/>
  <anchor x="363.79999999999995" y="-126.00000000000003" name="bottom"/>
  <anchor x="344.9" y="544.0" name="top"/>
  <outline>
    <contour>
      <point x="477.79999999999995" y="544.1" type="line"/>
      <point x="463.9" y="431.1"/>
      <point x="383.90000000000003" y="263.20000000000005"/>
      <point x="292.09999999999997" y="113.19999999999999" type="curve"/>
      <point x="207.89999999999998" y="547.0" type="line"/>
      <point x="33.1" y="545.0999999999999" type="line"/>
      <point x="153.60000000000002" y="-2.9000000000000004" type="line"/>
      <point x="217.39999999999998" y="-2.9000000000000004" type="line"/>
      <point x="167.80000000000004" y="-73.60000000000002"/>
      <point x="110.50000000000001" y="-141.7"/>
      <point x="50.30000000000001" y="-208.70000000000002" type="curve"/>
      <point x="230.79999999999998" y="-213.3" type="line"/>
      <point x="414.8" y="18.0"/>
      <point x="633.5" y="362.3"/>
      <point x="649.6999999999999" y="544.2" type="curve"/>
    </contour>
  </outline>
</glyph>
<glyph name="z" format="2">
  <advance width="632.99"/>
  <unicode hex="007A"/>
  <anchor x="283.56999999999994" y="0.0" name="bottom"/>
  <anchor x="318.64" y="275.0" name="center"/>
  <anchor x="360.61999999999995" y="544.0" name="top"/>
  <outline>
    <contour>
      <point x="3.0999999999999988" y="0.0" type="line"/>
      <point x="560.17" y="0.0" type="line"/>
      <point x="580.81" y="126.64999999999999" type="line"/>
      <point x="260.96" y="126.64999999999999" type="line"/>
      <point x="605.0799999999999" y="427.78999999999996" type="line"/>
      <point x="625.4399999999998" y="544.0" type="line"/>
      <point x="102.11" y="544.0" type="line"/>
      <point x="80.77000000000001" y="416.93" type="line"/>
      <point x="371.35999999999996" y="416.93" type="line"/>
      <point x="20.080000000000002" y="110.74999999999999" type="line"/>
    </contour>
  </outline>
</glyph>
<glyph name="braceleft" format="2">
  <advance width="408.44"/>
  <unicode hex="007B"/>
  <outline>
    <contour>
      <point x="51.7" y="-83.35000000000001" type="curve" smooth="yes"/>
      <point x="51.7" y="-169.8"/>
      <point x="111.12" y="-210.0"/>
      <point x="201.16" y="-210.0" type="curve" smooth="yes"/>
      <point x="299.65999999999997" y="-210.0" type="line"/>
      <point x="318.27" y="-95.5" type="line"/>
      <point x="266.39000000000004" y="-95.5" type="line" smooth="yes"/>
      <point x="224.22" y="-95.5"/>
      <point x="208.22999999999996" y="-75.15000000000002"/>
      <point x="208.22999999999996" y="-44.480000000000004" type="curve" smooth="yes"/>
      <point x="208.22999999999996" y="30.88"/>
      <point x="271.75" y="91.96000000000001"/>
      <point x="271.75" y="175.68" type="curve" smooth="yes"/>
      <point x="271.75" y="210.9"/>
      <point x="258.27" y="242.18"/>
      <point x="214.52" y="265.59999999999997" type="curve"/>
      <point x="278.96999999999997" y="293.67999999999995"/>
      <point x="311.05" y="349.04"/>
      <point x="311.05" y="420.6" type="curve" smooth="yes"/>
      <point x="311.05" y="458.25000000000006"/>
      <point x="300.09" y="483.12"/>
      <point x="300.09" y="527.5500000000001" type="curve" smooth="yes"/>
      <point x="300.09" y="574.5600000000001"/>
      <point x="319.84999999999997" y="625.5"/>
      <point x="382.45000000000005" y="625.5" type="curve" smooth="yes"/>
      <point x="433.55" y="625.5" type="line"/>
      <point x="451.74" y="740.0" type="line"/>
      <point x="353.69000000000005" y="740.0" type="line" smooth="yes"/>
      <point x="216.64999999999998" y="740.0"/>
      <point x="149.99999999999997" y="644.31"/>
      <point x="149.99999999999997" y="526.1099999999999" type="curve" smooth="yes"/>
      <point x="149.99999999999997" y="480.96000000000004"/>
      <point x="161.1" y="446.32"/>
      <point x="161.1" y="411.57" type="curve" smooth="yes"/>
      <point x="161.1" y="361.99999999999994"/>
      <point x="144.19" y="323.29"/>
      <point x="101.82000000000001" y="323.29" type="curve" smooth="yes"/>
      <point x="86.09" y="323.29" type="line"/>
      <point x="67.69000000000001" y="208.18" type="line"/>
      <point x="83.44999999999999" y="208.18" type="line" smooth="yes"/>
      <point x="112.77999999999997" y="208.18"/>
      <point x="123.35999999999999" y="193.04000000000002"/>
      <point x="123.35999999999999" y="169.3" type="curve" smooth="yes"/>
      <point x="123.35999999999999" y="95.69"/>
      <point x="51.7" y="17.7"/>
    </contour>
  </outline>
</glyph>
<glyph name="bar" format="2">
  <advance width="275.53999999999996"/>
  <unicode hex="007C"/>
  <outline>
    <contour>
      <point x="289.59999999999997" y="790.21" type="line"/>
      <point x="151.20000000000002" y="790.21" type="line"/>
      <point x="-9.27" y="-210.0" type="line"/>
      <point x="128.85" y="-210.0" type="line"/>
    </contour>
  </outline>
</glyph>
<glyph name="braceright" format="2">
  <advance width="408.44"/>
  <unicode hex="007D"/>
  <outline>
    <contour>
      <point x="353.53" y="613.35" type="curve" smooth="yes"/>
      <point x="353.53" y="700.01"/>
      <point x="293.90000000000003" y="740.21"/>
      <point x="203.85999999999999" y="740.21" type="curve" smooth="yes"/>
      <point x="105.36" y="740.21" type="line"/>
      <point x="86.75" y="625.71" type="line"/>
      <point x="136.53" y="625.71" type="line" smooth="yes"/>
      <point x="178.91" y="625.71"/>
      <point x="195.10999999999999" y="605.1500000000001"/>
      <point x="195.10999999999999" y="574.48" type="curve" smooth="yes"/>
      <point x="195.10999999999999" y="498.7"/>
      <point x="131.59" y="442.63"/>
      <point x="131.59" y="354.49999999999994" type="curve" smooth="yes"/>
      <point x="131.59" y="319.91"/>
      <point x="144.85999999999999" y="288.63"/>
      <point x="189.03" y="265.41999999999996" type="curve"/>
      <point x="124.57999999999998" y="237.13"/>
      <point x="92.28999999999999" y="182.19"/>
      <point x="92.28999999999999" y="110.42" type="curve" smooth="yes"/>
      <point x="92.28999999999999" y="72.77"/>
      <point x="103.25" y="47.09"/>
      <point x="103.25" y="3.0799999999999965" type="curve" smooth="yes"/>
      <point x="103.25" y="-43.93000000000001"/>
      <point x="83.7" y="-95.29"/>
      <point x="21.099999999999994" y="-95.29" type="curve" smooth="yes"/>
      <point x="-28.32" y="-95.29" type="line"/>
      <point x="-46.51" y="-210.0" type="line"/>
      <point x="51.32999999999999" y="-210.0" type="line" smooth="yes"/>
      <point x="188.37" y="-210.0"/>
      <point x="255.01999999999998" y="-111.58000000000001"/>
      <point x="255.01999999999998" y="-0.10000000000000142" type="curve" smooth="yes"/>
      <point x="255.01999999999998" y="50.72"/>
      <point x="243.92000000000002" y="87.01"/>
      <point x="243.92000000000002" y="120.28999999999999" type="curve" smooth="yes"/>
      <point x="243.92000000000002" y="169.44"/>
      <point x="261.25" y="207.73000000000002"/>
      <point x="303.2" y="207.73000000000002" type="curve" smooth="yes"/>
      <point x="318.93" y="207.73000000000002" type="line"/>
      <point x="337.33" y="322.62999999999994" type="line"/>
      <point x="321.57" y="322.62999999999994" type="line" smooth="yes"/>
      <point x="292.24" y="322.62999999999994"/>
      <point x="281.65999999999997" y="337.77"/>
      <point x="281.65999999999997" y="361.51000000000005" type="curve" smooth="yes"/>
      <point x="281.65999999999997" y="435.33"/>
      <point x="353.53" y="509.36000000000007"/>
    </contour>
  </outline>
</glyph>
<glyph name="asciitilde" format="2">
  <advance width="586.43"/>
  <unicode hex="007E"/>
  <outline>
    <contour>
      <point x="519.26" y="235.20000000000002" type="curve"/>
      <point x="540.1999999999999" y="376.19" type="line"/>
      <point x="509.71999999999997" y="350.40000000000003"/>
      <point x="474.78999999999996" y="336.67"/>
      <point x="432.40999999999997" y="336.67" type="curve" smooth="yes"/>
      <point x="322.5" y="336.67"/>
      <point x="265.49" y="422.6"/>
      <point x="183.5" y="422.6" type="curve" smooth="yes"/>
      <point x="130.7" y="422.6"/>
      <point x="94.88" y="397.71000000000004"/>
      <point x="80.59" y="386.75" type="curve"/>
      <point x="57.199999999999996" y="245.55" type="line"/>
      <point x="85.46000000000001" y="264.2"/>
      <point x="113.78999999999999" y="280.94000000000005"/>
      <point x="160.65" y="280.94000000000005" type="curve" smooth="yes"/>
      <point x="260.94" y="280.94000000000005"/>
      <point x="314.89" y="195.01"/>
      <point x="418.47" y="195.01" type="curve" smooth="yes"/>
      <point x="452.51" y="195.01"/>
      <point x="492.81" y="211.64000000000001"/>
    </contour>
  </outline>
</glyph>
<glyph name="cent" format="2">
  <advance width="842.3399999999999"/>
  <unicode hex="00A2"/>
  <outline>
    <contour>
      <point x="315.93" y="-104.72" type="line"/>
      <point x="443.40999999999997" y="-104.72" type="line"/>
      <point x="459.10999999999996" y="-7.619999999999999" type="line"/>
      <point x="534.9599999999999" y="-4.66"/>
      <point x="602.83" y="5.040000000000003"/>
      <point x="657.22" y="19.979999999999997" type="curve"/>
      <point x="655.9000000000001" y="150.57" type="line"/>
      <point x="584.5" y="137.73000000000002"/>
      <point x="528.68" y="129.92000000000002"/>
      <point x="478.1499999999999" y="129.92000000000002" type="curve" smooth="yes"/>
      <point x="379.26" y="129.92000000000002"/>
      <point x="330.03" y="166.3"/>
      <point x="330.03" y="232.39999999999998" type="curve" smooth="yes"/>
      <point x="330.03" y="342.67"/>
      <point x="410.03999999999996" y="411.24"/>
      <point x="515.66" y="411.24" type="curve" smooth="yes"/>
      <point x="574.26" y="411.24"/>
      <point x="615.24" y="403.41"/>
      <point x="684.03" y="387.44" type="curve"/>
      <point x="728.06" y="525.7700000000001" type="line"/>
      <point x="671.0" y="540.53"/>
      <point x="621.68" y="551.16"/>
      <point x="549.3100000000001" y="552.8600000000001" type="curve"/>
      <point x="565.59" y="648.79" type="line"/>
      <point x="438.10999999999996" y="648.79" type="line"/>
      <point x="419.94" y="540.4" type="line"/>
      <point x="247.88" y="503.88000000000005"/>
      <point x="144.99" y="366.73"/>
      <point x="144.99" y="192.0" type="curve" smooth="yes"/>
      <point x="144.99" y="75.46999999999998"/>
      <point x="212.85999999999999" y="15.409999999999998"/>
      <point x="332.52" y="-1.2300000000000004" type="curve"/>
    </contour>
  </outline>
</glyph>
<glyph name="sterling" format="2">
  <advance width="842.6999999999999"/>
  <unicode hex="00A3"/>
  <outline>
    <contour>
      <point x="84.82000000000001" y="0.0" type="line"/>
      <point x="685.32" y="0.0" type="line"/>
      <point x="706.32" y="133.0" type="line"/>
      <point x="314.12" y="133.0" type="line"/>
      <point x="370.24" y="176.44"/>
      <point x="403.62" y="220.38"/>
      <point x="403.62" y="285.0" type="curve" smooth="yes"/>
      <point x="403.62" y="330.78"/>
      <point x="369.56" y="393.6"/>
      <point x="369.56" y="447.64" type="curve" smooth="yes"/>
      <point x="369.56" y="529.18"/>
      <point x="439.41999999999996" y="569.2"/>
      <point x="540.88" y="569.2" type="curve" smooth="yes"/>
      <point x="612.0999999999999" y="569.2"/>
      <point x="669.54" y="561.4799999999999"/>
      <point x="736.64" y="539.2800000000001" type="curve"/>
      <point x="781.42" y="669.7800000000001" type="line"/>
      <point x="702.3399999999999" y="697.5999999999998"/>
      <point x="635.28" y="710.0"/>
      <point x="540.3399999999999" y="710.0" type="curve" smooth="yes"/>
      <point x="379.76" y="710.0"/>
      <point x="198.47999999999996" y="638.7600000000001"/>
      <point x="198.47999999999996" y="474.85999999999996" type="curve" smooth="yes"/>
      <point x="198.47999999999996" y="399.04"/>
      <point x="237.10000000000005" y="340.06"/>
      <point x="237.10000000000005" y="280.47999999999996" type="curve" smooth="yes"/>
      <point x="237.10000000000005" y="209.67999999999998"/>
      <point x="186.20000000000002" y="161.62"/>
      <point x="101.47999999999999" y="108.49999999999999" type="curve"/>
    </contour>
    <contour>
      <point x="117.64" y="305.74" type="line"/>
      <point x="626.86" y="306.04" type="line"/>
      <point x="642.2799999999999" y="402.94" type="line"/>
      <point x="132.48" y="402.94" type="line"/>
    </contour>
  </outline>
</glyph>
<glyph name="currency" format="2">
  <advance width="486.11"/>
  <unicode hex="00A4"/>
  <outline>
    <contour>
      <point x="100.44999999999999" y="93.19" type="line"/>
      <point x="177.51" y="165.32" type="line"/>
      <point x="189.89" y="157.92"/>
      <point x="205.44" y="154.13"/>
      <point x="222.90999999999997" y="154.13" type="curve" smooth="yes"/>
      <point x="240.73" y="154.13"/>
      <point x="257.97" y="158.13"/>
      <point x="273.71" y="165.6" type="curve"/>
      <point x="329.08" y="93.19" type="line"/>
      <point x="419.49" y="177.96" type="line"/>
      <point x="372.5" y="240.22" type="line"/>
      <point x="388.51" y="265.49"/>
      <point x="398.67" y="295.41"/>
      <point x="399.09000000000003" y="328.61" type="curve" smooth="yes"/>
      <point x="399.51" y="342.53000000000003"/>
      <point x="397.22" y="356.18"/>
      <point x="393.22" y="368.02" type="curve"/>
      <point x="459.36" y="430.28" type="line"/>
      <point x="396.70000000000005" y="515.05" type="line"/>
      <point x="318.86999999999995" y="443.27" type="line"/>
      <point x="305.63" y="450.95"/>
      <point x="289.16999999999996" y="455.25"/>
      <point x="270.65" y="455.25" type="curve" smooth="yes"/>
      <point x="252.96999999999997" y="455.25"/>
      <point x="236.01" y="450.74"/>
      <point x="220.82999999999998" y="443.55" type="curve"/>
      <point x="167.57999999999998" y="515.05" type="line"/>
      <point x="76.92999999999999" y="430.28" type="line"/>
      <point x="121.62" y="369.51" type="line"/>
      <point x="104.84" y="344.98999999999995"/>
      <point x="95.19" y="314.81"/>
      <point x="94.76999999999998" y="282.45" type="curve" smooth="yes"/>
      <point x="94.35" y="266.55"/>
      <point x="96.43" y="251.34"/>
      <point x="100.92" y="238.52" type="curve"/>
      <point x="36.56999999999999" y="177.96" type="line"/>
    </contour>
    <contour>
      <point x="237.89999999999998" y="247.98" type="curve" smooth="yes"/>
      <point x="211.48999999999998" y="247.98"/>
      <point x="194.03999999999996" y="267.46999999999997"/>
      <point x="194.67000000000002" y="295.32" type="curve" smooth="yes"/>
      <point x="195.3" y="331.55"/>
      <point x="224.22" y="361.19"/>
      <point x="255.68" y="361.19" type="curve" smooth="yes"/>
      <point x="282.67" y="361.19"/>
      <point x="299.82" y="340.29999999999995"/>
      <point x="299.19" y="313.48" type="curve" smooth="yes"/>
      <point x="298.56" y="275.45"/>
      <point x="268.89" y="247.98"/>
    </contour>
  </outline>
</glyph>
<glyph name="yen" format="2">
  <advance width="855.0999999999999"/>
  <unicode hex="00A5"/>
  <outline>
    <contour>
      <point x="138.3" y="308.2" type="line"/>
      <point x="342.4" y="308.2" type="line"/>
      <point x="333.79999999999995" y="254.7" type="line"/>
      <point x="129.79999999999998" y="254.7" type="line"/>
      <point x="117.29999999999998" y="173.89999999999998" type="line"/>
      <point x="321.2999999999999" y="173.89999999999998" type="line"/>
      <point x="293.59999999999997" y="0.0" type="line"/>
      <point x="473.99999999999994" y="0.0" type="line"/>
      <point x="502.1999999999999" y="173.89999999999998" type="line"/>
      <point x="711.0" y="173.89999999999998" type="line"/>
      <point x="723.1999999999999" y="254.7" type="line"/>
      <point x="514.1999999999999" y="254.7" type="line"/>
      <point x="522.8" y="308.2" type="line"/>
      <point x="731.9999999999999" y="308.2" type="line"/>
      <point x="744.5" y="388.6" type="line"/>
      <point x="535.5999999999999" y="388.6" type="line"/>
      <point x="833.9999999999999" y="697.9000000000001" type="line"/>
      <point x="651.5000000000001" y="702.4" type="line"/>
      <point x="460.99999999999994" y="485.69999999999993" type="line"/>
      <point x="335.7999999999999" y="702.2" type="line"/>
      <point x="152.8" y="697.9000000000001" type="line"/>
      <point x="355.09999999999997" y="388.6" type="line"/>
      <point x="151.60000000000002" y="388.6" type="line"/>
    </contour>
  </outline>
</glyph>
<glyph name="brokenbar" format="2">
  <advance width="276.68"/>
  <unicode hex="00A6"/>
  <outline>
    <contour>
      <point x="225.95" y="391.0" type="line"/>
      <point x="290.86" y="790.21" type="line"/>
      <point x="152.46" y="790.21" type="line"/>
      <point x="87.55" y="391.0" type="line"/>
    </contour>
    <contour>
      <point x="55.43000000000001" y="190.20999999999998" type="line"/>
      <point x="-9.180000000000007" y="-210.0" type="line"/>
      <point x="128.73" y="-210.0" type="line"/>
      <point x="193.54999999999998" y="190.20999999999998" type="line"/>
    </contour>
  </outline>
</glyph>
<glyph name="section" format="2">
  <advance width="601.33"/>
  <unicode hex="00A7"/>
  <outline>
    <contour>
      <point x="24.559999999999995" y="-30.96000000000001" type="curve"/>
      <point x="-33.41" y="-176.81" type="line"/>
      <point x="27.769999999999996" y="-203.24"/>
      <point x="96.55999999999999" y="-220.0"/>
      <point x="162.25" y="-220.0" type="curve" smooth="yes"/>
      <point x="375.0" y="-220.0"/>
      <point x="544.91" y="-73.76999999999998"/>
      <point x="544.91" y="148.32999999999998" type="curve" smooth="yes"/>
      <point x="544.91" y="312.81"/>
      <point x="426.02" y="409.34999999999997"/>
      <point x="426.02" y="508.72" type="curve" smooth="yes"/>
      <point x="426.02" y="561.38"/>
      <point x="456.72" y="589.84"/>
      <point x="501.77000000000004" y="589.84" type="curve" smooth="yes"/>
      <point x="520.8399999999999" y="589.84"/>
      <point x="536.78" y="584.3100000000001"/>
      <point x="554.74" y="577.25" type="curve"/>
      <point x="601.95" y="730.53" type="line"/>
      <point x="556.04" y="742.89"/>
      <point x="497.27" y="749.71"/>
      <point x="446.10999999999996" y="749.71" type="curve" smooth="yes"/>
      <point x="221.95999999999998" y="749.71"/>
      <point x="61.88999999999999" y="602.33"/>
      <point x="61.88999999999999" y="394.35" type="curve" smooth="yes"/>
      <point x="61.88999999999999" y="213.3"/>
      <point x="182.84" y="107.32"/>
      <point x="182.84" y="7.87999999999999" type="curve" smooth="yes"/>
      <point x="182.84" y="-32.760000000000005"/>
      <point x="158.2" y="-61.970000000000006"/>
      <point x="118.96999999999998" y="-61.970000000000006" type="curve" smooth="yes"/>
      <point x="89.07999999999998" y="-61.970000000000006"/>
      <point x="56.980000000000004" y="-49.10000000000001"/>
    </contour>
    <contour>
      <point x="384.12" y="648.92" type="curve"/>
      <point x="316.89" y="614.7099999999999"/>
      <point x="294.14" y="553.03"/>
      <point x="294.14" y="489.53000000000003" type="curve" smooth="yes"/>
      <point x="294.14" y="366.71000000000004"/>
      <point x="404.61999999999995" y="232.25"/>
      <point x="404.61999999999995" y="108.87999999999998" type="curve" smooth="yes"/>
      <point x="404.61999999999995" y="-21.160000000000004"/>
      <point x="314.96999999999997" y="-132.24"/>
      <point x="185.82999999999998" y="-132.61" type="curve"/>
      <point x="268.49" y="-109.45"/>
      <point x="315.92999999999995" y="-35.980000000000004"/>
      <point x="315.92999999999995" y="39.73999999999999" type="curve" smooth="yes"/>
      <point x="315.92999999999995" y="155.32"/>
      <point x="207.12" y="283.15"/>
      <point x="207.12" y="414.05" type="curve" smooth="yes"/>
      <point x="207.12" y="532.94"/>
      <point x="266.04" y="629.9499999999999"/>
    </contour>
  </outline>
</glyph>
<glyph name="copyright" format="2">
  <advance width="838.8299999999999"/>
  <unicode hex="00A9"/>
  <outline>
    <contour>
      <point x="403.5599999999999" y="-10.200000000000001" type="curve" smooth="yes"/>
      <point x="657.94" y="-11.879999999999999"/>
      <point x="798.09" y="140.24000000000004"/>
      <point x="798.09" y="380.27" type="curve" smooth="yes"/>
      <point x="798.09" y="579.4200000000001"/>
      <point x="678.64" y="707.89"/>
      <point x="459.59000000000003" y="709.57" type="curve" smooth="yes"/>
      <point x="208.60000000000002" y="711.2499999999999"/>
      <point x="64.52999999999999" y="562.67"/>
      <point x="64.52999999999999" y="319.3" type="curve" smooth="yes"/>
      <point x="64.52999999999999" y="121.19000000000001"/>
      <point x="182.69999999999996" y="-8.52"/>
    </contour>
    <contour>
      <point x="419.59" y="159.56" type="curve" smooth="yes"/>
      <point x="479.4599999999999" y="159.56"/>
      <point x="534.7699999999999" y="171.98000000000002"/>
      <point x="575.9599999999999" y="187.87" type="curve"/>
      <point x="567.78" y="268.03000000000003" type="line"/>
      <point x="527.37" y="256.90999999999997"/>
      <point x="484.86000000000007" y="249.47"/>
      <point x="446.96" y="249.47" type="curve" smooth="yes"/>
      <point x="385.75" y="249.47"/>
      <point x="352.58" y="276.38"/>
      <point x="352.58" y="325.66" type="curve" smooth="yes"/>
      <point x="352.58" y="399.33000000000004"/>
      <point x="394.96" y="448.57"/>
      <point x="472.59000000000003" y="448.57" type="curve" smooth="yes"/>
      <point x="512.29" y="448.57"/>
      <point x="545.55" y="444.61"/>
      <point x="584.5799999999999" y="436.05" type="curve"/>
      <point x="607.8800000000001" y="523.9300000000001" type="line"/>
      <point x="571.2199999999999" y="534.59"/>
      <point x="526.5" y="541.4900000000001"/>
      <point x="475.36" y="541.4900000000001" type="curve" smooth="yes"/>
      <point x="339.09000000000003" y="541.4900000000001"/>
      <point x="242.23999999999995" y="462.6"/>
      <point x="242.23999999999995" y="319.74" type="curve" smooth="yes"/>
      <point x="242.23999999999995" y="216.29000000000002"/>
      <point x="309.89000000000004" y="159.56"/>
    </contour>
    <contour>
      <point x="412.42999999999995" y="55.279999999999994" type="curve" smooth="yes"/>
      <point x="227.45" y="55.279999999999994"/>
      <point x="138.41" y="153.99999999999997"/>
      <point x="138.41" y="325.6" type="curve" smooth="yes"/>
      <point x="138.41" y="521.28"/>
      <point x="239.24" y="644.5100000000001"/>
      <point x="451.15" y="644.5100000000001" type="curve" smooth="yes"/>
      <point x="630.23" y="644.5100000000001"/>
      <point x="724.2099999999999" y="545.37"/>
      <point x="724.2099999999999" y="373.95000000000005" type="curve" smooth="yes"/>
      <point x="724.2099999999999" y="178.67000000000004"/>
      <point x="623.94" y="55.279999999999994"/>
    </contour>
  </outline>
</glyph>
<glyph name="ordfeminine" format="2">
  <advance width="480.56"/>
  <unicode hex="00AA"/>
  <outline>
    <contour>
      <point x="32.230000000000004" y="218.84" type="line"/>
      <point x="423.69999999999993" y="218.84" type="line"/>
      <point x="437.61999999999995" y="308.27000000000004" type="line"/>
      <point x="46.15" y="308.27000000000004" type="line"/>
    </contour>
    <component base="a.superior" xOffset="10.28"/>
  </outline>
</glyph>
<glyph name="logicalnot" format="2">
  <advance width="582.6"/>
  <unicode hex="00AC"/>
  <outline>
    <contour>
      <point x="61.54" y="315.44" type="line"/>
      <point x="400.70000000000005" y="315.44" type="line"/>
      <point x="377.64" y="165.17000000000002" type="line"/>
      <point x="509.61999999999995" y="165.17000000000002" type="line"/>
      <point x="555.49" y="452.79" type="line"/>
      <point x="84.35000000000001" y="452.79" type="line"/>
    </contour>
  </outline>
</glyph>
<glyph name="registered" format="2">
  <advance width="757.8800000000001"/>
  <unicode hex="00AE"/>
  <outline>
    <contour>
      <point x="384.29" y="209.32" type="curve" smooth="yes"/>
      <point x="615.4099999999999" y="209.32"/>
      <point x="751.8299999999999" y="364.63"/>
      <point x="751.8299999999999" y="599.13" type="curve" smooth="yes"/>
      <point x="751.8299999999999" y="777.26"/>
      <point x="647.6899999999999" y="892.7600000000001"/>
      <point x="460.15999999999997" y="892.7600000000001" type="curve" smooth="yes"/>
      <point x="229.04" y="892.7600000000001"/>
      <point x="94.03999999999999" y="736.9499999999999"/>
      <point x="94.03999999999999" y="502.95000000000005" type="curve" smooth="yes"/>
      <point x="94.03999999999999" y="325.24000000000007"/>
      <point x="196.34000000000003" y="209.32"/>
    </contour>
    <contour>
      <point x="391.56999999999994" y="272.59" type="curve" smooth="yes"/>
      <point x="239.19" y="272.59"/>
      <point x="160.76999999999998" y="366.42"/>
      <point x="160.76999999999998" y="503.1" type="curve" smooth="yes"/>
      <point x="160.76999999999998" y="709.35"/>
      <point x="268.73" y="829.4100000000001"/>
      <point x="453.3" y="829.4100000000001" type="curve" smooth="yes"/>
      <point x="605.68" y="829.4100000000001"/>
      <point x="685.1000000000001" y="735.66"/>
      <point x="685.1000000000001" y="598.48" type="curve" smooth="yes"/>
      <point x="685.1000000000001" y="392.23"/>
      <point x="575.72" y="272.59"/>
    </contour>
    <contour>
      <point x="246.15999999999997" y="389.44999999999993" type="line"/>
      <point x="339.79999999999995" y="389.44999999999993" type="line"/>
      <point x="357.25999999999993" y="497.34000000000003" type="line"/>
      <point x="372.7799999999999" y="496.96"/>
      <point x="389.1600000000001" y="496.16"/>
      <point x="409.46000000000004" y="496.66999999999996" type="curve"/>
      <point x="480.17" y="518.5999999999999" type="line"/>
      <point x="547.91" y="519.87"/>
      <point x="601.5699999999998" y="551.86"/>
      <point x="601.5699999999998" y="635.66" type="curve" smooth="yes"/>
      <point x="601.5699999999998" y="695.9099999999999"/>
      <point x="558.6099999999999" y="723.72"/>
      <point x="446.53000000000003" y="723.72" type="curve" smooth="yes"/>
      <point x="415.4" y="723.72"/>
      <point x="367.2" y="722.73"/>
      <point x="298.73" y="718.25" type="curve"/>
    </contour>
    <contour>
      <point x="413.46" y="559.9499999999999" type="curve" smooth="yes"/>
      <point x="400.88999999999993" y="559.9499999999999"/>
      <point x="390.8999999999999" y="560.74"/>
      <point x="367.60999999999996" y="561.0400000000001" type="curve"/>
      <point x="381.19" y="649.78" type="line"/>
      <point x="412.38999999999993" y="651.11"/>
      <point x="418.40999999999997" y="651.61"/>
      <point x="442.85" y="651.61" type="curve" smooth="yes"/>
      <point x="489.87999999999994" y="651.61"/>
      <point x="505.04999999999995" y="643.06"/>
      <point x="505.04999999999995" y="620.86" type="curve" smooth="yes"/>
      <point x="505.04999999999995" y="580.1999999999999"/>
      <point x="488.46999999999997" y="559.9499999999999"/>
    </contour>
    <contour>
      <point x="562.4799999999999" y="385.36" type="curve" smooth="yes"/>
      <point x="565.3100000000001" y="385.36"/>
      <point x="571.6700000000001" y="385.78"/>
      <point x="575.85" y="386.90999999999997" type="curve"/>
      <point x="588.2799999999999" y="473.43" type="line"/>
      <point x="585.6599999999999" y="473.35"/>
      <point x="583.3799999999999" y="473.35"/>
      <point x="581.19" y="473.35" type="curve" smooth="yes"/>
      <point x="562.83" y="473.35"/>
      <point x="523.3499999999999" y="496.07"/>
      <point x="495.6499999999999" y="533.17" type="curve"/>
      <point x="390.11" y="507.16" type="line"/>
      <point x="447.0899999999999" y="429.88"/>
      <point x="500.6799999999999" y="385.36"/>
    </contour>
  </outline>
</glyph>
<glyph name="degree" format="2">
  <advance width="366.45000000000005"/>
  <unicode hex="00B0"/>
  <outline>
    <contour>
      <point x="205.10000000000002" y="386.02" type="curve" smooth="yes"/>
      <point x="307.64" y="386.02"/>
      <point x="377.56" y="475.81"/>
      <point x="377.56" y="584.13" type="curve" smooth="yes"/>
      <point x="377.56" y="653.14"/>
      <point x="341.2" y="714.42"/>
      <point x="248.45999999999998" y="714.42" type="curve" smooth="yes"/>
      <point x="146.36999999999998" y="714.42"/>
      <point x="76.21" y="623.94"/>
      <point x="76.21" y="516.0400000000001" type="curve" smooth="yes"/>
      <point x="76.21" y="446.78999999999996"/>
      <point x="113.11" y="386.02"/>
    </contour>
    <contour>
      <point x="218.45999999999998" y="494.08000000000004" type="curve" smooth="yes"/>
      <point x="194.54999999999998" y="494.08000000000004"/>
      <point x="181.42999999999998" y="511.36"/>
      <point x="181.42999999999998" y="535.8199999999999" type="curve" smooth="yes"/>
      <point x="181.42999999999998" y="573.8299999999999"/>
      <point x="203.51000000000002" y="605.52"/>
      <point x="235.1" y="605.52" type="curve" smooth="yes"/>
      <point x="259.63999999999993" y="605.52"/>
      <point x="272.34000000000003" y="588.0600000000001"/>
      <point x="272.34000000000003" y="563.3900000000001" type="curve" smooth="yes"/>
      <point x="272.34000000000003" y="526.34"/>
      <point x="249.62999999999997" y="494.08000000000004"/>
    </contour>
  </outline>
</glyph>
<glyph name="plusminus" format="2">
  <advance width="583.76"/>
  <unicode hex="00B1"/>
  <outline>
    <contour>
      <point x="486.92999999999995" y="21.710000000000004" type="line"/>
      <point x="509.74" y="161.25" type="line"/>
      <point x="347.48999999999995" y="161.25" type="line"/>
      <point x="368.24" y="291.71999999999997" type="line"/>
      <point x="530.4" y="291.71999999999997" type="line"/>
      <point x="553.2099999999999" y="431.26000000000005" type="line"/>
      <point x="391.04999999999995" y="431.26000000000005" type="line"/>
      <point x="413.69" y="572.7" type="line"/>
      <point x="265.75" y="572.7" type="line"/>
      <point x="242.22" y="431.26000000000005" type="line"/>
      <point x="81.35" y="431.26000000000005" type="line"/>
      <point x="58.53999999999999" y="291.71999999999997" type="line"/>
      <point x="220.29999999999998" y="291.71999999999997" type="line"/>
      <point x="198.57" y="161.25" type="line"/>
      <point x="37.879999999999995" y="161.25" type="line"/>
      <point x="15.069999999999997" y="21.710000000000004" type="line"/>
    </contour>
  </outline>
</glyph>
<glyph name="uni00B2" format="2">
  <advance width="492.0499999999999"/>
  <unicode hex="00B2"/>
  <outline>
    <contour>
      <point x="60.099999999999994" y="369.63" type="line"/>
      <point x="463.76000000000005" y="369.63" type="line"/>
      <point x="477.2799999999999" y="448.08" type="line"/>
      <point x="269.46" y="448.08" type="line"/>
      <point x="370.72999999999996" y="507.41999999999996"/>
      <point x="461.16" y="570.6600000000001"/>
      <point x="461.16" y="663.97" type="curve" smooth="yes"/>
      <point x="461.16" y="740.13"/>
      <point x="386.04" y="772.6800000000001"/>
      <point x="303.47999999999996" y="772.6800000000001" type="curve" smooth="yes"/>
      <point x="244.3" y="772.6800000000001"/>
      <point x="164.29" y="754.39"/>
      <point x="115.39999999999999" y="729.12" type="curve"/>
      <point x="138.56" y="646.36" type="line"/>
      <point x="180.51000000000002" y="667.38"/>
      <point x="221.50999999999996" y="678.63"/>
      <point x="257.4" y="678.63" type="curve" smooth="yes"/>
      <point x="295.72999999999996" y="678.63"/>
      <point x="321.03999999999996" y="661.91"/>
      <point x="321.03999999999996" y="631.4300000000001" type="curve" smooth="yes"/>
      <point x="320.75" y="562.85"/>
      <point x="229.35999999999996" y="502.25"/>
      <point x="69.41" y="433.47" type="curve"/>
    </contour>
  </outline>
</glyph>
<glyph name="uni00B3" format="2">
  <advance width="487.95"/>
  <unicode hex="00B3"/>
  <outline>
    <contour>
      <point x="44.949999999999996" y="398.2" type="line"/>
      <point x="97.7" y="372.90000000000003"/>
      <point x="168.75" y="363.3"/>
      <point x="242.14999999999998" y="363.3" type="curve" smooth="yes"/>
      <point x="370.15" y="363.3"/>
      <point x="485.79999999999995" y="397.44999999999993"/>
      <point x="485.79999999999995" y="496.6" type="curve" smooth="yes"/>
      <point x="485.79999999999995" y="536.0"/>
      <point x="459.29999999999995" y="565.75"/>
      <point x="412.84999999999997" y="577.9000000000001" type="curve"/>
      <point x="463.0" y="592.95"/>
      <point x="499.8999999999999" y="624.5999999999999"/>
      <point x="499.8999999999999" y="674.9" type="curve" smooth="yes"/>
      <point x="499.8999999999999" y="734.5999999999999"/>
      <point x="428.05" y="773.1"/>
      <point x="300.7" y="773.1" type="curve" smooth="yes"/>
      <point x="234.65" y="773.1"/>
      <point x="158.9" y="761.9499999999999"/>
      <point x="117.8" y="746.95" type="curve"/>
      <point x="123.1" y="668.95" type="line"/>
      <point x="170.3" y="680.15"/>
      <point x="228.44999999999996" y="686.0500000000001"/>
      <point x="273.3" y="686.0500000000001" type="curve" smooth="yes"/>
      <point x="337.59999999999997" y="686.0500000000001"/>
      <point x="376.84999999999997" y="672.85"/>
      <point x="376.84999999999997" y="648.7" type="curve" smooth="yes"/>
      <point x="376.84999999999997" y="620.5000000000001"/>
      <point x="341.34999999999997" y="606.45"/>
      <point x="272.74999999999994" y="606.45" type="curve" smooth="yes"/>
      <point x="179.5" y="606.45" type="line"/>
      <point x="167.00000000000003" y="536.0" type="line"/>
      <point x="249.29999999999995" y="536.0" type="line" smooth="yes"/>
      <point x="339.35" y="536.0"/>
      <point x="365.9" y="520.55"/>
      <point x="365.9" y="494.3" type="curve" smooth="yes"/>
      <point x="365.9" y="462.2"/>
      <point x="319.59999999999997" y="445.8"/>
      <point x="238.19999999999996" y="445.8" type="curve" smooth="yes"/>
      <point x="176.7" y="445.8"/>
      <point x="119.8" y="456.8"/>
      <point x="81.3" y="473.45000000000005" type="curve"/>
    </contour>
  </outline>
</glyph>
<glyph name="uni00B5" format="2">
  <advance width="697.17"/>
  <unicode hex="00B5"/>
  <outline>
    <contour>
      <point x="-13.23" y="-210.0" type="line"/>
      <point x="164.64999999999998" y="-210.0" type="line"/>
      <point x="200.64999999999998" y="15.04" type="line"/>
      <point x="210.14" y="-0.5999999999999979"/>
      <point x="228.7" y="-10.0"/>
      <point x="256.43999999999994" y="-10.0" type="curve" smooth="yes"/>
      <point x="314.38" y="-10.0"/>
      <point x="374.4" y="14.28"/>
      <point x="434.19999999999993" y="60.949999999999996" type="curve"/>
      <point x="449.03000000000003" y="18.95"/>
      <point x="489.77" y="-10.0"/>
      <point x="546.01" y="-10.0" type="curve" smooth="yes"/>
      <point x="581.73" y="-10.0"/>
      <point x="623.67" y="0.9299999999999988"/>
      <point x="653.5199999999999" y="21.28" type="curve"/>
      <point x="656.0799999999999" y="131.6" type="line"/>
      <point x="645.06" y="127.92999999999999"/>
      <point x="636.63" y="127.02999999999999"/>
      <point x="632.64" y="127.02999999999999" type="curve" smooth="yes"/>
      <point x="616.76" y="127.02999999999999"/>
      <point x="606.46" y="135.91"/>
      <point x="606.46" y="159.72" type="curve" smooth="yes"/>
      <point x="606.46" y="166.66"/>
      <point x="607.64" y="180.44999999999996"/>
      <point x="666.68" y="544.0" type="curve"/>
      <point x="487.7299999999999" y="544.0" type="line"/>
      <point x="428.65" y="164.55999999999997" type="line"/>
      <point x="385.96999999999997" y="142.51"/>
      <point x="340.26" y="127.25999999999999"/>
      <point x="295.82" y="127.25999999999999" type="curve" smooth="yes"/>
      <point x="251.20999999999998" y="127.25999999999999"/>
      <point x="227.81" y="146.84999999999997"/>
      <point x="228.23" y="186.8" type="curve" smooth="yes"/>
      <point x="233.06000000000003" y="229.44"/>
      <point x="242.06" y="288.72"/>
      <point x="284.64" y="544.0" type="curve"/>
      <point x="105.69000000000001" y="544.0" type="line"/>
    </contour>
  </outline>
</glyph>
<glyph name="paragraph" format="2">
  <advance width="708.91"/>
  <unicode hex="00B6"/>
  <outline>
    <contour>
      <point x="427.74" y="-210.0" type="line"/>
      <point x="560.6099999999999" y="-210.0" type="line"/>
      <point x="711.7299999999999" y="740.0" type="line"/>
      <point x="578.86" y="740.0" type="line"/>
    </contour>
    <contour>
      <point x="282.15000000000003" y="304.69" type="line"/>
      <point x="242.59" y="312.32"/>
      <point x="215.39" y="348.23"/>
      <point x="215.39" y="404.63" type="curve" smooth="yes"/>
      <point x="215.39" y="496.89"/>
      <point x="256.09" y="599.1700000000001"/>
      <point x="362.57" y="600.7600000000001" type="curve"/>
      <point x="234.19000000000003" y="-210.0" type="line"/>
      <point x="367.05999999999995" y="-210.0" type="line"/>
      <point x="518.18" y="740.0" type="line"/>
      <point x="423.68" y="740.0" type="line" smooth="yes"/>
      <point x="195.6" y="740.0"/>
      <point x="71.03999999999999" y="617.41"/>
      <point x="71.03999999999999" y="403.37000000000006" type="curve" smooth="yes"/>
      <point x="71.03999999999999" y="289.18"/>
      <point x="133.04000000000002" y="219.09000000000003"/>
      <point x="251.6" y="205.02999999999997" type="curve"/>
    </contour>
  </outline>
</glyph>
<glyph name="periodcentered" format="2">
  <advance width="281.82"/>
  <unicode hex="00B7"/>
  <outline>
    <contour>
      <point x="47.31999999999999" y="291.1" type="curve" smooth="yes"/>
      <point x="46.720000000000006" y="247.07999999999998"/>
      <point x="73.39999999999999" y="224.07999999999998"/>
      <point x="132.0" y="224.07999999999998" type="curve" smooth="yes"/>
      <point x="204.68" y="224.07999999999998"/>
      <point x="243.97999999999996" y="264.65999999999997"/>
      <point x="244.57999999999998" y="328.85999999999996" type="curve" smooth="yes"/>
      <point x="245.17999999999998" y="373.5"/>
      <point x="218.2" y="396.49999999999994"/>
      <point x="160.29999999999998" y="396.49999999999994" type="curve" smooth="yes"/>
      <point x="88.92" y="396.49999999999994"/>
      <point x="47.92000000000001" y="353.28"/>
    </contour>
  </outline>
</glyph>
<glyph name="uni00B9" format="2">
  <advance width="443.97999999999996"/>
  <unicode hex="00B9"/>
  <outline>
    <contour>
      <point x="56.989999999999995" y="370.0" type="line"/>
      <point x="435.02" y="370.0" type="line"/>
      <point x="448.99" y="450.35" type="line"/>
      <point x="334.22999999999996" y="450.35" type="line"/>
      <point x="385.84999999999997" y="766.22" type="line"/>
      <point x="314.23" y="766.22" type="line"/>
      <point x="93.89" y="684.7599999999999" type="line"/>
      <point x="105.81" y="594.88" type="line"/>
      <point x="235.95999999999995" y="644.8199999999999" type="line"/>
      <point x="203.06" y="450.35" type="line"/>
      <point x="70.41999999999999" y="450.35" type="line"/>
    </contour>
  </outline>
</glyph>
<glyph name="ordmasculine" format="2">
  <advance width="455.72"/>
  <unicode hex="00BA"/>
  <outline>
    <contour>
      <point x="30.78" y="218.84" type="line"/>
      <point x="406.31" y="218.84" type="line"/>
      <point x="420.13999999999993" y="308.27000000000004" type="line"/>
      <point x="44.61" y="308.27000000000004" type="line"/>
    </contour>
    <component base="o.superior" xOffset="8.899999999999999"/>
  </outline>
</glyph>
<glyph name="AE" format="2">
  <advance width="1192.4999999999998"/>
  <unicode hex="00C6"/>
  <anchor x="566.79328" y="0.0" name="bottom"/>
  <anchor x="715.2600000000001" y="700.0" name="top"/>
  <outline>
    <contour>
      <point x="482.25999999999993" y="0.0" type="line"/>
      <point x="1112.7199999999998" y="0.0" type="line"/>
      <point x="1136.34" y="144.76" type="line"/>
      <point x="680.18" y="144.76" type="line"/>
      <point x="702.86" y="287.46" type="line"/>
      <point x="1108.74" y="287.46" type="line"/>
      <point x="1131.2399999999998" y="422.82000000000005" type="line"/>
      <point x="724.9399999999999" y="422.82000000000005" type="line"/>
      <point x="745.8199999999999" y="554.64" type="line"/>
      <point x="1180.1599999999999" y="554.64" type="line"/>
      <point x="1204.3200000000002" y="700.0" type="line"/>
      <point x="485.35999999999996" y="700.0" type="line"/>
      <point x="-42.50000000000001" y="0.0" type="line"/>
      <point x="164.54" y="0.0" type="line"/>
      <point x="311.15999999999997" y="195.39999999999998" type="line"/>
      <point x="512.98" y="195.39999999999998" type="line"/>
    </contour>
    <contour>
      <point x="397.88" y="324.68000000000006" type="line"/>
      <point x="573.26" y="578.4799999999999" type="line"/>
      <point x="532.8399999999999" y="324.68000000000006" type="line"/>
    </contour>
  </outline>
</glyph>
<glyph name="multiply" format="2">
  <advance width="524.3"/>
  <unicode hex="00D7"/>
  <outline>
    <contour>
      <point x="109.59" y="91.0" type="line"/>
      <point x="255.56000000000003" y="222.18" type="line"/>
      <point x="362.46999999999997" y="85.02000000000001" type="line"/>
      <point x="462.09000000000003" y="190.65" type="line"/>
      <point x="366.04999999999995" y="313.84000000000003" type="line"/>
      <point x="503.98" y="439.29999999999995" type="line"/>
      <point x="428.45" y="539.7499999999999" type="line"/>
      <point x="282.95" y="408.01" type="line"/>
      <point x="173.66" y="544.9099999999999" type="line"/>
      <point x="75.21" y="443.75" type="line"/>
      <point x="173.88" y="316.18" type="line"/>
      <point x="33.51" y="188.99999999999997" type="line"/>
    </contour>
  </outline>
</glyph>
<glyph name="Oslash" format="2">
  <advance width="883.8999999999997"/>
  <unicode hex="00D8"/>
  <anchor x="495.0" y="700.0" name="top"/>
  <outline>
    <contour>
      <point x="930.0999999999999" y="714.0" type="line"/>
      <point x="771.2999999999998" y="714.0" type="line"/>
      <point x="654.0999999999999" y="608.0" type="line"/>
      <point x="652.8000000000001" y="607.6999999999999" type="line"/>
      <point x="171.7" y="172.4" type="line"/>
      <point x="170.10000000000002" y="172.10000000000002" type="line"/>
      <point x="-29.099999999999994" y="-9.799999999999999" type="line"/>
      <point x="129.3" y="-9.799999999999999" type="line"/>
      <point x="245.9" y="96.2" type="line"/>
      <point x="247.2" y="96.5" type="line"/>
      <point x="740.7" y="539.8000000000001" type="line"/>
      <point x="742.0999999999998" y="540.0999999999999" type="line"/>
    </contour>
    <contour>
      <point x="421.2" y="-8.6" type="curve" smooth="yes"/>
      <point x="695.1" y="-8.6"/>
      <point x="849.9999999999999" y="148.1"/>
      <point x="852.1999999999999" y="402.30000000000007" type="curve" smooth="yes"/>
      <point x="853.8" y="599.8"/>
      <point x="731.9999999999999" y="708.9"/>
      <point x="479.79999999999995" y="708.9" type="curve" smooth="yes"/>
      <point x="205.89999999999998" y="708.9"/>
      <point x="51.0" y="552.4999999999999"/>
      <point x="48.8" y="297.70000000000005" type="curve" smooth="yes"/>
      <point x="47.19999999999999" y="100.2"/>
      <point x="168.99999999999997" y="-8.6"/>
    </contour>
    <contour>
      <point x="432.09999999999997" y="124.79999999999997" type="curve" smooth="yes"/>
      <point x="299.9" y="124.79999999999997"/>
      <point x="233.99999999999997" y="179.59999999999997"/>
      <point x="233.99999999999997" y="298.1" type="curve" smooth="yes"/>
      <point x="233.99999999999997" y="468.8"/>
      <point x="323.79999999999995" y="575.4999999999999"/>
      <point x="470.0999999999999" y="575.4999999999999" type="curve" smooth="yes"/>
      <point x="601.2" y="575.4999999999999"/>
      <point x="667.0" y="520.7"/>
      <point x="667.0" y="402.00000000000006" type="curve" smooth="yes"/>
      <point x="667.0" y="237.3"/>
      <point x="577.8" y="124.79999999999997"/>
    </contour>
  </outline>
</glyph>
<glyph name="Thorn" format="2">
  <advance width="834.55"/>
  <unicode hex="00DE"/>
  <outline>
    <contour>
      <point x="28.750000000000004" y="0.0" type="line"/>
      <point x="215.39999999999995" y="0.0" type="line"/>
      <point x="234.3" y="114.8" type="line"/>
      <point x="315.8999999999999" y="111.10000000000001"/>
      <point x="349.75" y="110.25000000000001"/>
      <point x="402.04999999999995" y="110.25000000000001" type="curve" smooth="yes"/>
      <point x="700.7" y="110.25000000000001"/>
      <point x="823.6500000000001" y="201.1"/>
      <point x="823.6500000000001" y="407.65" type="curve" smooth="yes"/>
      <point x="823.6500000000001" y="557.6999999999999"/>
      <point x="733.25" y="630.95"/>
      <point x="468.40000000000003" y="630.95" type="curve" smooth="yes"/>
      <point x="439.8" y="630.95"/>
      <point x="394.95" y="629.8"/>
      <point x="317.0" y="627.5" type="curve"/>
      <point x="329.25" y="700.0" type="line"/>
      <point x="142.6" y="700.0" type="line"/>
    </contour>
    <contour>
      <point x="392.8499999999999" y="250.39999999999998" type="curve" smooth="yes"/>
      <point x="346.3999999999999" y="250.39999999999998"/>
      <point x="319.4" y="251.04999999999998"/>
      <point x="257.6" y="254.7" type="curve"/>
      <point x="294.35" y="487.05000000000007" type="line"/>
      <point x="387.65000000000003" y="491.45000000000005"/>
      <point x="410.15" y="492.25"/>
      <point x="460.8499999999999" y="492.25" type="curve" smooth="yes"/>
      <point x="588.95" y="492.25"/>
      <point x="631.4" y="455.8"/>
      <point x="631.4" y="394.75" type="curve" smooth="yes"/>
      <point x="631.4" y="292.7"/>
      <point x="575.4" y="250.39999999999998"/>
    </contour>
  </outline>
</glyph>
<glyph name="germandbls" format="2">
  <advance width="825.0999999999999"/>
  <unicode hex="00DF"/>
  <outline>
    <contour>
      <point x="59.18" y="0.6399999999999917" type="line" smooth="yes"/>
      <point x="51.12" y="-50.44000000000001"/>
      <point x="32.08" y="-78.8"/>
      <point x="-2.6400000000000063" y="-78.8" type="curve" smooth="yes"/>
      <point x="-14.46" y="-78.8"/>
      <point x="-29.060000000000006" y="-77.04000000000002"/>
      <point x="-43.860000000000014" y="-72.08000000000001" type="curve"/>
      <point x="-76.74000000000001" y="-199.56" type="line"/>
      <point x="-42.16000000000001" y="-214.11999999999998"/>
      <point x="-2.8600000000000114" y="-220.0"/>
      <point x="40.579999999999984" y="-220.0" type="curve" smooth="yes"/>
      <point x="147.66" y="-220.0"/>
      <point x="210.17999999999998" y="-148.10000000000002"/>
      <point x="230.04" y="-21.300000000000004" type="curve" smooth="yes"/>
      <point x="309.58" y="483.82000000000005" type="line" smooth="yes"/>
      <point x="325.3999999999999" y="582.7799999999999"/>
      <point x="390.98" y="621.98"/>
      <point x="507.4" y="621.98" type="curve" smooth="yes"/>
      <point x="589.02" y="621.98"/>
      <point x="622.56" y="604.7800000000001"/>
      <point x="622.56" y="579.06" type="curve" smooth="yes"/>
      <point x="622.56" y="553.14"/>
      <point x="606.9199999999998" y="539.28"/>
      <point x="511.29999999999995" y="519.72" type="curve" smooth="yes"/>
      <point x="405.58" y="496.90000000000003"/>
      <point x="354.47999999999996" y="451.94"/>
      <point x="354.47999999999996" y="357.78000000000003" type="curve" smooth="yes"/>
      <point x="354.47999999999996" y="273.64000000000004"/>
      <point x="405.5" y="232.78"/>
      <point x="519.3199999999999" y="210.70000000000002" type="curve" smooth="yes"/>
      <point x="611.22" y="192.3"/>
      <point x="640.0400000000001" y="181.62"/>
      <point x="640.0400000000001" y="153.28" type="curve" smooth="yes"/>
      <point x="640.0400000000001" y="122.89999999999998"/>
      <point x="600.8999999999999" y="107.83999999999997"/>
      <point x="535.62" y="107.83999999999997" type="curve" smooth="yes"/>
      <point x="472.67999999999995" y="107.83999999999997"/>
      <point x="382.2799999999999" y="122.51999999999998"/>
      <point x="322.34000000000003" y="141.64" type="curve"/>
      <point x="288.97999999999996" y="26.779999999999998" type="line"/>
      <point x="358.61999999999995" y="4.159999999999998"/>
      <point x="440.14000000000004" y="-10.22"/>
      <point x="519.32" y="-10.22" type="curve" smooth="yes"/>
      <point x="716.8199999999999" y="-10.22"/>
      <point x="807.64" y="48.04"/>
      <point x="807.64" y="170.17999999999998" type="curve" smooth="yes"/>
      <point x="807.64" y="252.79999999999998"/>
      <point x="756.0799999999999" y="301.08000000000004"/>
      <point x="646.34" y="320.36" type="curve" smooth="yes"/>
      <point x="540.2399999999999" y="338.76"/>
      <point x="513.0600000000001" y="347.24000000000007"/>
      <point x="513.0600000000001" y="375.0" type="curve" smooth="yes"/>
      <point x="513.0600000000001" y="401.54"/>
      <point x="539.4799999999999" y="409.64000000000004"/>
      <point x="630.0200000000001" y="428.14" type="curve" smooth="yes"/>
      <point x="739.02" y="449.42"/>
      <point x="777.0" y="500.06"/>
      <point x="777.0" y="587.78" type="curve" smooth="yes"/>
      <point x="777.0" y="690.78"/>
      <point x="688.1" y="750.0"/>
      <point x="506.37999999999994" y="750.0" type="curve" smooth="yes"/>
      <point x="283.5400000000001" y="750.0"/>
      <point x="168.57999999999998" y="678.28"/>
      <point x="141.1" y="509.14" type="curve" smooth="yes"/>
      <point x="138.81999999999996" y="493.59999999999997" type="line"/>
      <point x="45.16" y="480.0" type="line"/>
      <point x="25.880000000000003" y="368.06" type="line"/>
      <point x="117.24" y="368.06" type="line"/>
    </contour>
  </outline>
</glyph>
<glyph name="ae" format="2">
  <advance width="1056.8"/>
  <unicode hex="00E6"/>
  <anchor x="487.29999999999995" y="0.0" name="bottom"/>
  <anchor x="569.9" y="544.0" name="top"/>
  <outline>
    <contour>
      <point x="225.39999999999998" y="-10.0" type="curve" smooth="yes"/>
      <point x="290.8" y="-10.0"/>
      <point x="355.79999999999995" y="13.200000000000006"/>
      <point x="413.29999999999995" y="50.59999999999999" type="curve"/>
      <point x="404.59999999999997" y="-0.8999999999999999" type="line"/>
      <point x="563.4999999999999" y="-0.8999999999999999" type="line"/>
      <point x="574.1999999999999" y="65.2" type="line"/>
      <point x="611.5" y="21.099999999999998"/>
      <point x="676.4999999999998" y="-9.500000000000002"/>
      <point x="768.9000000000001" y="-9.500000000000002" type="curve" smooth="yes"/>
      <point x="841.8000000000002" y="-9.500000000000002"/>
      <point x="919.7" y="4.200000000000001"/>
      <point x="985.0999999999998" y="28.099999999999994" type="curve"/>
      <point x="969.3" y="153.7" type="line"/>
      <point x="892.6999999999999" y="130.1"/>
      <point x="816.9999999999999" y="118.5"/>
      <point x="768.4" y="118.5" type="curve" smooth="yes"/>
      <point x="659.5" y="118.5"/>
      <point x="602.3999999999999" y="157.79999999999998"/>
      <point x="602.3999999999999" y="233.6" type="curve" smooth="yes"/>
      <point x="602.3999999999999" y="343.2"/>
      <point x="672.9" y="433.1"/>
      <point x="777.5" y="433.1" type="curve" smooth="yes"/>
      <point x="830.7999999999998" y="433.1"/>
      <point x="857.8" y="416.6"/>
      <point x="857.8" y="384.20000000000005" type="curve" smooth="yes"/>
      <point x="857.8" y="339.3"/>
      <point x="798.0" y="312.70000000000005"/>
      <point x="691.2000000000002" y="303.40000000000003" type="curve" smooth="yes"/>
      <point x="648.0" y="299.5"/>
      <point x="608.4999999999999" y="299.8"/>
      <point x="573.6999999999999" y="304.19999999999993" type="curve"/>
      <point x="575.5999999999999" y="216.10000000000002" type="line"/>
      <point x="622.5000000000001" y="208.4"/>
      <point x="680.9" y="205.79999999999998"/>
      <point x="749.0999999999999" y="210.9" type="curve" smooth="yes"/>
      <point x="936.9999999999999" y="223.29999999999998"/>
      <point x="1040.3" y="297.20000000000005"/>
      <point x="1040.3" y="404.1" type="curve" smooth="yes"/>
      <point x="1040.3" y="497.90000000000003"/>
      <point x="965.4" y="554.0"/>
      <point x="841.5999999999999" y="554.0" type="curve" smooth="yes"/>
      <point x="755.7999999999998" y="554.0"/>
      <point x="685.0999999999999" y="527.9"/>
      <point x="641.1999999999999" y="488.70000000000005" type="curve"/>
      <point x="650.1" y="547.0" type="line"/>
      <point x="491.20000000000016" y="547.0" type="line"/>
      <point x="485.30000000000007" y="509.00000000000006" type="line"/>
      <point x="450.3" y="538.9999999999999"/>
      <point x="402.5" y="554.0"/>
      <point x="344.5999999999999" y="554.0" type="curve" smooth="yes"/>
      <point x="151.09999999999997" y="554.0"/>
      <point x="26.7" y="404.1"/>
      <point x="26.7" y="197.70000000000005" type="curve" smooth="yes"/>
      <point x="26.7" y="59.70000000000002"/>
      <point x="102.8" y="-10.0"/>
    </contour>
    <contour>
      <point x="310.89999999999986" y="121.29999999999998" type="curve" smooth="yes"/>
      <point x="252.29999999999995" y="121.29999999999998"/>
      <point x="206.49999999999997" y="151.7"/>
      <point x="206.49999999999997" y="222.69999999999996" type="curve" smooth="yes"/>
      <point x="206.49999999999997" y="355.40000000000003"/>
      <point x="298.1" y="432.6"/>
      <point x="383.70000000000005" y="432.6" type="curve" smooth="yes"/>
      <point x="417.0" y="432.6"/>
      <point x="443.69999999999993" y="427.8"/>
      <point x="469.69999999999993" y="412.59999999999997" type="curve"/>
      <point x="428.90000000000003" y="153.09999999999997" type="line"/>
      <point x="392.99999999999994" y="134.19999999999996"/>
      <point x="350.6" y="121.29999999999998"/>
    </contour>
  </outline>
</glyph>
<glyph name="eth" format="2">
  <advance width="711.0"/>
  <unicode hex="00F0"/>
  <outline>
    <contour>
      <point x="535.8999999999999" y="371.2" type="curve"/>
      <point x="556.1999999999998" y="480.59999999999997" type="line"/>
      <point x="501.00000000000006" y="511.09999999999997"/>
      <point x="420.70000000000005" y="525.9"/>
      <point x="345.2" y="525.9" type="curve" smooth="yes"/>
      <point x="149.20000000000002" y="525.9"/>
      <point x="25.900000000000002" y="405.9"/>
      <point x="25.900000000000002" y="224.9" type="curve" smooth="yes"/>
      <point x="25.900000000000002" y="51.80000000000001"/>
      <point x="146.8" y="-8.799999999999997"/>
      <point x="308.0999999999999" y="-8.799999999999997" type="curve" smooth="yes"/>
      <point x="517.1" y="-8.799999999999997"/>
      <point x="645.4999999999999" y="89.2"/>
      <point x="685.3" y="320.9" type="curve" smooth="yes"/>
      <point x="692.1000000000001" y="359.6"/>
      <point x="694.8999999999999" y="395.0"/>
      <point x="694.8999999999999" y="427.29999999999995" type="curve" smooth="yes"/>
      <point x="694.8999999999999" y="665.3"/>
      <point x="517.8999999999999" y="747.6000000000001"/>
      <point x="250.0" y="747.6000000000001" type="curve" smooth="yes"/>
      <point x="190.3" y="747.6000000000001"/>
      <point x="140.0" y="740.0999999999999"/>
      <point x="90.30000000000001" y="731.2" type="curve"/>
      <point x="81.40000000000002" y="628.4999999999999" type="line"/>
      <point x="123.1" y="633.9999999999999"/>
      <point x="151.29999999999998" y="640.4000000000001"/>
      <point x="228.49999999999997" y="640.4000000000001" type="curve" smooth="yes"/>
      <point x="434.29999999999995" y="640.4000000000001"/>
      <point x="516.9" y="587.2"/>
      <point x="516.9" y="458.69999999999993" type="curve" smooth="yes"/>
      <point x="516.9" y="426.70000000000005"/>
      <point x="514.5999999999999" y="390.0"/>
      <point x="506.8000000000001" y="344.8" type="curve" smooth="yes"/>
      <point x="477.30000000000007" y="168.70000000000002"/>
      <point x="420.4" y="111.7"/>
      <point x="324.2" y="111.7" type="curve" smooth="yes"/>
      <point x="246.9" y="111.7"/>
      <point x="202.5" y="147.39999999999998"/>
      <point x="202.5" y="225.20000000000002" type="curve" smooth="yes"/>
      <point x="202.5" y="336.80000000000007"/>
      <point x="275.5" y="411.90000000000003"/>
      <point x="377.1000000000001" y="411.90000000000003" type="curve" smooth="yes"/>
      <point x="442.99999999999994" y="411.90000000000003"/>
      <point x="493.2" y="396.20000000000005"/>
    </contour>
    <contour>
      <point x="257.49999999999994" y="543.3" type="line"/>
      <point x="492.49999999999994" y="644.2999999999998" type="line"/>
      <point x="487.40000000000003" y="648.3" type="line"/>
      <point x="729.7" y="752.8000000000001" type="line"/>
      <point x="560.5000000000001" y="753.0000000000001" type="line"/>
      <point x="407.8999999999999" y="687.6" type="line"/>
      <point x="411.2" y="682.8000000000001" type="line"/>
      <point x="89.3" y="543.3000000000001" type="line"/>
    </contour>
  </outline>
</glyph>
<glyph name="divide" format="2">
  <advance width="584.18"/>
  <unicode hex="00F7"/>
  <outline>
    <contour>
      <point x="184.56000000000003" y="93.20000000000002" type="curve" smooth="yes"/>
      <point x="183.96" y="59.66000000000001"/>
      <point x="205.76000000000002" y="43.10000000000001"/>
      <point x="254.45999999999998" y="43.10000000000001" type="curve" smooth="yes"/>
      <point x="309.35999999999996" y="43.10000000000001"/>
      <point x="345.52000000000004" y="65.22000000000001"/>
      <point x="346.72" y="127.22000000000001" type="curve" smooth="yes"/>
      <point x="347.32" y="160.76"/>
      <point x="325.8" y="176.92000000000002"/>
      <point x="277.34000000000003" y="176.92000000000002" type="curve" smooth="yes"/>
      <point x="222.74" y="176.92000000000002"/>
      <point x="185.76000000000002" y="150.8"/>
    </contour>
    <contour>
      <point x="250.92000000000002" y="498.09999999999997" type="curve" smooth="yes"/>
      <point x="250.32000000000002" y="465.44"/>
      <point x="270.84" y="448.4"/>
      <point x="320.41999999999996" y="448.4" type="curve" smooth="yes"/>
      <point x="375.59999999999997" y="448.4"/>
      <point x="410.72" y="471.98"/>
      <point x="411.9200000000001" y="532.9800000000001" type="curve" smooth="yes"/>
      <point x="412.52000000000004" y="566.94"/>
      <point x="391.46000000000004" y="582.5200000000001"/>
      <point x="342.42" y="582.5200000000001" type="curve" smooth="yes"/>
      <point x="286.3" y="582.5200000000001"/>
      <point x="252.12" y="555.1999999999999"/>
    </contour>
    <contour>
      <point x="50.459999999999994" y="242.40000000000003" type="line"/>
      <point x="522.5000000000001" y="242.40000000000003" type="line"/>
      <point x="546.1" y="382.6000000000001" type="line"/>
      <point x="73.75999999999999" y="382.6000000000001" type="line"/>
    </contour>
  </outline>
</glyph>
<glyph name="oslash" format="2">
  <advance width="688.3000000000001"/>
  <unicode hex="00F8"/>
  <anchor x="375.8" y="544.0" name="top"/>
  <outline>
    <contour>
      <point x="578.6999999999999" y="555.4999999999999" type="line"/>
      <point x="491.8" y="469.20000000000005" type="line"/>
      <point x="489.90000000000003" y="470.4" type="line"/>
      <point x="156.50000000000003" y="135.2" type="line"/>
      <point x="154.70000000000002" y="136.89999999999998" type="line"/>
      <point x="8.499999999999995" y="-9.8" type="line"/>
      <point x="119.6" y="-9.8" type="line"/>
      <point x="207.3" y="78.1" type="line"/>
      <point x="209.49999999999997" y="76.89999999999999" type="line"/>
      <point x="552.7999999999998" y="420.20000000000005" type="line"/>
      <point x="554.3" y="418.49999999999994" type="line"/>
      <point x="690.8" y="555.4999999999999" type="line"/>
    </contour>
    <contour>
      <point x="333.7000000000001" y="-9.8" type="curve" smooth="yes"/>
      <point x="545.6999999999999" y="-9.8"/>
      <point x="656.3999999999999" y="118.40000000000006"/>
      <point x="655.8" y="318.4" type="curve" smooth="yes"/>
      <point x="655.2" y="476.8"/>
      <point x="545.3999999999999" y="555.2999999999998"/>
      <point x="358.69999999999993" y="555.2999999999998" type="curve" smooth="yes"/>
      <point x="143.29999999999998" y="555.2999999999998"/>
      <point x="33.0" y="423.09999999999997"/>
      <point x="33.599999999999994" y="226.5" type="curve" smooth="yes"/>
      <point x="34.199999999999996" y="68.70000000000002"/>
      <point x="142.8" y="-9.8"/>
    </contour>
    <contour>
      <point x="334.5" y="110.19999999999999" type="curve" smooth="yes"/>
      <point x="254.1" y="109.69999999999999"/>
      <point x="209.2" y="145.5"/>
      <point x="208.50000000000003" y="223.59999999999997" type="curve" smooth="yes"/>
      <point x="206.5" y="334.59999999999997"/>
      <point x="254.2" y="434.3"/>
      <point x="354.90000000000003" y="435.3" type="curve" smooth="yes"/>
      <point x="434.29999999999995" y="435.8"/>
      <point x="479.5999999999999" y="399.2"/>
      <point x="480.29999999999984" y="321.3999999999999" type="curve" smooth="yes"/>
      <point x="482.29999999999984" y="205.3"/>
      <point x="433.7" y="111.0"/>
    </contour>
  </outline>
</glyph>
<glyph name="thorn" format="2">
  <advance width="701.8"/>
  <unicode hex="00FE"/>
  <outline>
    <contour>
      <point x="-13.52999999999999" y="-210.0" type="line"/>
      <point x="164.28" y="-210.0" type="line"/>
      <point x="198.60999999999999" y="3.09" type="line"/>
      <point x="228.70999999999998" y="-3.380000000000001"/>
      <point x="271.32" y="-9.65"/>
      <point x="318.59000000000003" y="-9.65" type="curve" smooth="yes"/>
      <point x="554.55" y="-9.65"/>
      <point x="675.6099999999999" y="137.05"/>
      <point x="675.6099999999999" y="352.93" type="curve" smooth="yes"/>
      <point x="675.6099999999999" y="479.76"/>
      <point x="612.5699999999999" y="554.0"/>
      <point x="489.08" y="554.0" type="curve" smooth="yes"/>
      <point x="402.97999999999996" y="554.0"/>
      <point x="341.02" y="524.8799999999999"/>
      <point x="272.99999999999994" y="480.99999999999994" type="curve"/>
      <point x="313.66999999999996" y="740.0" type="line"/>
      <point x="136.82" y="740.0" type="line"/>
    </contour>
    <contour>
      <point x="316.86999999999995" y="116.36" type="curve" smooth="yes"/>
      <point x="279.51" y="116.36"/>
      <point x="245.99999999999997" y="122.91"/>
      <point x="218.75999999999996" y="130.31" type="curve"/>
      <point x="256.48999999999995" y="365.85" type="line"/>
      <point x="302.15" y="392.09000000000003"/>
      <point x="352.3399999999999" y="409.44"/>
      <point x="398.88" y="409.44" type="curve" smooth="yes"/>
      <point x="459.95000000000005" y="409.44"/>
      <point x="495.26000000000005" y="379.54999999999995"/>
      <point x="495.26000000000005" y="310.52" type="curve" smooth="yes"/>
      <point x="495.26000000000005" y="205.5"/>
      <point x="424.3" y="116.36"/>
    </contour>
  </outline>
</glyph>
<glyph name="Dcroat" format="2">
  <advance width="876.72"/>
  <unicode hex="0110"/>
  <outline>
    <contour>
      <point x="17.779999999999998" y="290.90000000000003" type="line"/>
      <point x="425.94" y="290.90000000000003" type="line"/>
      <point x="448.91999999999996" y="421.05999999999995" type="line"/>
      <point x="39.620000000000005" y="421.05999999999995" type="line"/>
    </contour>
    <component base="D" xOffset="8.14"/>
  </outline>
</glyph>
<glyph name="dcroat" format="2">
  <advance width="722.6399999999999"/>
  <unicode hex="0111"/>
  <outline>
    <contour>
      <point x="347.2" y="603.34" type="line"/>
      <point x="762.0400000000001" y="603.34" type="line"/>
      <point x="775.82" y="685.04" type="line"/>
      <point x="361.09999999999997" y="685.04" type="line"/>
    </contour>
    <component base="d"/>
  </outline>
</glyph>
<glyph name="Hbar" format="2">
  <advance width="876.1200000000001"/>
  <unicode hex="0126"/>
  <outline>
    <contour>
      <point x="56.769999999999996" y="494.23" type="line"/>
      <point x="890.86" y="494.23" type="line"/>
      <point x="909.94" y="614.44" type="line"/>
      <point x="75.85" y="614.44" type="line"/>
    </contour>
    <component base="H" xOffset="1.84"/>
  </outline>
</glyph>
<glyph name="hbar" format="2">
  <advance width="697.28"/>
  <unicode hex="0127"/>
  <outline>
    <contour>
      <point x="39.400000000000006" y="603.34" type="line"/>
      <point x="445.96" y="603.34" type="line"/>
      <point x="459.44" y="685.04" type="line"/>
      <point x="52.88" y="685.04" type="line"/>
    </contour>
    <component base="h" xOffset="-1.3199999999999998"/>
  </outline>
</glyph>
<glyph name="Idotaccent" format="2">
  <advance width="334.03000000000003"/>
  <unicode hex="0130"/>
  <outline>
    <contour>
      <point x="269.09" y="916.5999999999999" type="curve" smooth="yes"/>
      <point x="186.07000000000002" y="916.5999999999999"/>
      <point x="148.13" y="881.0"/>
      <point x="147.65" y="816.75" type="curve" smooth="yes"/>
      <point x="147.56" y="775.0100000000001"/>
      <point x="176.77999999999997" y="752.1899999999999"/>
      <point x="241.09" y="752.1899999999999" type="curve" smooth="yes"/>
      <point x="311.65" y="752.1899999999999"/>
      <point x="361.77" y="781.35"/>
      <point x="362.46" y="852.95" type="curve" smooth="yes"/>
      <point x="362.55" y="893.9899999999999"/>
      <point x="333.75" y="916.5999999999999"/>
    </contour>
    <component base="I"/>
  </outline>
</glyph>
<glyph name="dotlessi" format="2">
  <advance width="305.42999999999995"/>
  <unicode hex="0131"/>
  <anchor x="108.88756" y="0.0" name="bottom"/>
  <anchor x="198.75" y="0.0" name="ogonek"/>
  <anchor x="195.25243999999998" y="544.0" name="top"/>
  <outline>
    <contour>
      <point x="198.75" y="0.0" type="line"/>
      <point x="284.36" y="544.0" type="line"/>
      <point x="105.97" y="544.0" type="line"/>
      <point x="19.469999999999995" y="0.48999999999999994" type="line"/>
    </contour>
  </outline>
</glyph>
<glyph name="Ldot" format="2">
  <advance width="697.1599999999999"/>
  <unicode hex="013F"/>
  <outline>
    <contour>
      <point x="446.65958" y="401.72202" type="curve" smooth="yes"/>
      <point x="446.26957999999996" y="361.40342"/>
      <point x="471.34902" y="340.27419"/>
      <point x="526.25755" y="340.27419" type="curve" smooth="yes"/>
      <point x="592.5053099999999" y="340.27419"/>
      <point x="629.9746799999999" y="373.96138999999994"/>
      <point x="630.78468" y="433.42964" type="curve" smooth="yes"/>
      <point x="631.1746799999999" y="474.35831"/>
      <point x="606.18524" y="495.57754"/>
      <point x="551.90657" y="495.57754" type="curve" smooth="yes"/>
      <point x="486.28888" y="495.57754"/>
      <point x="447.46957999999995" y="459.23026999999996"/>
    </contour>
    <component base="L"/>
  </outline>
</glyph>
<glyph name="ldot" format="2">
  <advance width="425.92"/>
  <unicode hex="0140"/>
  <outline>
    <contour>
      <point x="326.5539" y="382.20665" type="curve" smooth="yes"/>
      <point x="326.1639" y="351.64458"/>
      <point x="342.16476" y="336.10408"/>
      <point x="377.84709" y="336.10408" type="curve" smooth="yes"/>
      <point x="422.66686999999996" y="336.10408"/>
      <point x="445.60375" y="363.12119"/>
      <point x="446.41375" y="408.21675999999997" type="curve" smooth="yes"/>
      <point x="446.80375000000004" y="439.07663"/>
      <point x="430.89288999999997" y="454.70713"/>
      <point x="395.62825" y="454.70713" type="curve" smooth="yes"/>
      <point x="351.22546" y="454.70713"/>
      <point x="327.3639" y="425.97579"/>
    </contour>
    <component base="l"/>
  </outline>
</glyph>
<glyph name="Lslash" format="2">
  <advance width="695.81"/>
  <unicode hex="0141"/>
  <outline>
    <contour>
      <point x="27.1" y="0.0" type="line"/>
      <point x="627.96" y="0.0" type="line"/>
      <point x="653.7099999999999" y="149.13" type="line"/>
      <point x="238.38000000000002" y="149.13" type="line"/>
      <point x="261.46" y="295.51000000000005" type="line"/>
      <point x="504.32" y="415.67" type="line"/>
      <point x="529.74" y="570.05" type="line"/>
      <point x="286.46" y="449.68" type="line"/>
      <point x="326.78" y="700.0" type="line"/>
      <point x="140.27" y="700.0" type="line"/>
      <point x="85.26" y="360.03" type="line"/>
      <point x="18.58" y="326.68" type="line"/>
      <point x="-5.319999999999997" y="174.66" type="line"/>
      <point x="60.16999999999999" y="207.52" type="line"/>
    </contour>
  </outline>
</glyph>
<glyph name="lslash" format="2">
  <advance width="382.09999999999997"/>
  <unicode hex="0142"/>
  <outline>
    <contour>
      <point x="-2.9299999999999997" y="183.70999999999998" type="line"/>
      <point x="358.84999999999997" y="388.09000000000003" type="line"/>
      <point x="379.78999999999996" y="519.13" type="line"/>
      <point x="17.310000000000002" y="314.74999999999994" type="line"/>
    </contour>
    <component base="l" xOffset="4.200000000000001"/>
  </outline>
</glyph>
<glyph name="Eng" format="2">
  <advance width="840.4"/>
  <unicode hex="014A"/>
  <outline>
    <contour>
      <point x="28.450000000000003" y="0.0" type="line"/>
      <point x="198.99999999999997" y="0.0" type="line"/>
      <point x="267.85" y="425.75" type="line"/>
      <point x="555.2" y="1.5500000000000005" type="line"/>
      <point x="544.4000000000001" y="-55.5"/>
      <point x="499.69999999999993" y="-72.49999999999999"/>
      <point x="443.25" y="-72.49999999999999" type="curve" smooth="yes"/>
      <point x="413.2" y="-73.1"/>
      <point x="385.7" y="-68.9"/>
      <point x="356.05" y="-59.20000000000002" type="curve"/>
      <point x="328.49999999999994" y="-196.54999999999998" type="line"/>
      <point x="372.79999999999995" y="-208.9"/>
      <point x="428.94999999999993" y="-211.70000000000002"/>
      <point x="455.74999999999994" y="-211.70000000000002" type="curve" smooth="yes"/>
      <point x="604.65" y="-211.1"/>
      <point x="695.6" y="-160.1"/>
      <point x="721.1999999999999" y="-0.04999999999999924" type="curve" smooth="yes"/>
      <point x="834.95" y="700.0" type="line"/>
      <point x="664.0" y="700.0" type="line"/>
      <point x="592.5500000000002" y="257.8" type="line"/>
      <point x="306.84999999999997" y="702.1" type="line"/>
      <point x="142.20000000000002" y="702.1" type="line"/>
    </contour>
  </outline>
</glyph>
<glyph name="eng" format="2">
  <advance width="690.8799999999999"/>
  <unicode hex="014B"/>
  <outline>
    <contour>
      <point x="585.7299999999999" y="18.17999999999999" type="curve" smooth="yes"/>
      <point x="596.04" y="83.69999999999999"/>
      <point x="650.4300000000001" y="406.15000000000003"/>
      <point x="650.4300000000001" y="423.94" type="curve" smooth="yes"/>
      <point x="650.4300000000001" y="500.59999999999997"/>
      <point x="592.8899999999999" y="554.0"/>
      <point x="484.93999999999994" y="554.0" type="curve" smooth="yes"/>
      <point x="405.54999999999995" y="554.0"/>
      <point x="345.40999999999997" y="529.82"/>
      <point x="255.74" y="483.35999999999996" type="curve"/>
      <point x="265.10999999999996" y="544.0" type="line"/>
      <point x="105.47999999999999" y="544.0" type="line"/>
      <point x="19.59" y="0.0" type="line"/>
      <point x="195.44" y="0.0" type="line"/>
      <point x="256.87" y="378.04999999999995" type="line"/>
      <point x="307.6" y="400.46999999999997"/>
      <point x="347.96999999999997" y="415.83"/>
      <point x="393.01" y="415.83" type="curve" smooth="yes"/>
      <point x="441.36" y="415.83"/>
      <point x="466.86" y="394.04"/>
      <point x="462.94" y="348.94" type="curve" smooth="yes"/>
      <point x="457.06" y="304.48"/>
      <point x="436.06000000000006" y="180.22000000000003"/>
      <point x="410.44" y="21.84999999999999" type="curve" smooth="yes"/>
      <point x="399.82" y="-43.28000000000001"/>
      <point x="374.32" y="-71.82000000000001"/>
      <point x="324.71999999999997" y="-71.82000000000001" type="curve" smooth="yes"/>
      <point x="318.01" y="-71.82000000000001"/>
      <point x="309.46999999999997" y="-71.31"/>
      <point x="300.03" y="-68.4" type="curve"/>
      <point x="269.06" y="-214.33999999999997" type="line"/>
      <point x="290.82000000000005" y="-218.44"/>
      <point x="332.96999999999997" y="-221.26"/>
      <point x="364.72999999999996" y="-221.26" type="curve" smooth="yes"/>
      <point x="492.90000000000003" y="-221.26"/>
      <point x="560.79" y="-145.95000000000002"/>
    </contour>
  </outline>
</glyph>
